M48
; DRILL file {KiCad (5.1.10)-1} date 03/17/22 12:17:52
; FORMAT={-:-/ absolute / inch / decimal}
; #@! TF.CreationDate,2022-03-17T12:17:52-05:00
; #@! TF.GenerationSoftware,Kicad,Pcbnew,(5.1.10)-1
; #@! TF.FileFunction,Plated,1,2,PTH
FMAT,2
INCH
T1C0.0157
T2C0.0315
T3C0.0394
%
G90
G05
T1
X3.82Y-2.16
X3.82Y-3.16
X3.85Y-3.675
X4.11Y-1.53
X4.12Y-2.66
X4.5Y-1.5
X4.53Y-1.16
X4.6Y-3.725
X4.625Y-1.35
X4.775Y-1.525
X4.79Y-2.75
X4.875Y-1.35
X4.925Y-1.325
X5.1Y-2.71
X5.18Y-1.5
X5.325Y-3.675
X5.375Y-1.375
T2
X3.925Y-1.613
X3.925Y-1.713
X3.925Y-1.813
X3.925Y-1.913
X3.925Y-2.013
X3.925Y-2.113
X3.925Y-2.213
X3.925Y-2.313
X3.925Y-2.413
X3.925Y-2.513
X3.925Y-2.613
X3.925Y-2.713
X3.925Y-2.813
X3.925Y-2.913
X3.925Y-3.013
X3.925Y-3.113
X3.925Y-3.213
X3.925Y-3.313
X3.925Y-3.413
X3.925Y-3.513
X3.925Y-3.613
X4.3Y-1.613
X4.3Y-1.713
X4.3Y-1.813
X4.3Y-1.913
X4.3Y-2.013
X4.3Y-2.113
X4.3Y-2.213
X4.3Y-2.313
X4.3Y-2.413
X4.3Y-2.513
X4.3Y-2.613
X4.3Y-2.713
X4.3Y-2.813
X4.3Y-2.913
X4.3Y-3.013
X4.3Y-3.113
X4.3Y-3.213
X4.3Y-3.313
X4.3Y-3.413
X4.3Y-3.513
X4.3Y-3.613
X4.525Y-1.613
X4.525Y-1.713
X4.525Y-1.813
X4.525Y-1.913
X4.525Y-2.013
X4.525Y-2.113
X4.525Y-2.213
X4.525Y-2.313
X4.525Y-2.413
X4.525Y-2.513
X4.525Y-2.613
X4.525Y-2.713
X4.525Y-2.813
X4.525Y-2.913
X4.525Y-3.013
X4.525Y-3.113
X4.525Y-3.213
X4.525Y-3.313
X4.525Y-3.413
X4.525Y-3.513
X4.525Y-3.613
X4.6756Y-1.613
X4.6756Y-1.713
X4.6756Y-1.813
X4.6756Y-1.913
X4.6756Y-2.013
X4.6756Y-2.113
X4.6756Y-2.213
X4.6756Y-2.313
X4.6756Y-2.413
X4.6756Y-2.513
X4.6756Y-2.613
X4.6756Y-2.713
X4.6756Y-2.813
X4.6756Y-2.913
X4.6756Y-3.013
X4.6756Y-3.113
X4.6756Y-3.213
X4.6756Y-3.313
X4.6756Y-3.413
X4.6756Y-3.513
X4.6756Y-3.613
X4.9Y-1.613
X4.9Y-1.713
X4.9Y-1.813
X4.9Y-1.913
X4.9Y-2.013
X4.9Y-2.113
X4.9Y-2.213
X4.9Y-2.313
X4.9Y-2.413
X4.9Y-2.513
X4.9Y-2.613
X4.9Y-2.713
X4.9Y-2.813
X4.9Y-2.913
X4.9Y-3.013
X4.9Y-3.113
X4.9Y-3.213
X4.9Y-3.313
X4.9Y-3.413
X4.9Y-3.513
X4.9Y-3.613
X5.2756Y-1.613
X5.2756Y-1.713
X5.2756Y-1.813
X5.2756Y-1.913
X5.2756Y-2.013
X5.2756Y-2.113
X5.2756Y-2.213
X5.2756Y-2.313
X5.2756Y-2.413
X5.2756Y-2.513
X5.2756Y-2.613
X5.2756Y-2.713
X5.2756Y-2.813
X5.2756Y-2.913
X5.2756Y-3.013
X5.2756Y-3.113
X5.2756Y-3.213
X5.2756Y-3.313
X5.2756Y-3.413
X5.2756Y-3.513
X5.2756Y-3.613
T3
X5.075Y-1.25
X5.175Y-1.25
X5.275Y-1.25
T0
M30
