%TF.GenerationSoftware,KiCad,Pcbnew,(5.1.10)-1*%
%TF.CreationDate,2022-03-17T12:17:49-05:00*%
%TF.ProjectId,gummyswitch,67756d6d-7973-4776-9974-63682e6b6963,rev?*%
%TF.SameCoordinates,Original*%
%TF.FileFunction,Legend,Top*%
%TF.FilePolarity,Positive*%
%FSLAX46Y46*%
G04 Gerber Fmt 4.6, Leading zero omitted, Abs format (unit mm)*
G04 Created by KiCad (PCBNEW (5.1.10)-1) date 2022-03-17 12:17:49*
%MOMM*%
%LPD*%
G01*
G04 APERTURE LIST*
%ADD10C,0.120000*%
%ADD11C,0.150000*%
G04 APERTURE END LIST*
D10*
%TO.C,C1*%
X114200000Y-33393748D02*
X114200000Y-33916252D01*
X115670000Y-33393748D02*
X115670000Y-33916252D01*
%TO.C,R1*%
X133122936Y-34190000D02*
X133577064Y-34190000D01*
X133122936Y-35660000D02*
X133577064Y-35660000D01*
%TO.C,SW1*%
X135315000Y-33080000D02*
X135315000Y-30420000D01*
X130175000Y-33080000D02*
X135315000Y-33080000D01*
X130175000Y-30420000D02*
X135315000Y-30420000D01*
X130175000Y-33080000D02*
X130175000Y-30420000D01*
X128905000Y-33080000D02*
X127575000Y-33080000D01*
X127575000Y-33080000D02*
X127575000Y-31750000D01*
%TO.C,U1*%
X125720000Y-33655000D02*
X125720000Y-31705000D01*
X125720000Y-33655000D02*
X125720000Y-35605000D01*
X116850000Y-33655000D02*
X116850000Y-31705000D01*
X116850000Y-33655000D02*
X116850000Y-37105000D01*
%TO.C,U4*%
X132840000Y-39640000D02*
X127380000Y-39640000D01*
X132840000Y-93100000D02*
X132840000Y-39640000D01*
X119920000Y-93100000D02*
X132840000Y-93100000D01*
X119920000Y-39640000D02*
X119920000Y-93100000D01*
X125380000Y-39640000D02*
X119920000Y-39640000D01*
X127380000Y-39640000D02*
G75*
G02*
X125380000Y-39640000I-1000000J0D01*
G01*
%TO.C,U3*%
X113775000Y-39640000D02*
X108315000Y-39640000D01*
X113775000Y-93100000D02*
X113775000Y-39640000D01*
X100855000Y-93100000D02*
X113775000Y-93100000D01*
X100855000Y-39640000D02*
X100855000Y-93100000D01*
X106315000Y-39640000D02*
X100855000Y-39640000D01*
X108315000Y-39640000D02*
G75*
G02*
X106315000Y-39640000I-1000000J0D01*
G01*
%TO.C,C1*%
D11*
X114768333Y-31472142D02*
X114720714Y-31519761D01*
X114577857Y-31567380D01*
X114482619Y-31567380D01*
X114339761Y-31519761D01*
X114244523Y-31424523D01*
X114196904Y-31329285D01*
X114149285Y-31138809D01*
X114149285Y-30995952D01*
X114196904Y-30805476D01*
X114244523Y-30710238D01*
X114339761Y-30615000D01*
X114482619Y-30567380D01*
X114577857Y-30567380D01*
X114720714Y-30615000D01*
X114768333Y-30662619D01*
X115720714Y-31567380D02*
X115149285Y-31567380D01*
X115435000Y-31567380D02*
X115435000Y-30567380D01*
X115339761Y-30710238D01*
X115244523Y-30805476D01*
X115149285Y-30853095D01*
%TO.C,R1*%
X133183333Y-37282380D02*
X132850000Y-36806190D01*
X132611904Y-37282380D02*
X132611904Y-36282380D01*
X132992857Y-36282380D01*
X133088095Y-36330000D01*
X133135714Y-36377619D01*
X133183333Y-36472857D01*
X133183333Y-36615714D01*
X133135714Y-36710952D01*
X133088095Y-36758571D01*
X132992857Y-36806190D01*
X132611904Y-36806190D01*
X134135714Y-37282380D02*
X133564285Y-37282380D01*
X133850000Y-37282380D02*
X133850000Y-36282380D01*
X133754761Y-36425238D01*
X133659523Y-36520476D01*
X133564285Y-36568095D01*
%TO.C,SW1*%
X127571666Y-34694761D02*
X127714523Y-34742380D01*
X127952619Y-34742380D01*
X128047857Y-34694761D01*
X128095476Y-34647142D01*
X128143095Y-34551904D01*
X128143095Y-34456666D01*
X128095476Y-34361428D01*
X128047857Y-34313809D01*
X127952619Y-34266190D01*
X127762142Y-34218571D01*
X127666904Y-34170952D01*
X127619285Y-34123333D01*
X127571666Y-34028095D01*
X127571666Y-33932857D01*
X127619285Y-33837619D01*
X127666904Y-33790000D01*
X127762142Y-33742380D01*
X128000238Y-33742380D01*
X128143095Y-33790000D01*
X128476428Y-33742380D02*
X128714523Y-34742380D01*
X128905000Y-34028095D01*
X129095476Y-34742380D01*
X129333571Y-33742380D01*
X130238333Y-34742380D02*
X129666904Y-34742380D01*
X129952619Y-34742380D02*
X129952619Y-33742380D01*
X129857380Y-33885238D01*
X129762142Y-33980476D01*
X129666904Y-34028095D01*
%TO.C,U1*%
X120523095Y-33107380D02*
X120523095Y-33916904D01*
X120570714Y-34012142D01*
X120618333Y-34059761D01*
X120713571Y-34107380D01*
X120904047Y-34107380D01*
X120999285Y-34059761D01*
X121046904Y-34012142D01*
X121094523Y-33916904D01*
X121094523Y-33107380D01*
X122094523Y-34107380D02*
X121523095Y-34107380D01*
X121808809Y-34107380D02*
X121808809Y-33107380D01*
X121713571Y-33250238D01*
X121618333Y-33345476D01*
X121523095Y-33393095D01*
%TO.C,U4*%
X125618095Y-38092380D02*
X125618095Y-38901904D01*
X125665714Y-38997142D01*
X125713333Y-39044761D01*
X125808571Y-39092380D01*
X125999047Y-39092380D01*
X126094285Y-39044761D01*
X126141904Y-38997142D01*
X126189523Y-38901904D01*
X126189523Y-38092380D01*
X127094285Y-38425714D02*
X127094285Y-39092380D01*
X126856190Y-38044761D02*
X126618095Y-38759047D01*
X127237142Y-38759047D01*
%TO.C,U3*%
X106553095Y-38092380D02*
X106553095Y-38901904D01*
X106600714Y-38997142D01*
X106648333Y-39044761D01*
X106743571Y-39092380D01*
X106934047Y-39092380D01*
X107029285Y-39044761D01*
X107076904Y-38997142D01*
X107124523Y-38901904D01*
X107124523Y-38092380D01*
X107505476Y-38092380D02*
X108124523Y-38092380D01*
X107791190Y-38473333D01*
X107934047Y-38473333D01*
X108029285Y-38520952D01*
X108076904Y-38568571D01*
X108124523Y-38663809D01*
X108124523Y-38901904D01*
X108076904Y-38997142D01*
X108029285Y-39044761D01*
X107934047Y-39092380D01*
X107648333Y-39092380D01*
X107553095Y-39044761D01*
X107505476Y-38997142D01*
%TD*%
M02*
