%TF.GenerationSoftware,KiCad,Pcbnew,(5.1.10)-1*%
%TF.CreationDate,2022-03-17T12:17:49-05:00*%
%TF.ProjectId,gummyswitch,67756d6d-7973-4776-9974-63682e6b6963,rev?*%
%TF.SameCoordinates,Original*%
%TF.FileFunction,Soldermask,Bot*%
%TF.FilePolarity,Negative*%
%FSLAX46Y46*%
G04 Gerber Fmt 4.6, Leading zero omitted, Abs format (unit mm)*
G04 Created by KiCad (PCBNEW (5.1.10)-1) date 2022-03-17 12:17:49*
%MOMM*%
%LPD*%
G01*
G04 APERTURE LIST*
%ADD10R,1.600000X1.600000*%
%ADD11O,1.600000X1.600000*%
%ADD12O,1.700000X1.700000*%
%ADD13R,1.700000X1.700000*%
G04 APERTURE END LIST*
D10*
%TO.C,U2*%
X109220000Y-40970000D03*
D11*
X124460000Y-91770000D03*
X109220000Y-43510000D03*
X124460000Y-89230000D03*
X109220000Y-46050000D03*
X124460000Y-86690000D03*
X109220000Y-48590000D03*
X124460000Y-84150000D03*
X109220000Y-51130000D03*
X124460000Y-81610000D03*
X109220000Y-53670000D03*
X124460000Y-79070000D03*
X109220000Y-56210000D03*
X124460000Y-76530000D03*
X109220000Y-58750000D03*
X124460000Y-73990000D03*
X109220000Y-61290000D03*
X124460000Y-71450000D03*
X109220000Y-63830000D03*
X124460000Y-68910000D03*
X109220000Y-66370000D03*
X124460000Y-66370000D03*
X109220000Y-68910000D03*
X124460000Y-63830000D03*
X109220000Y-71450000D03*
X124460000Y-61290000D03*
X109220000Y-73990000D03*
X124460000Y-58750000D03*
X109220000Y-76530000D03*
X124460000Y-56210000D03*
X109220000Y-79070000D03*
X124460000Y-53670000D03*
X109220000Y-81610000D03*
X124460000Y-51130000D03*
X109220000Y-84150000D03*
X124460000Y-48590000D03*
X109220000Y-86690000D03*
X124460000Y-46050000D03*
X109220000Y-89230000D03*
X124460000Y-43510000D03*
X109220000Y-91770000D03*
X124460000Y-40970000D03*
%TD*%
D12*
%TO.C,SW1*%
X133985000Y-31750000D03*
X131445000Y-31750000D03*
D13*
X128905000Y-31750000D03*
%TD*%
D11*
%TO.C,U4*%
X134000000Y-40970000D03*
X118760000Y-91770000D03*
X134000000Y-43510000D03*
X118760000Y-89230000D03*
X134000000Y-46050000D03*
X118760000Y-86690000D03*
X134000000Y-48590000D03*
X118760000Y-84150000D03*
X134000000Y-51130000D03*
X118760000Y-81610000D03*
X134000000Y-53670000D03*
X118760000Y-79070000D03*
X134000000Y-56210000D03*
X118760000Y-76530000D03*
X134000000Y-58750000D03*
X118760000Y-73990000D03*
X134000000Y-61290000D03*
X118760000Y-71450000D03*
X134000000Y-63830000D03*
X118760000Y-68910000D03*
X134000000Y-66370000D03*
X118760000Y-66370000D03*
X134000000Y-68910000D03*
X118760000Y-63830000D03*
X134000000Y-71450000D03*
X118760000Y-61290000D03*
X134000000Y-73990000D03*
X118760000Y-58750000D03*
X134000000Y-76530000D03*
X118760000Y-56210000D03*
X134000000Y-79070000D03*
X118760000Y-53670000D03*
X134000000Y-81610000D03*
X118760000Y-51130000D03*
X134000000Y-84150000D03*
X118760000Y-48590000D03*
X134000000Y-86690000D03*
X118760000Y-46050000D03*
X134000000Y-89230000D03*
X118760000Y-43510000D03*
X134000000Y-91770000D03*
D10*
X118760000Y-40970000D03*
%TD*%
D11*
%TO.C,U3*%
X114935000Y-40970000D03*
X99695000Y-91770000D03*
X114935000Y-43510000D03*
X99695000Y-89230000D03*
X114935000Y-46050000D03*
X99695000Y-86690000D03*
X114935000Y-48590000D03*
X99695000Y-84150000D03*
X114935000Y-51130000D03*
X99695000Y-81610000D03*
X114935000Y-53670000D03*
X99695000Y-79070000D03*
X114935000Y-56210000D03*
X99695000Y-76530000D03*
X114935000Y-58750000D03*
X99695000Y-73990000D03*
X114935000Y-61290000D03*
X99695000Y-71450000D03*
X114935000Y-63830000D03*
X99695000Y-68910000D03*
X114935000Y-66370000D03*
X99695000Y-66370000D03*
X114935000Y-68910000D03*
X99695000Y-63830000D03*
X114935000Y-71450000D03*
X99695000Y-61290000D03*
X114935000Y-73990000D03*
X99695000Y-58750000D03*
X114935000Y-76530000D03*
X99695000Y-56210000D03*
X114935000Y-79070000D03*
X99695000Y-53670000D03*
X114935000Y-81610000D03*
X99695000Y-51130000D03*
X114935000Y-84150000D03*
X99695000Y-48590000D03*
X114935000Y-86690000D03*
X99695000Y-46050000D03*
X114935000Y-89230000D03*
X99695000Y-43510000D03*
X114935000Y-91770000D03*
D10*
X99695000Y-40970000D03*
%TD*%
M02*
