%TF.GenerationSoftware,KiCad,Pcbnew,(5.1.10)-1*%
%TF.CreationDate,2022-03-17T12:17:49-05:00*%
%TF.ProjectId,gummyswitch,67756d6d-7973-4776-9974-63682e6b6963,rev?*%
%TF.SameCoordinates,Original*%
%TF.FileFunction,Copper,L2,Bot*%
%TF.FilePolarity,Positive*%
%FSLAX46Y46*%
G04 Gerber Fmt 4.6, Leading zero omitted, Abs format (unit mm)*
G04 Created by KiCad (PCBNEW (5.1.10)-1) date 2022-03-17 12:17:49*
%MOMM*%
%LPD*%
G01*
G04 APERTURE LIST*
%TA.AperFunction,ComponentPad*%
%ADD10R,1.600000X1.600000*%
%TD*%
%TA.AperFunction,ComponentPad*%
%ADD11O,1.600000X1.600000*%
%TD*%
%TA.AperFunction,ComponentPad*%
%ADD12O,1.700000X1.700000*%
%TD*%
%TA.AperFunction,ComponentPad*%
%ADD13R,1.700000X1.700000*%
%TD*%
%TA.AperFunction,ViaPad*%
%ADD14C,0.800000*%
%TD*%
%TA.AperFunction,Conductor*%
%ADD15C,0.250000*%
%TD*%
%TA.AperFunction,Conductor*%
%ADD16C,0.254000*%
%TD*%
%TA.AperFunction,Conductor*%
%ADD17C,0.100000*%
%TD*%
G04 APERTURE END LIST*
D10*
%TO.P,U2,1*%
%TO.N,/A18*%
X109220000Y-40970000D03*
D11*
%TO.P,U2,22*%
%TO.N,VCC*%
X124460000Y-91770000D03*
%TO.P,U2,2*%
%TO.N,/A17*%
X109220000Y-43510000D03*
%TO.P,U2,23*%
%TO.N,/D4*%
X124460000Y-89230000D03*
%TO.P,U2,3*%
%TO.N,/A7*%
X109220000Y-46050000D03*
%TO.P,U2,24*%
%TO.N,/D12*%
X124460000Y-86690000D03*
%TO.P,U2,4*%
%TO.N,/A6*%
X109220000Y-48590000D03*
%TO.P,U2,25*%
%TO.N,/D5*%
X124460000Y-84150000D03*
%TO.P,U2,5*%
%TO.N,/A5*%
X109220000Y-51130000D03*
%TO.P,U2,26*%
%TO.N,/D13*%
X124460000Y-81610000D03*
%TO.P,U2,6*%
%TO.N,/A4*%
X109220000Y-53670000D03*
%TO.P,U2,27*%
%TO.N,/D6*%
X124460000Y-79070000D03*
%TO.P,U2,7*%
%TO.N,/A3*%
X109220000Y-56210000D03*
%TO.P,U2,28*%
%TO.N,/D14*%
X124460000Y-76530000D03*
%TO.P,U2,8*%
%TO.N,/A2*%
X109220000Y-58750000D03*
%TO.P,U2,29*%
%TO.N,/D7*%
X124460000Y-73990000D03*
%TO.P,U2,9*%
%TO.N,/A1*%
X109220000Y-61290000D03*
%TO.P,U2,30*%
%TO.N,/D15*%
X124460000Y-71450000D03*
%TO.P,U2,10*%
%TO.N,/A0*%
X109220000Y-63830000D03*
%TO.P,U2,31*%
%TO.N,GND*%
X124460000Y-68910000D03*
%TO.P,U2,11*%
%TO.N,/~E*%
X109220000Y-66370000D03*
%TO.P,U2,32*%
%TO.N,/BYTE*%
X124460000Y-66370000D03*
%TO.P,U2,12*%
%TO.N,GND*%
X109220000Y-68910000D03*
%TO.P,U2,33*%
%TO.N,/A16*%
X124460000Y-63830000D03*
%TO.P,U2,13*%
%TO.N,/OE*%
X109220000Y-71450000D03*
%TO.P,U2,34*%
%TO.N,/A15*%
X124460000Y-61290000D03*
%TO.P,U2,14*%
%TO.N,/D0*%
X109220000Y-73990000D03*
%TO.P,U2,35*%
%TO.N,/A14*%
X124460000Y-58750000D03*
%TO.P,U2,15*%
%TO.N,/D8*%
X109220000Y-76530000D03*
%TO.P,U2,36*%
%TO.N,/A13*%
X124460000Y-56210000D03*
%TO.P,U2,16*%
%TO.N,/D1*%
X109220000Y-79070000D03*
%TO.P,U2,37*%
%TO.N,/A12*%
X124460000Y-53670000D03*
%TO.P,U2,17*%
%TO.N,/D9*%
X109220000Y-81610000D03*
%TO.P,U2,38*%
%TO.N,/A11*%
X124460000Y-51130000D03*
%TO.P,U2,18*%
%TO.N,/D2*%
X109220000Y-84150000D03*
%TO.P,U2,39*%
%TO.N,/A10*%
X124460000Y-48590000D03*
%TO.P,U2,19*%
%TO.N,/D10*%
X109220000Y-86690000D03*
%TO.P,U2,40*%
%TO.N,/A9*%
X124460000Y-46050000D03*
%TO.P,U2,20*%
%TO.N,/D3*%
X109220000Y-89230000D03*
%TO.P,U2,41*%
%TO.N,/A8*%
X124460000Y-43510000D03*
%TO.P,U2,21*%
%TO.N,/D11*%
X109220000Y-91770000D03*
%TO.P,U2,42*%
%TO.N,/A19*%
X124460000Y-40970000D03*
%TD*%
D12*
%TO.P,SW1,3*%
%TO.N,Net-(R1-Pad1)*%
X133985000Y-31750000D03*
%TO.P,SW1,2*%
%TO.N,Net-(SW1-Pad2)*%
X131445000Y-31750000D03*
D13*
%TO.P,SW1,1*%
%TO.N,GND*%
X128905000Y-31750000D03*
%TD*%
D11*
%TO.P,U4,42*%
%TO.N,/A19*%
X134000000Y-40970000D03*
%TO.P,U4,21*%
%TO.N,/D11*%
X118760000Y-91770000D03*
%TO.P,U4,41*%
%TO.N,/A8*%
X134000000Y-43510000D03*
%TO.P,U4,20*%
%TO.N,/D3*%
X118760000Y-89230000D03*
%TO.P,U4,40*%
%TO.N,/A9*%
X134000000Y-46050000D03*
%TO.P,U4,19*%
%TO.N,/D10*%
X118760000Y-86690000D03*
%TO.P,U4,39*%
%TO.N,/A10*%
X134000000Y-48590000D03*
%TO.P,U4,18*%
%TO.N,/D2*%
X118760000Y-84150000D03*
%TO.P,U4,38*%
%TO.N,/A11*%
X134000000Y-51130000D03*
%TO.P,U4,17*%
%TO.N,/D9*%
X118760000Y-81610000D03*
%TO.P,U4,37*%
%TO.N,/A12*%
X134000000Y-53670000D03*
%TO.P,U4,16*%
%TO.N,/D1*%
X118760000Y-79070000D03*
%TO.P,U4,36*%
%TO.N,/A13*%
X134000000Y-56210000D03*
%TO.P,U4,15*%
%TO.N,/D8*%
X118760000Y-76530000D03*
%TO.P,U4,35*%
%TO.N,/A14*%
X134000000Y-58750000D03*
%TO.P,U4,14*%
%TO.N,/D0*%
X118760000Y-73990000D03*
%TO.P,U4,34*%
%TO.N,/A15*%
X134000000Y-61290000D03*
%TO.P,U4,13*%
%TO.N,/OE*%
X118760000Y-71450000D03*
%TO.P,U4,33*%
%TO.N,/A16*%
X134000000Y-63830000D03*
%TO.P,U4,12*%
%TO.N,GND*%
X118760000Y-68910000D03*
%TO.P,U4,32*%
%TO.N,/BYTE*%
X134000000Y-66370000D03*
%TO.P,U4,11*%
%TO.N,/~ROM2_E*%
X118760000Y-66370000D03*
%TO.P,U4,31*%
%TO.N,GND*%
X134000000Y-68910000D03*
%TO.P,U4,10*%
%TO.N,/A0*%
X118760000Y-63830000D03*
%TO.P,U4,30*%
%TO.N,/D15*%
X134000000Y-71450000D03*
%TO.P,U4,9*%
%TO.N,/A1*%
X118760000Y-61290000D03*
%TO.P,U4,29*%
%TO.N,/D7*%
X134000000Y-73990000D03*
%TO.P,U4,8*%
%TO.N,/A2*%
X118760000Y-58750000D03*
%TO.P,U4,28*%
%TO.N,/D14*%
X134000000Y-76530000D03*
%TO.P,U4,7*%
%TO.N,/A3*%
X118760000Y-56210000D03*
%TO.P,U4,27*%
%TO.N,/D6*%
X134000000Y-79070000D03*
%TO.P,U4,6*%
%TO.N,/A4*%
X118760000Y-53670000D03*
%TO.P,U4,26*%
%TO.N,/D13*%
X134000000Y-81610000D03*
%TO.P,U4,5*%
%TO.N,/A5*%
X118760000Y-51130000D03*
%TO.P,U4,25*%
%TO.N,/D5*%
X134000000Y-84150000D03*
%TO.P,U4,4*%
%TO.N,/A6*%
X118760000Y-48590000D03*
%TO.P,U4,24*%
%TO.N,/D12*%
X134000000Y-86690000D03*
%TO.P,U4,3*%
%TO.N,/A7*%
X118760000Y-46050000D03*
%TO.P,U4,23*%
%TO.N,/D4*%
X134000000Y-89230000D03*
%TO.P,U4,2*%
%TO.N,/A17*%
X118760000Y-43510000D03*
%TO.P,U4,22*%
%TO.N,VCC*%
X134000000Y-91770000D03*
D10*
%TO.P,U4,1*%
%TO.N,/A18*%
X118760000Y-40970000D03*
%TD*%
D11*
%TO.P,U3,42*%
%TO.N,/A19*%
X114935000Y-40970000D03*
%TO.P,U3,21*%
%TO.N,/D11*%
X99695000Y-91770000D03*
%TO.P,U3,41*%
%TO.N,/A8*%
X114935000Y-43510000D03*
%TO.P,U3,20*%
%TO.N,/D3*%
X99695000Y-89230000D03*
%TO.P,U3,40*%
%TO.N,/A9*%
X114935000Y-46050000D03*
%TO.P,U3,19*%
%TO.N,/D10*%
X99695000Y-86690000D03*
%TO.P,U3,39*%
%TO.N,/A10*%
X114935000Y-48590000D03*
%TO.P,U3,18*%
%TO.N,/D2*%
X99695000Y-84150000D03*
%TO.P,U3,38*%
%TO.N,/A11*%
X114935000Y-51130000D03*
%TO.P,U3,17*%
%TO.N,/D9*%
X99695000Y-81610000D03*
%TO.P,U3,37*%
%TO.N,/A12*%
X114935000Y-53670000D03*
%TO.P,U3,16*%
%TO.N,/D1*%
X99695000Y-79070000D03*
%TO.P,U3,36*%
%TO.N,/A13*%
X114935000Y-56210000D03*
%TO.P,U3,15*%
%TO.N,/D8*%
X99695000Y-76530000D03*
%TO.P,U3,35*%
%TO.N,/A14*%
X114935000Y-58750000D03*
%TO.P,U3,14*%
%TO.N,/D0*%
X99695000Y-73990000D03*
%TO.P,U3,34*%
%TO.N,/A15*%
X114935000Y-61290000D03*
%TO.P,U3,13*%
%TO.N,/OE*%
X99695000Y-71450000D03*
%TO.P,U3,33*%
%TO.N,/A16*%
X114935000Y-63830000D03*
%TO.P,U3,12*%
%TO.N,GND*%
X99695000Y-68910000D03*
%TO.P,U3,32*%
%TO.N,/BYTE*%
X114935000Y-66370000D03*
%TO.P,U3,11*%
%TO.N,/~ROM1_E*%
X99695000Y-66370000D03*
%TO.P,U3,31*%
%TO.N,GND*%
X114935000Y-68910000D03*
%TO.P,U3,10*%
%TO.N,/A0*%
X99695000Y-63830000D03*
%TO.P,U3,30*%
%TO.N,/D15*%
X114935000Y-71450000D03*
%TO.P,U3,9*%
%TO.N,/A1*%
X99695000Y-61290000D03*
%TO.P,U3,29*%
%TO.N,/D7*%
X114935000Y-73990000D03*
%TO.P,U3,8*%
%TO.N,/A2*%
X99695000Y-58750000D03*
%TO.P,U3,28*%
%TO.N,/D14*%
X114935000Y-76530000D03*
%TO.P,U3,7*%
%TO.N,/A3*%
X99695000Y-56210000D03*
%TO.P,U3,27*%
%TO.N,/D6*%
X114935000Y-79070000D03*
%TO.P,U3,6*%
%TO.N,/A4*%
X99695000Y-53670000D03*
%TO.P,U3,26*%
%TO.N,/D13*%
X114935000Y-81610000D03*
%TO.P,U3,5*%
%TO.N,/A5*%
X99695000Y-51130000D03*
%TO.P,U3,25*%
%TO.N,/D5*%
X114935000Y-84150000D03*
%TO.P,U3,4*%
%TO.N,/A6*%
X99695000Y-48590000D03*
%TO.P,U3,24*%
%TO.N,/D12*%
X114935000Y-86690000D03*
%TO.P,U3,3*%
%TO.N,/A7*%
X99695000Y-46050000D03*
%TO.P,U3,23*%
%TO.N,/D4*%
X114935000Y-89230000D03*
%TO.P,U3,2*%
%TO.N,/A17*%
X99695000Y-43510000D03*
%TO.P,U3,22*%
%TO.N,VCC*%
X114935000Y-91770000D03*
D10*
%TO.P,U3,1*%
%TO.N,/A18*%
X99695000Y-40970000D03*
%TD*%
D14*
%TO.N,GND*%
X129540000Y-68834000D03*
X121666000Y-69850000D03*
X104648000Y-67564000D03*
X97028000Y-80264000D03*
X97028000Y-54864000D03*
X104394000Y-38862000D03*
X131572000Y-38100000D03*
X115062000Y-29464000D03*
X136525000Y-34925000D03*
X97790000Y-93345000D03*
X135255000Y-93345000D03*
X116840000Y-94615000D03*
%TO.N,/~ROM2_E*%
X125095000Y-33655000D03*
%TO.N,/~ROM1_E*%
X114300000Y-38100000D03*
%TO.N,/~E*%
X121285000Y-38735000D03*
%TO.N,Net-(U1-Pad1)*%
X123825000Y-34290000D03*
X117475000Y-34290000D03*
%TD*%
D15*
%TO.N,/~ROM2_E*%
X118760000Y-66370000D02*
X120955000Y-66370000D01*
X120955000Y-66370000D02*
X122555000Y-64770000D01*
X122555000Y-64770000D02*
X122555000Y-40005000D01*
X122555000Y-40005000D02*
X125095000Y-37465000D01*
X125095000Y-37465000D02*
X125095000Y-33655000D01*
X125095000Y-33655000D02*
X125095000Y-33655000D01*
%TO.N,/~ROM1_E*%
X99695000Y-66370000D02*
X105080000Y-66370000D01*
X106205001Y-65244999D02*
X111285001Y-65244999D01*
X105080000Y-66370000D02*
X106205001Y-65244999D01*
X111285001Y-65244999D02*
X112395000Y-64135000D01*
X112395000Y-64135000D02*
X112395000Y-40005000D01*
X112395000Y-40005000D02*
X114300000Y-38100000D01*
X114300000Y-38100000D02*
X114300000Y-38100000D01*
%TO.N,/~E*%
X109220000Y-66370000D02*
X112065000Y-66370000D01*
X113190001Y-65244999D02*
X120175001Y-65244999D01*
X112065000Y-66370000D02*
X113190001Y-65244999D01*
X120175001Y-65244999D02*
X121285000Y-64135000D01*
X121285000Y-64135000D02*
X121285000Y-38735000D01*
X121285000Y-38735000D02*
X121285000Y-38735000D01*
%TO.N,Net-(U1-Pad1)*%
X123825000Y-34290000D02*
X117475000Y-34290000D01*
X117475000Y-34290000D02*
X117475000Y-34290000D01*
%TD*%
D16*
%TO.N,GND*%
X137135000Y-29483381D02*
X137135001Y-93706618D01*
X135616620Y-95225000D01*
X97428381Y-95225000D01*
X95910000Y-93706620D01*
X95910000Y-71308665D01*
X98260000Y-71308665D01*
X98260000Y-71591335D01*
X98315147Y-71868574D01*
X98423320Y-72129727D01*
X98580363Y-72364759D01*
X98780241Y-72564637D01*
X99012759Y-72720000D01*
X98780241Y-72875363D01*
X98580363Y-73075241D01*
X98423320Y-73310273D01*
X98315147Y-73571426D01*
X98260000Y-73848665D01*
X98260000Y-74131335D01*
X98315147Y-74408574D01*
X98423320Y-74669727D01*
X98580363Y-74904759D01*
X98780241Y-75104637D01*
X99012759Y-75260000D01*
X98780241Y-75415363D01*
X98580363Y-75615241D01*
X98423320Y-75850273D01*
X98315147Y-76111426D01*
X98260000Y-76388665D01*
X98260000Y-76671335D01*
X98315147Y-76948574D01*
X98423320Y-77209727D01*
X98580363Y-77444759D01*
X98780241Y-77644637D01*
X99012759Y-77800000D01*
X98780241Y-77955363D01*
X98580363Y-78155241D01*
X98423320Y-78390273D01*
X98315147Y-78651426D01*
X98260000Y-78928665D01*
X98260000Y-79211335D01*
X98315147Y-79488574D01*
X98423320Y-79749727D01*
X98580363Y-79984759D01*
X98780241Y-80184637D01*
X99012759Y-80340000D01*
X98780241Y-80495363D01*
X98580363Y-80695241D01*
X98423320Y-80930273D01*
X98315147Y-81191426D01*
X98260000Y-81468665D01*
X98260000Y-81751335D01*
X98315147Y-82028574D01*
X98423320Y-82289727D01*
X98580363Y-82524759D01*
X98780241Y-82724637D01*
X99012759Y-82880000D01*
X98780241Y-83035363D01*
X98580363Y-83235241D01*
X98423320Y-83470273D01*
X98315147Y-83731426D01*
X98260000Y-84008665D01*
X98260000Y-84291335D01*
X98315147Y-84568574D01*
X98423320Y-84829727D01*
X98580363Y-85064759D01*
X98780241Y-85264637D01*
X99012759Y-85420000D01*
X98780241Y-85575363D01*
X98580363Y-85775241D01*
X98423320Y-86010273D01*
X98315147Y-86271426D01*
X98260000Y-86548665D01*
X98260000Y-86831335D01*
X98315147Y-87108574D01*
X98423320Y-87369727D01*
X98580363Y-87604759D01*
X98780241Y-87804637D01*
X99012759Y-87960000D01*
X98780241Y-88115363D01*
X98580363Y-88315241D01*
X98423320Y-88550273D01*
X98315147Y-88811426D01*
X98260000Y-89088665D01*
X98260000Y-89371335D01*
X98315147Y-89648574D01*
X98423320Y-89909727D01*
X98580363Y-90144759D01*
X98780241Y-90344637D01*
X99012759Y-90500000D01*
X98780241Y-90655363D01*
X98580363Y-90855241D01*
X98423320Y-91090273D01*
X98315147Y-91351426D01*
X98260000Y-91628665D01*
X98260000Y-91911335D01*
X98315147Y-92188574D01*
X98423320Y-92449727D01*
X98580363Y-92684759D01*
X98780241Y-92884637D01*
X99015273Y-93041680D01*
X99276426Y-93149853D01*
X99553665Y-93205000D01*
X99836335Y-93205000D01*
X100113574Y-93149853D01*
X100374727Y-93041680D01*
X100609759Y-92884637D01*
X100809637Y-92684759D01*
X100966680Y-92449727D01*
X101074853Y-92188574D01*
X101130000Y-91911335D01*
X101130000Y-91628665D01*
X101074853Y-91351426D01*
X100966680Y-91090273D01*
X100809637Y-90855241D01*
X100609759Y-90655363D01*
X100377241Y-90500000D01*
X100609759Y-90344637D01*
X100809637Y-90144759D01*
X100966680Y-89909727D01*
X101074853Y-89648574D01*
X101130000Y-89371335D01*
X101130000Y-89088665D01*
X101074853Y-88811426D01*
X100966680Y-88550273D01*
X100809637Y-88315241D01*
X100609759Y-88115363D01*
X100377241Y-87960000D01*
X100609759Y-87804637D01*
X100809637Y-87604759D01*
X100966680Y-87369727D01*
X101074853Y-87108574D01*
X101130000Y-86831335D01*
X101130000Y-86548665D01*
X101074853Y-86271426D01*
X100966680Y-86010273D01*
X100809637Y-85775241D01*
X100609759Y-85575363D01*
X100377241Y-85420000D01*
X100609759Y-85264637D01*
X100809637Y-85064759D01*
X100966680Y-84829727D01*
X101074853Y-84568574D01*
X101130000Y-84291335D01*
X101130000Y-84008665D01*
X101074853Y-83731426D01*
X100966680Y-83470273D01*
X100809637Y-83235241D01*
X100609759Y-83035363D01*
X100377241Y-82880000D01*
X100609759Y-82724637D01*
X100809637Y-82524759D01*
X100966680Y-82289727D01*
X101074853Y-82028574D01*
X101130000Y-81751335D01*
X101130000Y-81468665D01*
X101074853Y-81191426D01*
X100966680Y-80930273D01*
X100809637Y-80695241D01*
X100609759Y-80495363D01*
X100377241Y-80340000D01*
X100609759Y-80184637D01*
X100809637Y-79984759D01*
X100966680Y-79749727D01*
X101074853Y-79488574D01*
X101130000Y-79211335D01*
X101130000Y-78928665D01*
X101074853Y-78651426D01*
X100966680Y-78390273D01*
X100809637Y-78155241D01*
X100609759Y-77955363D01*
X100377241Y-77800000D01*
X100609759Y-77644637D01*
X100809637Y-77444759D01*
X100966680Y-77209727D01*
X101074853Y-76948574D01*
X101130000Y-76671335D01*
X101130000Y-76388665D01*
X101074853Y-76111426D01*
X100966680Y-75850273D01*
X100809637Y-75615241D01*
X100609759Y-75415363D01*
X100377241Y-75260000D01*
X100609759Y-75104637D01*
X100809637Y-74904759D01*
X100966680Y-74669727D01*
X101074853Y-74408574D01*
X101130000Y-74131335D01*
X101130000Y-73848665D01*
X101074853Y-73571426D01*
X100966680Y-73310273D01*
X100809637Y-73075241D01*
X100609759Y-72875363D01*
X100377241Y-72720000D01*
X100609759Y-72564637D01*
X100809637Y-72364759D01*
X100966680Y-72129727D01*
X101074853Y-71868574D01*
X101130000Y-71591335D01*
X101130000Y-71308665D01*
X107785000Y-71308665D01*
X107785000Y-71591335D01*
X107840147Y-71868574D01*
X107948320Y-72129727D01*
X108105363Y-72364759D01*
X108305241Y-72564637D01*
X108537759Y-72720000D01*
X108305241Y-72875363D01*
X108105363Y-73075241D01*
X107948320Y-73310273D01*
X107840147Y-73571426D01*
X107785000Y-73848665D01*
X107785000Y-74131335D01*
X107840147Y-74408574D01*
X107948320Y-74669727D01*
X108105363Y-74904759D01*
X108305241Y-75104637D01*
X108537759Y-75260000D01*
X108305241Y-75415363D01*
X108105363Y-75615241D01*
X107948320Y-75850273D01*
X107840147Y-76111426D01*
X107785000Y-76388665D01*
X107785000Y-76671335D01*
X107840147Y-76948574D01*
X107948320Y-77209727D01*
X108105363Y-77444759D01*
X108305241Y-77644637D01*
X108537759Y-77800000D01*
X108305241Y-77955363D01*
X108105363Y-78155241D01*
X107948320Y-78390273D01*
X107840147Y-78651426D01*
X107785000Y-78928665D01*
X107785000Y-79211335D01*
X107840147Y-79488574D01*
X107948320Y-79749727D01*
X108105363Y-79984759D01*
X108305241Y-80184637D01*
X108537759Y-80340000D01*
X108305241Y-80495363D01*
X108105363Y-80695241D01*
X107948320Y-80930273D01*
X107840147Y-81191426D01*
X107785000Y-81468665D01*
X107785000Y-81751335D01*
X107840147Y-82028574D01*
X107948320Y-82289727D01*
X108105363Y-82524759D01*
X108305241Y-82724637D01*
X108537759Y-82880000D01*
X108305241Y-83035363D01*
X108105363Y-83235241D01*
X107948320Y-83470273D01*
X107840147Y-83731426D01*
X107785000Y-84008665D01*
X107785000Y-84291335D01*
X107840147Y-84568574D01*
X107948320Y-84829727D01*
X108105363Y-85064759D01*
X108305241Y-85264637D01*
X108537759Y-85420000D01*
X108305241Y-85575363D01*
X108105363Y-85775241D01*
X107948320Y-86010273D01*
X107840147Y-86271426D01*
X107785000Y-86548665D01*
X107785000Y-86831335D01*
X107840147Y-87108574D01*
X107948320Y-87369727D01*
X108105363Y-87604759D01*
X108305241Y-87804637D01*
X108537759Y-87960000D01*
X108305241Y-88115363D01*
X108105363Y-88315241D01*
X107948320Y-88550273D01*
X107840147Y-88811426D01*
X107785000Y-89088665D01*
X107785000Y-89371335D01*
X107840147Y-89648574D01*
X107948320Y-89909727D01*
X108105363Y-90144759D01*
X108305241Y-90344637D01*
X108537759Y-90500000D01*
X108305241Y-90655363D01*
X108105363Y-90855241D01*
X107948320Y-91090273D01*
X107840147Y-91351426D01*
X107785000Y-91628665D01*
X107785000Y-91911335D01*
X107840147Y-92188574D01*
X107948320Y-92449727D01*
X108105363Y-92684759D01*
X108305241Y-92884637D01*
X108540273Y-93041680D01*
X108801426Y-93149853D01*
X109078665Y-93205000D01*
X109361335Y-93205000D01*
X109638574Y-93149853D01*
X109899727Y-93041680D01*
X110134759Y-92884637D01*
X110334637Y-92684759D01*
X110491680Y-92449727D01*
X110599853Y-92188574D01*
X110655000Y-91911335D01*
X110655000Y-91628665D01*
X110599853Y-91351426D01*
X110491680Y-91090273D01*
X110334637Y-90855241D01*
X110134759Y-90655363D01*
X109902241Y-90500000D01*
X110134759Y-90344637D01*
X110334637Y-90144759D01*
X110491680Y-89909727D01*
X110599853Y-89648574D01*
X110655000Y-89371335D01*
X110655000Y-89088665D01*
X110599853Y-88811426D01*
X110491680Y-88550273D01*
X110334637Y-88315241D01*
X110134759Y-88115363D01*
X109902241Y-87960000D01*
X110134759Y-87804637D01*
X110334637Y-87604759D01*
X110491680Y-87369727D01*
X110599853Y-87108574D01*
X110655000Y-86831335D01*
X110655000Y-86548665D01*
X110599853Y-86271426D01*
X110491680Y-86010273D01*
X110334637Y-85775241D01*
X110134759Y-85575363D01*
X109902241Y-85420000D01*
X110134759Y-85264637D01*
X110334637Y-85064759D01*
X110491680Y-84829727D01*
X110599853Y-84568574D01*
X110655000Y-84291335D01*
X110655000Y-84008665D01*
X110599853Y-83731426D01*
X110491680Y-83470273D01*
X110334637Y-83235241D01*
X110134759Y-83035363D01*
X109902241Y-82880000D01*
X110134759Y-82724637D01*
X110334637Y-82524759D01*
X110491680Y-82289727D01*
X110599853Y-82028574D01*
X110655000Y-81751335D01*
X110655000Y-81468665D01*
X110599853Y-81191426D01*
X110491680Y-80930273D01*
X110334637Y-80695241D01*
X110134759Y-80495363D01*
X109902241Y-80340000D01*
X110134759Y-80184637D01*
X110334637Y-79984759D01*
X110491680Y-79749727D01*
X110599853Y-79488574D01*
X110655000Y-79211335D01*
X110655000Y-78928665D01*
X110599853Y-78651426D01*
X110491680Y-78390273D01*
X110334637Y-78155241D01*
X110134759Y-77955363D01*
X109902241Y-77800000D01*
X110134759Y-77644637D01*
X110334637Y-77444759D01*
X110491680Y-77209727D01*
X110599853Y-76948574D01*
X110655000Y-76671335D01*
X110655000Y-76388665D01*
X110599853Y-76111426D01*
X110491680Y-75850273D01*
X110334637Y-75615241D01*
X110134759Y-75415363D01*
X109902241Y-75260000D01*
X110134759Y-75104637D01*
X110334637Y-74904759D01*
X110491680Y-74669727D01*
X110599853Y-74408574D01*
X110655000Y-74131335D01*
X110655000Y-73848665D01*
X110599853Y-73571426D01*
X110491680Y-73310273D01*
X110334637Y-73075241D01*
X110134759Y-72875363D01*
X109902241Y-72720000D01*
X110134759Y-72564637D01*
X110334637Y-72364759D01*
X110491680Y-72129727D01*
X110599853Y-71868574D01*
X110655000Y-71591335D01*
X110655000Y-71308665D01*
X113500000Y-71308665D01*
X113500000Y-71591335D01*
X113555147Y-71868574D01*
X113663320Y-72129727D01*
X113820363Y-72364759D01*
X114020241Y-72564637D01*
X114252759Y-72720000D01*
X114020241Y-72875363D01*
X113820363Y-73075241D01*
X113663320Y-73310273D01*
X113555147Y-73571426D01*
X113500000Y-73848665D01*
X113500000Y-74131335D01*
X113555147Y-74408574D01*
X113663320Y-74669727D01*
X113820363Y-74904759D01*
X114020241Y-75104637D01*
X114252759Y-75260000D01*
X114020241Y-75415363D01*
X113820363Y-75615241D01*
X113663320Y-75850273D01*
X113555147Y-76111426D01*
X113500000Y-76388665D01*
X113500000Y-76671335D01*
X113555147Y-76948574D01*
X113663320Y-77209727D01*
X113820363Y-77444759D01*
X114020241Y-77644637D01*
X114252759Y-77800000D01*
X114020241Y-77955363D01*
X113820363Y-78155241D01*
X113663320Y-78390273D01*
X113555147Y-78651426D01*
X113500000Y-78928665D01*
X113500000Y-79211335D01*
X113555147Y-79488574D01*
X113663320Y-79749727D01*
X113820363Y-79984759D01*
X114020241Y-80184637D01*
X114252759Y-80340000D01*
X114020241Y-80495363D01*
X113820363Y-80695241D01*
X113663320Y-80930273D01*
X113555147Y-81191426D01*
X113500000Y-81468665D01*
X113500000Y-81751335D01*
X113555147Y-82028574D01*
X113663320Y-82289727D01*
X113820363Y-82524759D01*
X114020241Y-82724637D01*
X114252759Y-82880000D01*
X114020241Y-83035363D01*
X113820363Y-83235241D01*
X113663320Y-83470273D01*
X113555147Y-83731426D01*
X113500000Y-84008665D01*
X113500000Y-84291335D01*
X113555147Y-84568574D01*
X113663320Y-84829727D01*
X113820363Y-85064759D01*
X114020241Y-85264637D01*
X114252759Y-85420000D01*
X114020241Y-85575363D01*
X113820363Y-85775241D01*
X113663320Y-86010273D01*
X113555147Y-86271426D01*
X113500000Y-86548665D01*
X113500000Y-86831335D01*
X113555147Y-87108574D01*
X113663320Y-87369727D01*
X113820363Y-87604759D01*
X114020241Y-87804637D01*
X114252759Y-87960000D01*
X114020241Y-88115363D01*
X113820363Y-88315241D01*
X113663320Y-88550273D01*
X113555147Y-88811426D01*
X113500000Y-89088665D01*
X113500000Y-89371335D01*
X113555147Y-89648574D01*
X113663320Y-89909727D01*
X113820363Y-90144759D01*
X114020241Y-90344637D01*
X114252759Y-90500000D01*
X114020241Y-90655363D01*
X113820363Y-90855241D01*
X113663320Y-91090273D01*
X113555147Y-91351426D01*
X113500000Y-91628665D01*
X113500000Y-91911335D01*
X113555147Y-92188574D01*
X113663320Y-92449727D01*
X113820363Y-92684759D01*
X114020241Y-92884637D01*
X114255273Y-93041680D01*
X114516426Y-93149853D01*
X114793665Y-93205000D01*
X115076335Y-93205000D01*
X115353574Y-93149853D01*
X115614727Y-93041680D01*
X115849759Y-92884637D01*
X116049637Y-92684759D01*
X116206680Y-92449727D01*
X116314853Y-92188574D01*
X116370000Y-91911335D01*
X116370000Y-91628665D01*
X116314853Y-91351426D01*
X116206680Y-91090273D01*
X116049637Y-90855241D01*
X115849759Y-90655363D01*
X115617241Y-90500000D01*
X115849759Y-90344637D01*
X116049637Y-90144759D01*
X116206680Y-89909727D01*
X116314853Y-89648574D01*
X116370000Y-89371335D01*
X116370000Y-89088665D01*
X116314853Y-88811426D01*
X116206680Y-88550273D01*
X116049637Y-88315241D01*
X115849759Y-88115363D01*
X115617241Y-87960000D01*
X115849759Y-87804637D01*
X116049637Y-87604759D01*
X116206680Y-87369727D01*
X116314853Y-87108574D01*
X116370000Y-86831335D01*
X116370000Y-86548665D01*
X116314853Y-86271426D01*
X116206680Y-86010273D01*
X116049637Y-85775241D01*
X115849759Y-85575363D01*
X115617241Y-85420000D01*
X115849759Y-85264637D01*
X116049637Y-85064759D01*
X116206680Y-84829727D01*
X116314853Y-84568574D01*
X116370000Y-84291335D01*
X116370000Y-84008665D01*
X116314853Y-83731426D01*
X116206680Y-83470273D01*
X116049637Y-83235241D01*
X115849759Y-83035363D01*
X115617241Y-82880000D01*
X115849759Y-82724637D01*
X116049637Y-82524759D01*
X116206680Y-82289727D01*
X116314853Y-82028574D01*
X116370000Y-81751335D01*
X116370000Y-81468665D01*
X116314853Y-81191426D01*
X116206680Y-80930273D01*
X116049637Y-80695241D01*
X115849759Y-80495363D01*
X115617241Y-80340000D01*
X115849759Y-80184637D01*
X116049637Y-79984759D01*
X116206680Y-79749727D01*
X116314853Y-79488574D01*
X116370000Y-79211335D01*
X116370000Y-78928665D01*
X116314853Y-78651426D01*
X116206680Y-78390273D01*
X116049637Y-78155241D01*
X115849759Y-77955363D01*
X115617241Y-77800000D01*
X115849759Y-77644637D01*
X116049637Y-77444759D01*
X116206680Y-77209727D01*
X116314853Y-76948574D01*
X116370000Y-76671335D01*
X116370000Y-76388665D01*
X116314853Y-76111426D01*
X116206680Y-75850273D01*
X116049637Y-75615241D01*
X115849759Y-75415363D01*
X115617241Y-75260000D01*
X115849759Y-75104637D01*
X116049637Y-74904759D01*
X116206680Y-74669727D01*
X116314853Y-74408574D01*
X116370000Y-74131335D01*
X116370000Y-73848665D01*
X116314853Y-73571426D01*
X116206680Y-73310273D01*
X116049637Y-73075241D01*
X115849759Y-72875363D01*
X115617241Y-72720000D01*
X115849759Y-72564637D01*
X116049637Y-72364759D01*
X116206680Y-72129727D01*
X116314853Y-71868574D01*
X116370000Y-71591335D01*
X116370000Y-71308665D01*
X117325000Y-71308665D01*
X117325000Y-71591335D01*
X117380147Y-71868574D01*
X117488320Y-72129727D01*
X117645363Y-72364759D01*
X117845241Y-72564637D01*
X118077759Y-72720000D01*
X117845241Y-72875363D01*
X117645363Y-73075241D01*
X117488320Y-73310273D01*
X117380147Y-73571426D01*
X117325000Y-73848665D01*
X117325000Y-74131335D01*
X117380147Y-74408574D01*
X117488320Y-74669727D01*
X117645363Y-74904759D01*
X117845241Y-75104637D01*
X118077759Y-75260000D01*
X117845241Y-75415363D01*
X117645363Y-75615241D01*
X117488320Y-75850273D01*
X117380147Y-76111426D01*
X117325000Y-76388665D01*
X117325000Y-76671335D01*
X117380147Y-76948574D01*
X117488320Y-77209727D01*
X117645363Y-77444759D01*
X117845241Y-77644637D01*
X118077759Y-77800000D01*
X117845241Y-77955363D01*
X117645363Y-78155241D01*
X117488320Y-78390273D01*
X117380147Y-78651426D01*
X117325000Y-78928665D01*
X117325000Y-79211335D01*
X117380147Y-79488574D01*
X117488320Y-79749727D01*
X117645363Y-79984759D01*
X117845241Y-80184637D01*
X118077759Y-80340000D01*
X117845241Y-80495363D01*
X117645363Y-80695241D01*
X117488320Y-80930273D01*
X117380147Y-81191426D01*
X117325000Y-81468665D01*
X117325000Y-81751335D01*
X117380147Y-82028574D01*
X117488320Y-82289727D01*
X117645363Y-82524759D01*
X117845241Y-82724637D01*
X118077759Y-82880000D01*
X117845241Y-83035363D01*
X117645363Y-83235241D01*
X117488320Y-83470273D01*
X117380147Y-83731426D01*
X117325000Y-84008665D01*
X117325000Y-84291335D01*
X117380147Y-84568574D01*
X117488320Y-84829727D01*
X117645363Y-85064759D01*
X117845241Y-85264637D01*
X118077759Y-85420000D01*
X117845241Y-85575363D01*
X117645363Y-85775241D01*
X117488320Y-86010273D01*
X117380147Y-86271426D01*
X117325000Y-86548665D01*
X117325000Y-86831335D01*
X117380147Y-87108574D01*
X117488320Y-87369727D01*
X117645363Y-87604759D01*
X117845241Y-87804637D01*
X118077759Y-87960000D01*
X117845241Y-88115363D01*
X117645363Y-88315241D01*
X117488320Y-88550273D01*
X117380147Y-88811426D01*
X117325000Y-89088665D01*
X117325000Y-89371335D01*
X117380147Y-89648574D01*
X117488320Y-89909727D01*
X117645363Y-90144759D01*
X117845241Y-90344637D01*
X118077759Y-90500000D01*
X117845241Y-90655363D01*
X117645363Y-90855241D01*
X117488320Y-91090273D01*
X117380147Y-91351426D01*
X117325000Y-91628665D01*
X117325000Y-91911335D01*
X117380147Y-92188574D01*
X117488320Y-92449727D01*
X117645363Y-92684759D01*
X117845241Y-92884637D01*
X118080273Y-93041680D01*
X118341426Y-93149853D01*
X118618665Y-93205000D01*
X118901335Y-93205000D01*
X119178574Y-93149853D01*
X119439727Y-93041680D01*
X119674759Y-92884637D01*
X119874637Y-92684759D01*
X120031680Y-92449727D01*
X120139853Y-92188574D01*
X120195000Y-91911335D01*
X120195000Y-91628665D01*
X120139853Y-91351426D01*
X120031680Y-91090273D01*
X119874637Y-90855241D01*
X119674759Y-90655363D01*
X119442241Y-90500000D01*
X119674759Y-90344637D01*
X119874637Y-90144759D01*
X120031680Y-89909727D01*
X120139853Y-89648574D01*
X120195000Y-89371335D01*
X120195000Y-89088665D01*
X120139853Y-88811426D01*
X120031680Y-88550273D01*
X119874637Y-88315241D01*
X119674759Y-88115363D01*
X119442241Y-87960000D01*
X119674759Y-87804637D01*
X119874637Y-87604759D01*
X120031680Y-87369727D01*
X120139853Y-87108574D01*
X120195000Y-86831335D01*
X120195000Y-86548665D01*
X120139853Y-86271426D01*
X120031680Y-86010273D01*
X119874637Y-85775241D01*
X119674759Y-85575363D01*
X119442241Y-85420000D01*
X119674759Y-85264637D01*
X119874637Y-85064759D01*
X120031680Y-84829727D01*
X120139853Y-84568574D01*
X120195000Y-84291335D01*
X120195000Y-84008665D01*
X120139853Y-83731426D01*
X120031680Y-83470273D01*
X119874637Y-83235241D01*
X119674759Y-83035363D01*
X119442241Y-82880000D01*
X119674759Y-82724637D01*
X119874637Y-82524759D01*
X120031680Y-82289727D01*
X120139853Y-82028574D01*
X120195000Y-81751335D01*
X120195000Y-81468665D01*
X120139853Y-81191426D01*
X120031680Y-80930273D01*
X119874637Y-80695241D01*
X119674759Y-80495363D01*
X119442241Y-80340000D01*
X119674759Y-80184637D01*
X119874637Y-79984759D01*
X120031680Y-79749727D01*
X120139853Y-79488574D01*
X120195000Y-79211335D01*
X120195000Y-78928665D01*
X120139853Y-78651426D01*
X120031680Y-78390273D01*
X119874637Y-78155241D01*
X119674759Y-77955363D01*
X119442241Y-77800000D01*
X119674759Y-77644637D01*
X119874637Y-77444759D01*
X120031680Y-77209727D01*
X120139853Y-76948574D01*
X120195000Y-76671335D01*
X120195000Y-76388665D01*
X120139853Y-76111426D01*
X120031680Y-75850273D01*
X119874637Y-75615241D01*
X119674759Y-75415363D01*
X119442241Y-75260000D01*
X119674759Y-75104637D01*
X119874637Y-74904759D01*
X120031680Y-74669727D01*
X120139853Y-74408574D01*
X120195000Y-74131335D01*
X120195000Y-73848665D01*
X120139853Y-73571426D01*
X120031680Y-73310273D01*
X119874637Y-73075241D01*
X119674759Y-72875363D01*
X119442241Y-72720000D01*
X119674759Y-72564637D01*
X119874637Y-72364759D01*
X120031680Y-72129727D01*
X120139853Y-71868574D01*
X120195000Y-71591335D01*
X120195000Y-71308665D01*
X123025000Y-71308665D01*
X123025000Y-71591335D01*
X123080147Y-71868574D01*
X123188320Y-72129727D01*
X123345363Y-72364759D01*
X123545241Y-72564637D01*
X123777759Y-72720000D01*
X123545241Y-72875363D01*
X123345363Y-73075241D01*
X123188320Y-73310273D01*
X123080147Y-73571426D01*
X123025000Y-73848665D01*
X123025000Y-74131335D01*
X123080147Y-74408574D01*
X123188320Y-74669727D01*
X123345363Y-74904759D01*
X123545241Y-75104637D01*
X123777759Y-75260000D01*
X123545241Y-75415363D01*
X123345363Y-75615241D01*
X123188320Y-75850273D01*
X123080147Y-76111426D01*
X123025000Y-76388665D01*
X123025000Y-76671335D01*
X123080147Y-76948574D01*
X123188320Y-77209727D01*
X123345363Y-77444759D01*
X123545241Y-77644637D01*
X123777759Y-77800000D01*
X123545241Y-77955363D01*
X123345363Y-78155241D01*
X123188320Y-78390273D01*
X123080147Y-78651426D01*
X123025000Y-78928665D01*
X123025000Y-79211335D01*
X123080147Y-79488574D01*
X123188320Y-79749727D01*
X123345363Y-79984759D01*
X123545241Y-80184637D01*
X123777759Y-80340000D01*
X123545241Y-80495363D01*
X123345363Y-80695241D01*
X123188320Y-80930273D01*
X123080147Y-81191426D01*
X123025000Y-81468665D01*
X123025000Y-81751335D01*
X123080147Y-82028574D01*
X123188320Y-82289727D01*
X123345363Y-82524759D01*
X123545241Y-82724637D01*
X123777759Y-82880000D01*
X123545241Y-83035363D01*
X123345363Y-83235241D01*
X123188320Y-83470273D01*
X123080147Y-83731426D01*
X123025000Y-84008665D01*
X123025000Y-84291335D01*
X123080147Y-84568574D01*
X123188320Y-84829727D01*
X123345363Y-85064759D01*
X123545241Y-85264637D01*
X123777759Y-85420000D01*
X123545241Y-85575363D01*
X123345363Y-85775241D01*
X123188320Y-86010273D01*
X123080147Y-86271426D01*
X123025000Y-86548665D01*
X123025000Y-86831335D01*
X123080147Y-87108574D01*
X123188320Y-87369727D01*
X123345363Y-87604759D01*
X123545241Y-87804637D01*
X123777759Y-87960000D01*
X123545241Y-88115363D01*
X123345363Y-88315241D01*
X123188320Y-88550273D01*
X123080147Y-88811426D01*
X123025000Y-89088665D01*
X123025000Y-89371335D01*
X123080147Y-89648574D01*
X123188320Y-89909727D01*
X123345363Y-90144759D01*
X123545241Y-90344637D01*
X123777759Y-90500000D01*
X123545241Y-90655363D01*
X123345363Y-90855241D01*
X123188320Y-91090273D01*
X123080147Y-91351426D01*
X123025000Y-91628665D01*
X123025000Y-91911335D01*
X123080147Y-92188574D01*
X123188320Y-92449727D01*
X123345363Y-92684759D01*
X123545241Y-92884637D01*
X123780273Y-93041680D01*
X124041426Y-93149853D01*
X124318665Y-93205000D01*
X124601335Y-93205000D01*
X124878574Y-93149853D01*
X125139727Y-93041680D01*
X125374759Y-92884637D01*
X125574637Y-92684759D01*
X125731680Y-92449727D01*
X125839853Y-92188574D01*
X125895000Y-91911335D01*
X125895000Y-91628665D01*
X125839853Y-91351426D01*
X125731680Y-91090273D01*
X125574637Y-90855241D01*
X125374759Y-90655363D01*
X125142241Y-90500000D01*
X125374759Y-90344637D01*
X125574637Y-90144759D01*
X125731680Y-89909727D01*
X125839853Y-89648574D01*
X125895000Y-89371335D01*
X125895000Y-89088665D01*
X125839853Y-88811426D01*
X125731680Y-88550273D01*
X125574637Y-88315241D01*
X125374759Y-88115363D01*
X125142241Y-87960000D01*
X125374759Y-87804637D01*
X125574637Y-87604759D01*
X125731680Y-87369727D01*
X125839853Y-87108574D01*
X125895000Y-86831335D01*
X125895000Y-86548665D01*
X125839853Y-86271426D01*
X125731680Y-86010273D01*
X125574637Y-85775241D01*
X125374759Y-85575363D01*
X125142241Y-85420000D01*
X125374759Y-85264637D01*
X125574637Y-85064759D01*
X125731680Y-84829727D01*
X125839853Y-84568574D01*
X125895000Y-84291335D01*
X125895000Y-84008665D01*
X125839853Y-83731426D01*
X125731680Y-83470273D01*
X125574637Y-83235241D01*
X125374759Y-83035363D01*
X125142241Y-82880000D01*
X125374759Y-82724637D01*
X125574637Y-82524759D01*
X125731680Y-82289727D01*
X125839853Y-82028574D01*
X125895000Y-81751335D01*
X125895000Y-81468665D01*
X125839853Y-81191426D01*
X125731680Y-80930273D01*
X125574637Y-80695241D01*
X125374759Y-80495363D01*
X125142241Y-80340000D01*
X125374759Y-80184637D01*
X125574637Y-79984759D01*
X125731680Y-79749727D01*
X125839853Y-79488574D01*
X125895000Y-79211335D01*
X125895000Y-78928665D01*
X125839853Y-78651426D01*
X125731680Y-78390273D01*
X125574637Y-78155241D01*
X125374759Y-77955363D01*
X125142241Y-77800000D01*
X125374759Y-77644637D01*
X125574637Y-77444759D01*
X125731680Y-77209727D01*
X125839853Y-76948574D01*
X125895000Y-76671335D01*
X125895000Y-76388665D01*
X125839853Y-76111426D01*
X125731680Y-75850273D01*
X125574637Y-75615241D01*
X125374759Y-75415363D01*
X125142241Y-75260000D01*
X125374759Y-75104637D01*
X125574637Y-74904759D01*
X125731680Y-74669727D01*
X125839853Y-74408574D01*
X125895000Y-74131335D01*
X125895000Y-73848665D01*
X125839853Y-73571426D01*
X125731680Y-73310273D01*
X125574637Y-73075241D01*
X125374759Y-72875363D01*
X125142241Y-72720000D01*
X125374759Y-72564637D01*
X125574637Y-72364759D01*
X125731680Y-72129727D01*
X125839853Y-71868574D01*
X125895000Y-71591335D01*
X125895000Y-71308665D01*
X132565000Y-71308665D01*
X132565000Y-71591335D01*
X132620147Y-71868574D01*
X132728320Y-72129727D01*
X132885363Y-72364759D01*
X133085241Y-72564637D01*
X133317759Y-72720000D01*
X133085241Y-72875363D01*
X132885363Y-73075241D01*
X132728320Y-73310273D01*
X132620147Y-73571426D01*
X132565000Y-73848665D01*
X132565000Y-74131335D01*
X132620147Y-74408574D01*
X132728320Y-74669727D01*
X132885363Y-74904759D01*
X133085241Y-75104637D01*
X133317759Y-75260000D01*
X133085241Y-75415363D01*
X132885363Y-75615241D01*
X132728320Y-75850273D01*
X132620147Y-76111426D01*
X132565000Y-76388665D01*
X132565000Y-76671335D01*
X132620147Y-76948574D01*
X132728320Y-77209727D01*
X132885363Y-77444759D01*
X133085241Y-77644637D01*
X133317759Y-77800000D01*
X133085241Y-77955363D01*
X132885363Y-78155241D01*
X132728320Y-78390273D01*
X132620147Y-78651426D01*
X132565000Y-78928665D01*
X132565000Y-79211335D01*
X132620147Y-79488574D01*
X132728320Y-79749727D01*
X132885363Y-79984759D01*
X133085241Y-80184637D01*
X133317759Y-80340000D01*
X133085241Y-80495363D01*
X132885363Y-80695241D01*
X132728320Y-80930273D01*
X132620147Y-81191426D01*
X132565000Y-81468665D01*
X132565000Y-81751335D01*
X132620147Y-82028574D01*
X132728320Y-82289727D01*
X132885363Y-82524759D01*
X133085241Y-82724637D01*
X133317759Y-82880000D01*
X133085241Y-83035363D01*
X132885363Y-83235241D01*
X132728320Y-83470273D01*
X132620147Y-83731426D01*
X132565000Y-84008665D01*
X132565000Y-84291335D01*
X132620147Y-84568574D01*
X132728320Y-84829727D01*
X132885363Y-85064759D01*
X133085241Y-85264637D01*
X133317759Y-85420000D01*
X133085241Y-85575363D01*
X132885363Y-85775241D01*
X132728320Y-86010273D01*
X132620147Y-86271426D01*
X132565000Y-86548665D01*
X132565000Y-86831335D01*
X132620147Y-87108574D01*
X132728320Y-87369727D01*
X132885363Y-87604759D01*
X133085241Y-87804637D01*
X133317759Y-87960000D01*
X133085241Y-88115363D01*
X132885363Y-88315241D01*
X132728320Y-88550273D01*
X132620147Y-88811426D01*
X132565000Y-89088665D01*
X132565000Y-89371335D01*
X132620147Y-89648574D01*
X132728320Y-89909727D01*
X132885363Y-90144759D01*
X133085241Y-90344637D01*
X133317759Y-90500000D01*
X133085241Y-90655363D01*
X132885363Y-90855241D01*
X132728320Y-91090273D01*
X132620147Y-91351426D01*
X132565000Y-91628665D01*
X132565000Y-91911335D01*
X132620147Y-92188574D01*
X132728320Y-92449727D01*
X132885363Y-92684759D01*
X133085241Y-92884637D01*
X133320273Y-93041680D01*
X133581426Y-93149853D01*
X133858665Y-93205000D01*
X134141335Y-93205000D01*
X134418574Y-93149853D01*
X134679727Y-93041680D01*
X134914759Y-92884637D01*
X135114637Y-92684759D01*
X135271680Y-92449727D01*
X135379853Y-92188574D01*
X135435000Y-91911335D01*
X135435000Y-91628665D01*
X135379853Y-91351426D01*
X135271680Y-91090273D01*
X135114637Y-90855241D01*
X134914759Y-90655363D01*
X134682241Y-90500000D01*
X134914759Y-90344637D01*
X135114637Y-90144759D01*
X135271680Y-89909727D01*
X135379853Y-89648574D01*
X135435000Y-89371335D01*
X135435000Y-89088665D01*
X135379853Y-88811426D01*
X135271680Y-88550273D01*
X135114637Y-88315241D01*
X134914759Y-88115363D01*
X134682241Y-87960000D01*
X134914759Y-87804637D01*
X135114637Y-87604759D01*
X135271680Y-87369727D01*
X135379853Y-87108574D01*
X135435000Y-86831335D01*
X135435000Y-86548665D01*
X135379853Y-86271426D01*
X135271680Y-86010273D01*
X135114637Y-85775241D01*
X134914759Y-85575363D01*
X134682241Y-85420000D01*
X134914759Y-85264637D01*
X135114637Y-85064759D01*
X135271680Y-84829727D01*
X135379853Y-84568574D01*
X135435000Y-84291335D01*
X135435000Y-84008665D01*
X135379853Y-83731426D01*
X135271680Y-83470273D01*
X135114637Y-83235241D01*
X134914759Y-83035363D01*
X134682241Y-82880000D01*
X134914759Y-82724637D01*
X135114637Y-82524759D01*
X135271680Y-82289727D01*
X135379853Y-82028574D01*
X135435000Y-81751335D01*
X135435000Y-81468665D01*
X135379853Y-81191426D01*
X135271680Y-80930273D01*
X135114637Y-80695241D01*
X134914759Y-80495363D01*
X134682241Y-80340000D01*
X134914759Y-80184637D01*
X135114637Y-79984759D01*
X135271680Y-79749727D01*
X135379853Y-79488574D01*
X135435000Y-79211335D01*
X135435000Y-78928665D01*
X135379853Y-78651426D01*
X135271680Y-78390273D01*
X135114637Y-78155241D01*
X134914759Y-77955363D01*
X134682241Y-77800000D01*
X134914759Y-77644637D01*
X135114637Y-77444759D01*
X135271680Y-77209727D01*
X135379853Y-76948574D01*
X135435000Y-76671335D01*
X135435000Y-76388665D01*
X135379853Y-76111426D01*
X135271680Y-75850273D01*
X135114637Y-75615241D01*
X134914759Y-75415363D01*
X134682241Y-75260000D01*
X134914759Y-75104637D01*
X135114637Y-74904759D01*
X135271680Y-74669727D01*
X135379853Y-74408574D01*
X135435000Y-74131335D01*
X135435000Y-73848665D01*
X135379853Y-73571426D01*
X135271680Y-73310273D01*
X135114637Y-73075241D01*
X134914759Y-72875363D01*
X134682241Y-72720000D01*
X134914759Y-72564637D01*
X135114637Y-72364759D01*
X135271680Y-72129727D01*
X135379853Y-71868574D01*
X135435000Y-71591335D01*
X135435000Y-71308665D01*
X135379853Y-71031426D01*
X135271680Y-70770273D01*
X135114637Y-70535241D01*
X134914759Y-70335363D01*
X134679727Y-70178320D01*
X134669135Y-70173933D01*
X134855131Y-70062385D01*
X135063519Y-69873414D01*
X135231037Y-69647420D01*
X135351246Y-69393087D01*
X135391904Y-69259039D01*
X135269915Y-69037000D01*
X134127000Y-69037000D01*
X134127000Y-69057000D01*
X133873000Y-69057000D01*
X133873000Y-69037000D01*
X132730085Y-69037000D01*
X132608096Y-69259039D01*
X132648754Y-69393087D01*
X132768963Y-69647420D01*
X132936481Y-69873414D01*
X133144869Y-70062385D01*
X133330865Y-70173933D01*
X133320273Y-70178320D01*
X133085241Y-70335363D01*
X132885363Y-70535241D01*
X132728320Y-70770273D01*
X132620147Y-71031426D01*
X132565000Y-71308665D01*
X125895000Y-71308665D01*
X125839853Y-71031426D01*
X125731680Y-70770273D01*
X125574637Y-70535241D01*
X125374759Y-70335363D01*
X125139727Y-70178320D01*
X125129135Y-70173933D01*
X125315131Y-70062385D01*
X125523519Y-69873414D01*
X125691037Y-69647420D01*
X125811246Y-69393087D01*
X125851904Y-69259039D01*
X125729915Y-69037000D01*
X124587000Y-69037000D01*
X124587000Y-69057000D01*
X124333000Y-69057000D01*
X124333000Y-69037000D01*
X123190085Y-69037000D01*
X123068096Y-69259039D01*
X123108754Y-69393087D01*
X123228963Y-69647420D01*
X123396481Y-69873414D01*
X123604869Y-70062385D01*
X123790865Y-70173933D01*
X123780273Y-70178320D01*
X123545241Y-70335363D01*
X123345363Y-70535241D01*
X123188320Y-70770273D01*
X123080147Y-71031426D01*
X123025000Y-71308665D01*
X120195000Y-71308665D01*
X120139853Y-71031426D01*
X120031680Y-70770273D01*
X119874637Y-70535241D01*
X119674759Y-70335363D01*
X119439727Y-70178320D01*
X119429135Y-70173933D01*
X119615131Y-70062385D01*
X119823519Y-69873414D01*
X119991037Y-69647420D01*
X120111246Y-69393087D01*
X120151904Y-69259039D01*
X120029915Y-69037000D01*
X118887000Y-69037000D01*
X118887000Y-69057000D01*
X118633000Y-69057000D01*
X118633000Y-69037000D01*
X117490085Y-69037000D01*
X117368096Y-69259039D01*
X117408754Y-69393087D01*
X117528963Y-69647420D01*
X117696481Y-69873414D01*
X117904869Y-70062385D01*
X118090865Y-70173933D01*
X118080273Y-70178320D01*
X117845241Y-70335363D01*
X117645363Y-70535241D01*
X117488320Y-70770273D01*
X117380147Y-71031426D01*
X117325000Y-71308665D01*
X116370000Y-71308665D01*
X116314853Y-71031426D01*
X116206680Y-70770273D01*
X116049637Y-70535241D01*
X115849759Y-70335363D01*
X115614727Y-70178320D01*
X115604135Y-70173933D01*
X115790131Y-70062385D01*
X115998519Y-69873414D01*
X116166037Y-69647420D01*
X116286246Y-69393087D01*
X116326904Y-69259039D01*
X116204915Y-69037000D01*
X115062000Y-69037000D01*
X115062000Y-69057000D01*
X114808000Y-69057000D01*
X114808000Y-69037000D01*
X113665085Y-69037000D01*
X113543096Y-69259039D01*
X113583754Y-69393087D01*
X113703963Y-69647420D01*
X113871481Y-69873414D01*
X114079869Y-70062385D01*
X114265865Y-70173933D01*
X114255273Y-70178320D01*
X114020241Y-70335363D01*
X113820363Y-70535241D01*
X113663320Y-70770273D01*
X113555147Y-71031426D01*
X113500000Y-71308665D01*
X110655000Y-71308665D01*
X110599853Y-71031426D01*
X110491680Y-70770273D01*
X110334637Y-70535241D01*
X110134759Y-70335363D01*
X109899727Y-70178320D01*
X109889135Y-70173933D01*
X110075131Y-70062385D01*
X110283519Y-69873414D01*
X110451037Y-69647420D01*
X110571246Y-69393087D01*
X110611904Y-69259039D01*
X110489915Y-69037000D01*
X109347000Y-69037000D01*
X109347000Y-69057000D01*
X109093000Y-69057000D01*
X109093000Y-69037000D01*
X107950085Y-69037000D01*
X107828096Y-69259039D01*
X107868754Y-69393087D01*
X107988963Y-69647420D01*
X108156481Y-69873414D01*
X108364869Y-70062385D01*
X108550865Y-70173933D01*
X108540273Y-70178320D01*
X108305241Y-70335363D01*
X108105363Y-70535241D01*
X107948320Y-70770273D01*
X107840147Y-71031426D01*
X107785000Y-71308665D01*
X101130000Y-71308665D01*
X101074853Y-71031426D01*
X100966680Y-70770273D01*
X100809637Y-70535241D01*
X100609759Y-70335363D01*
X100374727Y-70178320D01*
X100364135Y-70173933D01*
X100550131Y-70062385D01*
X100758519Y-69873414D01*
X100926037Y-69647420D01*
X101046246Y-69393087D01*
X101086904Y-69259039D01*
X100964915Y-69037000D01*
X99822000Y-69037000D01*
X99822000Y-69057000D01*
X99568000Y-69057000D01*
X99568000Y-69037000D01*
X98425085Y-69037000D01*
X98303096Y-69259039D01*
X98343754Y-69393087D01*
X98463963Y-69647420D01*
X98631481Y-69873414D01*
X98839869Y-70062385D01*
X99025865Y-70173933D01*
X99015273Y-70178320D01*
X98780241Y-70335363D01*
X98580363Y-70535241D01*
X98423320Y-70770273D01*
X98315147Y-71031426D01*
X98260000Y-71308665D01*
X95910000Y-71308665D01*
X95910000Y-40170000D01*
X98256928Y-40170000D01*
X98256928Y-41770000D01*
X98269188Y-41894482D01*
X98305498Y-42014180D01*
X98364463Y-42124494D01*
X98443815Y-42221185D01*
X98540506Y-42300537D01*
X98650820Y-42359502D01*
X98770518Y-42395812D01*
X98778961Y-42396643D01*
X98580363Y-42595241D01*
X98423320Y-42830273D01*
X98315147Y-43091426D01*
X98260000Y-43368665D01*
X98260000Y-43651335D01*
X98315147Y-43928574D01*
X98423320Y-44189727D01*
X98580363Y-44424759D01*
X98780241Y-44624637D01*
X99012759Y-44780000D01*
X98780241Y-44935363D01*
X98580363Y-45135241D01*
X98423320Y-45370273D01*
X98315147Y-45631426D01*
X98260000Y-45908665D01*
X98260000Y-46191335D01*
X98315147Y-46468574D01*
X98423320Y-46729727D01*
X98580363Y-46964759D01*
X98780241Y-47164637D01*
X99012759Y-47320000D01*
X98780241Y-47475363D01*
X98580363Y-47675241D01*
X98423320Y-47910273D01*
X98315147Y-48171426D01*
X98260000Y-48448665D01*
X98260000Y-48731335D01*
X98315147Y-49008574D01*
X98423320Y-49269727D01*
X98580363Y-49504759D01*
X98780241Y-49704637D01*
X99012759Y-49860000D01*
X98780241Y-50015363D01*
X98580363Y-50215241D01*
X98423320Y-50450273D01*
X98315147Y-50711426D01*
X98260000Y-50988665D01*
X98260000Y-51271335D01*
X98315147Y-51548574D01*
X98423320Y-51809727D01*
X98580363Y-52044759D01*
X98780241Y-52244637D01*
X99012759Y-52400000D01*
X98780241Y-52555363D01*
X98580363Y-52755241D01*
X98423320Y-52990273D01*
X98315147Y-53251426D01*
X98260000Y-53528665D01*
X98260000Y-53811335D01*
X98315147Y-54088574D01*
X98423320Y-54349727D01*
X98580363Y-54584759D01*
X98780241Y-54784637D01*
X99012759Y-54940000D01*
X98780241Y-55095363D01*
X98580363Y-55295241D01*
X98423320Y-55530273D01*
X98315147Y-55791426D01*
X98260000Y-56068665D01*
X98260000Y-56351335D01*
X98315147Y-56628574D01*
X98423320Y-56889727D01*
X98580363Y-57124759D01*
X98780241Y-57324637D01*
X99012759Y-57480000D01*
X98780241Y-57635363D01*
X98580363Y-57835241D01*
X98423320Y-58070273D01*
X98315147Y-58331426D01*
X98260000Y-58608665D01*
X98260000Y-58891335D01*
X98315147Y-59168574D01*
X98423320Y-59429727D01*
X98580363Y-59664759D01*
X98780241Y-59864637D01*
X99012759Y-60020000D01*
X98780241Y-60175363D01*
X98580363Y-60375241D01*
X98423320Y-60610273D01*
X98315147Y-60871426D01*
X98260000Y-61148665D01*
X98260000Y-61431335D01*
X98315147Y-61708574D01*
X98423320Y-61969727D01*
X98580363Y-62204759D01*
X98780241Y-62404637D01*
X99012759Y-62560000D01*
X98780241Y-62715363D01*
X98580363Y-62915241D01*
X98423320Y-63150273D01*
X98315147Y-63411426D01*
X98260000Y-63688665D01*
X98260000Y-63971335D01*
X98315147Y-64248574D01*
X98423320Y-64509727D01*
X98580363Y-64744759D01*
X98780241Y-64944637D01*
X99012759Y-65100000D01*
X98780241Y-65255363D01*
X98580363Y-65455241D01*
X98423320Y-65690273D01*
X98315147Y-65951426D01*
X98260000Y-66228665D01*
X98260000Y-66511335D01*
X98315147Y-66788574D01*
X98423320Y-67049727D01*
X98580363Y-67284759D01*
X98780241Y-67484637D01*
X99015273Y-67641680D01*
X99025865Y-67646067D01*
X98839869Y-67757615D01*
X98631481Y-67946586D01*
X98463963Y-68172580D01*
X98343754Y-68426913D01*
X98303096Y-68560961D01*
X98425085Y-68783000D01*
X99568000Y-68783000D01*
X99568000Y-68763000D01*
X99822000Y-68763000D01*
X99822000Y-68783000D01*
X100964915Y-68783000D01*
X101086904Y-68560961D01*
X101046246Y-68426913D01*
X100926037Y-68172580D01*
X100758519Y-67946586D01*
X100550131Y-67757615D01*
X100364135Y-67646067D01*
X100374727Y-67641680D01*
X100609759Y-67484637D01*
X100809637Y-67284759D01*
X100913043Y-67130000D01*
X105042678Y-67130000D01*
X105080000Y-67133676D01*
X105117322Y-67130000D01*
X105117333Y-67130000D01*
X105228986Y-67119003D01*
X105372247Y-67075546D01*
X105504276Y-67004974D01*
X105620001Y-66910001D01*
X105643804Y-66880998D01*
X106519803Y-66004999D01*
X107829491Y-66004999D01*
X107785000Y-66228665D01*
X107785000Y-66511335D01*
X107840147Y-66788574D01*
X107948320Y-67049727D01*
X108105363Y-67284759D01*
X108305241Y-67484637D01*
X108540273Y-67641680D01*
X108550865Y-67646067D01*
X108364869Y-67757615D01*
X108156481Y-67946586D01*
X107988963Y-68172580D01*
X107868754Y-68426913D01*
X107828096Y-68560961D01*
X107950085Y-68783000D01*
X109093000Y-68783000D01*
X109093000Y-68763000D01*
X109347000Y-68763000D01*
X109347000Y-68783000D01*
X110489915Y-68783000D01*
X110611904Y-68560961D01*
X110571246Y-68426913D01*
X110451037Y-68172580D01*
X110283519Y-67946586D01*
X110075131Y-67757615D01*
X109889135Y-67646067D01*
X109899727Y-67641680D01*
X110134759Y-67484637D01*
X110334637Y-67284759D01*
X110438043Y-67130000D01*
X112027678Y-67130000D01*
X112065000Y-67133676D01*
X112102322Y-67130000D01*
X112102333Y-67130000D01*
X112213986Y-67119003D01*
X112357247Y-67075546D01*
X112489276Y-67004974D01*
X112605001Y-66910001D01*
X112628804Y-66880998D01*
X113504803Y-66004999D01*
X113544491Y-66004999D01*
X113500000Y-66228665D01*
X113500000Y-66511335D01*
X113555147Y-66788574D01*
X113663320Y-67049727D01*
X113820363Y-67284759D01*
X114020241Y-67484637D01*
X114255273Y-67641680D01*
X114265865Y-67646067D01*
X114079869Y-67757615D01*
X113871481Y-67946586D01*
X113703963Y-68172580D01*
X113583754Y-68426913D01*
X113543096Y-68560961D01*
X113665085Y-68783000D01*
X114808000Y-68783000D01*
X114808000Y-68763000D01*
X115062000Y-68763000D01*
X115062000Y-68783000D01*
X116204915Y-68783000D01*
X116326904Y-68560961D01*
X116286246Y-68426913D01*
X116166037Y-68172580D01*
X115998519Y-67946586D01*
X115790131Y-67757615D01*
X115604135Y-67646067D01*
X115614727Y-67641680D01*
X115849759Y-67484637D01*
X116049637Y-67284759D01*
X116206680Y-67049727D01*
X116314853Y-66788574D01*
X116370000Y-66511335D01*
X116370000Y-66228665D01*
X116325509Y-66004999D01*
X117369491Y-66004999D01*
X117325000Y-66228665D01*
X117325000Y-66511335D01*
X117380147Y-66788574D01*
X117488320Y-67049727D01*
X117645363Y-67284759D01*
X117845241Y-67484637D01*
X118080273Y-67641680D01*
X118090865Y-67646067D01*
X117904869Y-67757615D01*
X117696481Y-67946586D01*
X117528963Y-68172580D01*
X117408754Y-68426913D01*
X117368096Y-68560961D01*
X117490085Y-68783000D01*
X118633000Y-68783000D01*
X118633000Y-68763000D01*
X118887000Y-68763000D01*
X118887000Y-68783000D01*
X120029915Y-68783000D01*
X120151904Y-68560961D01*
X120111246Y-68426913D01*
X119991037Y-68172580D01*
X119823519Y-67946586D01*
X119615131Y-67757615D01*
X119429135Y-67646067D01*
X119439727Y-67641680D01*
X119674759Y-67484637D01*
X119874637Y-67284759D01*
X119978043Y-67130000D01*
X120917678Y-67130000D01*
X120955000Y-67133676D01*
X120992322Y-67130000D01*
X120992333Y-67130000D01*
X121103986Y-67119003D01*
X121247247Y-67075546D01*
X121379276Y-67004974D01*
X121495001Y-66910001D01*
X121518804Y-66880997D01*
X123066004Y-65333798D01*
X123095001Y-65310001D01*
X123189974Y-65194276D01*
X123260546Y-65062247D01*
X123304003Y-64918986D01*
X123315000Y-64807333D01*
X123315000Y-64807325D01*
X123318676Y-64770000D01*
X123315000Y-64732675D01*
X123315000Y-64699317D01*
X123345363Y-64744759D01*
X123545241Y-64944637D01*
X123777759Y-65100000D01*
X123545241Y-65255363D01*
X123345363Y-65455241D01*
X123188320Y-65690273D01*
X123080147Y-65951426D01*
X123025000Y-66228665D01*
X123025000Y-66511335D01*
X123080147Y-66788574D01*
X123188320Y-67049727D01*
X123345363Y-67284759D01*
X123545241Y-67484637D01*
X123780273Y-67641680D01*
X123790865Y-67646067D01*
X123604869Y-67757615D01*
X123396481Y-67946586D01*
X123228963Y-68172580D01*
X123108754Y-68426913D01*
X123068096Y-68560961D01*
X123190085Y-68783000D01*
X124333000Y-68783000D01*
X124333000Y-68763000D01*
X124587000Y-68763000D01*
X124587000Y-68783000D01*
X125729915Y-68783000D01*
X125851904Y-68560961D01*
X125811246Y-68426913D01*
X125691037Y-68172580D01*
X125523519Y-67946586D01*
X125315131Y-67757615D01*
X125129135Y-67646067D01*
X125139727Y-67641680D01*
X125374759Y-67484637D01*
X125574637Y-67284759D01*
X125731680Y-67049727D01*
X125839853Y-66788574D01*
X125895000Y-66511335D01*
X125895000Y-66228665D01*
X125839853Y-65951426D01*
X125731680Y-65690273D01*
X125574637Y-65455241D01*
X125374759Y-65255363D01*
X125142241Y-65100000D01*
X125374759Y-64944637D01*
X125574637Y-64744759D01*
X125731680Y-64509727D01*
X125839853Y-64248574D01*
X125895000Y-63971335D01*
X125895000Y-63688665D01*
X125839853Y-63411426D01*
X125731680Y-63150273D01*
X125574637Y-62915241D01*
X125374759Y-62715363D01*
X125142241Y-62560000D01*
X125374759Y-62404637D01*
X125574637Y-62204759D01*
X125731680Y-61969727D01*
X125839853Y-61708574D01*
X125895000Y-61431335D01*
X125895000Y-61148665D01*
X125839853Y-60871426D01*
X125731680Y-60610273D01*
X125574637Y-60375241D01*
X125374759Y-60175363D01*
X125142241Y-60020000D01*
X125374759Y-59864637D01*
X125574637Y-59664759D01*
X125731680Y-59429727D01*
X125839853Y-59168574D01*
X125895000Y-58891335D01*
X125895000Y-58608665D01*
X125839853Y-58331426D01*
X125731680Y-58070273D01*
X125574637Y-57835241D01*
X125374759Y-57635363D01*
X125142241Y-57480000D01*
X125374759Y-57324637D01*
X125574637Y-57124759D01*
X125731680Y-56889727D01*
X125839853Y-56628574D01*
X125895000Y-56351335D01*
X125895000Y-56068665D01*
X125839853Y-55791426D01*
X125731680Y-55530273D01*
X125574637Y-55295241D01*
X125374759Y-55095363D01*
X125142241Y-54940000D01*
X125374759Y-54784637D01*
X125574637Y-54584759D01*
X125731680Y-54349727D01*
X125839853Y-54088574D01*
X125895000Y-53811335D01*
X125895000Y-53528665D01*
X125839853Y-53251426D01*
X125731680Y-52990273D01*
X125574637Y-52755241D01*
X125374759Y-52555363D01*
X125142241Y-52400000D01*
X125374759Y-52244637D01*
X125574637Y-52044759D01*
X125731680Y-51809727D01*
X125839853Y-51548574D01*
X125895000Y-51271335D01*
X125895000Y-50988665D01*
X125839853Y-50711426D01*
X125731680Y-50450273D01*
X125574637Y-50215241D01*
X125374759Y-50015363D01*
X125142241Y-49860000D01*
X125374759Y-49704637D01*
X125574637Y-49504759D01*
X125731680Y-49269727D01*
X125839853Y-49008574D01*
X125895000Y-48731335D01*
X125895000Y-48448665D01*
X125839853Y-48171426D01*
X125731680Y-47910273D01*
X125574637Y-47675241D01*
X125374759Y-47475363D01*
X125142241Y-47320000D01*
X125374759Y-47164637D01*
X125574637Y-46964759D01*
X125731680Y-46729727D01*
X125839853Y-46468574D01*
X125895000Y-46191335D01*
X125895000Y-45908665D01*
X125839853Y-45631426D01*
X125731680Y-45370273D01*
X125574637Y-45135241D01*
X125374759Y-44935363D01*
X125142241Y-44780000D01*
X125374759Y-44624637D01*
X125574637Y-44424759D01*
X125731680Y-44189727D01*
X125839853Y-43928574D01*
X125895000Y-43651335D01*
X125895000Y-43368665D01*
X125839853Y-43091426D01*
X125731680Y-42830273D01*
X125574637Y-42595241D01*
X125374759Y-42395363D01*
X125142241Y-42240000D01*
X125374759Y-42084637D01*
X125574637Y-41884759D01*
X125731680Y-41649727D01*
X125839853Y-41388574D01*
X125895000Y-41111335D01*
X125895000Y-40828665D01*
X132565000Y-40828665D01*
X132565000Y-41111335D01*
X132620147Y-41388574D01*
X132728320Y-41649727D01*
X132885363Y-41884759D01*
X133085241Y-42084637D01*
X133317759Y-42240000D01*
X133085241Y-42395363D01*
X132885363Y-42595241D01*
X132728320Y-42830273D01*
X132620147Y-43091426D01*
X132565000Y-43368665D01*
X132565000Y-43651335D01*
X132620147Y-43928574D01*
X132728320Y-44189727D01*
X132885363Y-44424759D01*
X133085241Y-44624637D01*
X133317759Y-44780000D01*
X133085241Y-44935363D01*
X132885363Y-45135241D01*
X132728320Y-45370273D01*
X132620147Y-45631426D01*
X132565000Y-45908665D01*
X132565000Y-46191335D01*
X132620147Y-46468574D01*
X132728320Y-46729727D01*
X132885363Y-46964759D01*
X133085241Y-47164637D01*
X133317759Y-47320000D01*
X133085241Y-47475363D01*
X132885363Y-47675241D01*
X132728320Y-47910273D01*
X132620147Y-48171426D01*
X132565000Y-48448665D01*
X132565000Y-48731335D01*
X132620147Y-49008574D01*
X132728320Y-49269727D01*
X132885363Y-49504759D01*
X133085241Y-49704637D01*
X133317759Y-49860000D01*
X133085241Y-50015363D01*
X132885363Y-50215241D01*
X132728320Y-50450273D01*
X132620147Y-50711426D01*
X132565000Y-50988665D01*
X132565000Y-51271335D01*
X132620147Y-51548574D01*
X132728320Y-51809727D01*
X132885363Y-52044759D01*
X133085241Y-52244637D01*
X133317759Y-52400000D01*
X133085241Y-52555363D01*
X132885363Y-52755241D01*
X132728320Y-52990273D01*
X132620147Y-53251426D01*
X132565000Y-53528665D01*
X132565000Y-53811335D01*
X132620147Y-54088574D01*
X132728320Y-54349727D01*
X132885363Y-54584759D01*
X133085241Y-54784637D01*
X133317759Y-54940000D01*
X133085241Y-55095363D01*
X132885363Y-55295241D01*
X132728320Y-55530273D01*
X132620147Y-55791426D01*
X132565000Y-56068665D01*
X132565000Y-56351335D01*
X132620147Y-56628574D01*
X132728320Y-56889727D01*
X132885363Y-57124759D01*
X133085241Y-57324637D01*
X133317759Y-57480000D01*
X133085241Y-57635363D01*
X132885363Y-57835241D01*
X132728320Y-58070273D01*
X132620147Y-58331426D01*
X132565000Y-58608665D01*
X132565000Y-58891335D01*
X132620147Y-59168574D01*
X132728320Y-59429727D01*
X132885363Y-59664759D01*
X133085241Y-59864637D01*
X133317759Y-60020000D01*
X133085241Y-60175363D01*
X132885363Y-60375241D01*
X132728320Y-60610273D01*
X132620147Y-60871426D01*
X132565000Y-61148665D01*
X132565000Y-61431335D01*
X132620147Y-61708574D01*
X132728320Y-61969727D01*
X132885363Y-62204759D01*
X133085241Y-62404637D01*
X133317759Y-62560000D01*
X133085241Y-62715363D01*
X132885363Y-62915241D01*
X132728320Y-63150273D01*
X132620147Y-63411426D01*
X132565000Y-63688665D01*
X132565000Y-63971335D01*
X132620147Y-64248574D01*
X132728320Y-64509727D01*
X132885363Y-64744759D01*
X133085241Y-64944637D01*
X133317759Y-65100000D01*
X133085241Y-65255363D01*
X132885363Y-65455241D01*
X132728320Y-65690273D01*
X132620147Y-65951426D01*
X132565000Y-66228665D01*
X132565000Y-66511335D01*
X132620147Y-66788574D01*
X132728320Y-67049727D01*
X132885363Y-67284759D01*
X133085241Y-67484637D01*
X133320273Y-67641680D01*
X133330865Y-67646067D01*
X133144869Y-67757615D01*
X132936481Y-67946586D01*
X132768963Y-68172580D01*
X132648754Y-68426913D01*
X132608096Y-68560961D01*
X132730085Y-68783000D01*
X133873000Y-68783000D01*
X133873000Y-68763000D01*
X134127000Y-68763000D01*
X134127000Y-68783000D01*
X135269915Y-68783000D01*
X135391904Y-68560961D01*
X135351246Y-68426913D01*
X135231037Y-68172580D01*
X135063519Y-67946586D01*
X134855131Y-67757615D01*
X134669135Y-67646067D01*
X134679727Y-67641680D01*
X134914759Y-67484637D01*
X135114637Y-67284759D01*
X135271680Y-67049727D01*
X135379853Y-66788574D01*
X135435000Y-66511335D01*
X135435000Y-66228665D01*
X135379853Y-65951426D01*
X135271680Y-65690273D01*
X135114637Y-65455241D01*
X134914759Y-65255363D01*
X134682241Y-65100000D01*
X134914759Y-64944637D01*
X135114637Y-64744759D01*
X135271680Y-64509727D01*
X135379853Y-64248574D01*
X135435000Y-63971335D01*
X135435000Y-63688665D01*
X135379853Y-63411426D01*
X135271680Y-63150273D01*
X135114637Y-62915241D01*
X134914759Y-62715363D01*
X134682241Y-62560000D01*
X134914759Y-62404637D01*
X135114637Y-62204759D01*
X135271680Y-61969727D01*
X135379853Y-61708574D01*
X135435000Y-61431335D01*
X135435000Y-61148665D01*
X135379853Y-60871426D01*
X135271680Y-60610273D01*
X135114637Y-60375241D01*
X134914759Y-60175363D01*
X134682241Y-60020000D01*
X134914759Y-59864637D01*
X135114637Y-59664759D01*
X135271680Y-59429727D01*
X135379853Y-59168574D01*
X135435000Y-58891335D01*
X135435000Y-58608665D01*
X135379853Y-58331426D01*
X135271680Y-58070273D01*
X135114637Y-57835241D01*
X134914759Y-57635363D01*
X134682241Y-57480000D01*
X134914759Y-57324637D01*
X135114637Y-57124759D01*
X135271680Y-56889727D01*
X135379853Y-56628574D01*
X135435000Y-56351335D01*
X135435000Y-56068665D01*
X135379853Y-55791426D01*
X135271680Y-55530273D01*
X135114637Y-55295241D01*
X134914759Y-55095363D01*
X134682241Y-54940000D01*
X134914759Y-54784637D01*
X135114637Y-54584759D01*
X135271680Y-54349727D01*
X135379853Y-54088574D01*
X135435000Y-53811335D01*
X135435000Y-53528665D01*
X135379853Y-53251426D01*
X135271680Y-52990273D01*
X135114637Y-52755241D01*
X134914759Y-52555363D01*
X134682241Y-52400000D01*
X134914759Y-52244637D01*
X135114637Y-52044759D01*
X135271680Y-51809727D01*
X135379853Y-51548574D01*
X135435000Y-51271335D01*
X135435000Y-50988665D01*
X135379853Y-50711426D01*
X135271680Y-50450273D01*
X135114637Y-50215241D01*
X134914759Y-50015363D01*
X134682241Y-49860000D01*
X134914759Y-49704637D01*
X135114637Y-49504759D01*
X135271680Y-49269727D01*
X135379853Y-49008574D01*
X135435000Y-48731335D01*
X135435000Y-48448665D01*
X135379853Y-48171426D01*
X135271680Y-47910273D01*
X135114637Y-47675241D01*
X134914759Y-47475363D01*
X134682241Y-47320000D01*
X134914759Y-47164637D01*
X135114637Y-46964759D01*
X135271680Y-46729727D01*
X135379853Y-46468574D01*
X135435000Y-46191335D01*
X135435000Y-45908665D01*
X135379853Y-45631426D01*
X135271680Y-45370273D01*
X135114637Y-45135241D01*
X134914759Y-44935363D01*
X134682241Y-44780000D01*
X134914759Y-44624637D01*
X135114637Y-44424759D01*
X135271680Y-44189727D01*
X135379853Y-43928574D01*
X135435000Y-43651335D01*
X135435000Y-43368665D01*
X135379853Y-43091426D01*
X135271680Y-42830273D01*
X135114637Y-42595241D01*
X134914759Y-42395363D01*
X134682241Y-42240000D01*
X134914759Y-42084637D01*
X135114637Y-41884759D01*
X135271680Y-41649727D01*
X135379853Y-41388574D01*
X135435000Y-41111335D01*
X135435000Y-40828665D01*
X135379853Y-40551426D01*
X135271680Y-40290273D01*
X135114637Y-40055241D01*
X134914759Y-39855363D01*
X134679727Y-39698320D01*
X134418574Y-39590147D01*
X134141335Y-39535000D01*
X133858665Y-39535000D01*
X133581426Y-39590147D01*
X133320273Y-39698320D01*
X133085241Y-39855363D01*
X132885363Y-40055241D01*
X132728320Y-40290273D01*
X132620147Y-40551426D01*
X132565000Y-40828665D01*
X125895000Y-40828665D01*
X125839853Y-40551426D01*
X125731680Y-40290273D01*
X125574637Y-40055241D01*
X125374759Y-39855363D01*
X125139727Y-39698320D01*
X124878574Y-39590147D01*
X124601335Y-39535000D01*
X124318665Y-39535000D01*
X124045456Y-39589345D01*
X125606009Y-38028794D01*
X125635001Y-38005001D01*
X125658795Y-37976008D01*
X125658799Y-37976004D01*
X125729973Y-37889277D01*
X125729974Y-37889276D01*
X125800546Y-37757247D01*
X125844003Y-37613986D01*
X125855000Y-37502333D01*
X125855000Y-37502324D01*
X125858676Y-37465001D01*
X125855000Y-37427678D01*
X125855000Y-34358711D01*
X125898937Y-34314774D01*
X126012205Y-34145256D01*
X126090226Y-33956898D01*
X126130000Y-33756939D01*
X126130000Y-33553061D01*
X126090226Y-33353102D01*
X126012205Y-33164744D01*
X125898937Y-32995226D01*
X125754774Y-32851063D01*
X125585256Y-32737795D01*
X125396898Y-32659774D01*
X125196939Y-32620000D01*
X124993061Y-32620000D01*
X124793102Y-32659774D01*
X124604744Y-32737795D01*
X124435226Y-32851063D01*
X124291063Y-32995226D01*
X124177795Y-33164744D01*
X124124160Y-33294229D01*
X123926939Y-33255000D01*
X123723061Y-33255000D01*
X123523102Y-33294774D01*
X123334744Y-33372795D01*
X123165226Y-33486063D01*
X123121289Y-33530000D01*
X118178711Y-33530000D01*
X118134774Y-33486063D01*
X117965256Y-33372795D01*
X117776898Y-33294774D01*
X117576939Y-33255000D01*
X117373061Y-33255000D01*
X117173102Y-33294774D01*
X116984744Y-33372795D01*
X116815226Y-33486063D01*
X116671063Y-33630226D01*
X116557795Y-33799744D01*
X116479774Y-33988102D01*
X116440000Y-34188061D01*
X116440000Y-34391939D01*
X116479774Y-34591898D01*
X116557795Y-34780256D01*
X116671063Y-34949774D01*
X116815226Y-35093937D01*
X116984744Y-35207205D01*
X117173102Y-35285226D01*
X117373061Y-35325000D01*
X117576939Y-35325000D01*
X117776898Y-35285226D01*
X117965256Y-35207205D01*
X118134774Y-35093937D01*
X118178711Y-35050000D01*
X123121289Y-35050000D01*
X123165226Y-35093937D01*
X123334744Y-35207205D01*
X123523102Y-35285226D01*
X123723061Y-35325000D01*
X123926939Y-35325000D01*
X124126898Y-35285226D01*
X124315256Y-35207205D01*
X124335001Y-35194012D01*
X124335000Y-37150197D01*
X122045000Y-39440199D01*
X122045000Y-39438711D01*
X122088937Y-39394774D01*
X122202205Y-39225256D01*
X122280226Y-39036898D01*
X122320000Y-38836939D01*
X122320000Y-38633061D01*
X122280226Y-38433102D01*
X122202205Y-38244744D01*
X122088937Y-38075226D01*
X121944774Y-37931063D01*
X121775256Y-37817795D01*
X121586898Y-37739774D01*
X121386939Y-37700000D01*
X121183061Y-37700000D01*
X120983102Y-37739774D01*
X120794744Y-37817795D01*
X120625226Y-37931063D01*
X120481063Y-38075226D01*
X120367795Y-38244744D01*
X120289774Y-38433102D01*
X120250000Y-38633061D01*
X120250000Y-38836939D01*
X120289774Y-39036898D01*
X120367795Y-39225256D01*
X120481063Y-39394774D01*
X120525001Y-39438712D01*
X120525000Y-63820198D01*
X120150587Y-64194612D01*
X120195000Y-63971335D01*
X120195000Y-63688665D01*
X120139853Y-63411426D01*
X120031680Y-63150273D01*
X119874637Y-62915241D01*
X119674759Y-62715363D01*
X119442241Y-62560000D01*
X119674759Y-62404637D01*
X119874637Y-62204759D01*
X120031680Y-61969727D01*
X120139853Y-61708574D01*
X120195000Y-61431335D01*
X120195000Y-61148665D01*
X120139853Y-60871426D01*
X120031680Y-60610273D01*
X119874637Y-60375241D01*
X119674759Y-60175363D01*
X119442241Y-60020000D01*
X119674759Y-59864637D01*
X119874637Y-59664759D01*
X120031680Y-59429727D01*
X120139853Y-59168574D01*
X120195000Y-58891335D01*
X120195000Y-58608665D01*
X120139853Y-58331426D01*
X120031680Y-58070273D01*
X119874637Y-57835241D01*
X119674759Y-57635363D01*
X119442241Y-57480000D01*
X119674759Y-57324637D01*
X119874637Y-57124759D01*
X120031680Y-56889727D01*
X120139853Y-56628574D01*
X120195000Y-56351335D01*
X120195000Y-56068665D01*
X120139853Y-55791426D01*
X120031680Y-55530273D01*
X119874637Y-55295241D01*
X119674759Y-55095363D01*
X119442241Y-54940000D01*
X119674759Y-54784637D01*
X119874637Y-54584759D01*
X120031680Y-54349727D01*
X120139853Y-54088574D01*
X120195000Y-53811335D01*
X120195000Y-53528665D01*
X120139853Y-53251426D01*
X120031680Y-52990273D01*
X119874637Y-52755241D01*
X119674759Y-52555363D01*
X119442241Y-52400000D01*
X119674759Y-52244637D01*
X119874637Y-52044759D01*
X120031680Y-51809727D01*
X120139853Y-51548574D01*
X120195000Y-51271335D01*
X120195000Y-50988665D01*
X120139853Y-50711426D01*
X120031680Y-50450273D01*
X119874637Y-50215241D01*
X119674759Y-50015363D01*
X119442241Y-49860000D01*
X119674759Y-49704637D01*
X119874637Y-49504759D01*
X120031680Y-49269727D01*
X120139853Y-49008574D01*
X120195000Y-48731335D01*
X120195000Y-48448665D01*
X120139853Y-48171426D01*
X120031680Y-47910273D01*
X119874637Y-47675241D01*
X119674759Y-47475363D01*
X119442241Y-47320000D01*
X119674759Y-47164637D01*
X119874637Y-46964759D01*
X120031680Y-46729727D01*
X120139853Y-46468574D01*
X120195000Y-46191335D01*
X120195000Y-45908665D01*
X120139853Y-45631426D01*
X120031680Y-45370273D01*
X119874637Y-45135241D01*
X119674759Y-44935363D01*
X119442241Y-44780000D01*
X119674759Y-44624637D01*
X119874637Y-44424759D01*
X120031680Y-44189727D01*
X120139853Y-43928574D01*
X120195000Y-43651335D01*
X120195000Y-43368665D01*
X120139853Y-43091426D01*
X120031680Y-42830273D01*
X119874637Y-42595241D01*
X119676039Y-42396643D01*
X119684482Y-42395812D01*
X119804180Y-42359502D01*
X119914494Y-42300537D01*
X120011185Y-42221185D01*
X120090537Y-42124494D01*
X120149502Y-42014180D01*
X120185812Y-41894482D01*
X120198072Y-41770000D01*
X120198072Y-40170000D01*
X120185812Y-40045518D01*
X120149502Y-39925820D01*
X120090537Y-39815506D01*
X120011185Y-39718815D01*
X119914494Y-39639463D01*
X119804180Y-39580498D01*
X119684482Y-39544188D01*
X119560000Y-39531928D01*
X117960000Y-39531928D01*
X117835518Y-39544188D01*
X117715820Y-39580498D01*
X117605506Y-39639463D01*
X117508815Y-39718815D01*
X117429463Y-39815506D01*
X117370498Y-39925820D01*
X117334188Y-40045518D01*
X117321928Y-40170000D01*
X117321928Y-41770000D01*
X117334188Y-41894482D01*
X117370498Y-42014180D01*
X117429463Y-42124494D01*
X117508815Y-42221185D01*
X117605506Y-42300537D01*
X117715820Y-42359502D01*
X117835518Y-42395812D01*
X117843961Y-42396643D01*
X117645363Y-42595241D01*
X117488320Y-42830273D01*
X117380147Y-43091426D01*
X117325000Y-43368665D01*
X117325000Y-43651335D01*
X117380147Y-43928574D01*
X117488320Y-44189727D01*
X117645363Y-44424759D01*
X117845241Y-44624637D01*
X118077759Y-44780000D01*
X117845241Y-44935363D01*
X117645363Y-45135241D01*
X117488320Y-45370273D01*
X117380147Y-45631426D01*
X117325000Y-45908665D01*
X117325000Y-46191335D01*
X117380147Y-46468574D01*
X117488320Y-46729727D01*
X117645363Y-46964759D01*
X117845241Y-47164637D01*
X118077759Y-47320000D01*
X117845241Y-47475363D01*
X117645363Y-47675241D01*
X117488320Y-47910273D01*
X117380147Y-48171426D01*
X117325000Y-48448665D01*
X117325000Y-48731335D01*
X117380147Y-49008574D01*
X117488320Y-49269727D01*
X117645363Y-49504759D01*
X117845241Y-49704637D01*
X118077759Y-49860000D01*
X117845241Y-50015363D01*
X117645363Y-50215241D01*
X117488320Y-50450273D01*
X117380147Y-50711426D01*
X117325000Y-50988665D01*
X117325000Y-51271335D01*
X117380147Y-51548574D01*
X117488320Y-51809727D01*
X117645363Y-52044759D01*
X117845241Y-52244637D01*
X118077759Y-52400000D01*
X117845241Y-52555363D01*
X117645363Y-52755241D01*
X117488320Y-52990273D01*
X117380147Y-53251426D01*
X117325000Y-53528665D01*
X117325000Y-53811335D01*
X117380147Y-54088574D01*
X117488320Y-54349727D01*
X117645363Y-54584759D01*
X117845241Y-54784637D01*
X118077759Y-54940000D01*
X117845241Y-55095363D01*
X117645363Y-55295241D01*
X117488320Y-55530273D01*
X117380147Y-55791426D01*
X117325000Y-56068665D01*
X117325000Y-56351335D01*
X117380147Y-56628574D01*
X117488320Y-56889727D01*
X117645363Y-57124759D01*
X117845241Y-57324637D01*
X118077759Y-57480000D01*
X117845241Y-57635363D01*
X117645363Y-57835241D01*
X117488320Y-58070273D01*
X117380147Y-58331426D01*
X117325000Y-58608665D01*
X117325000Y-58891335D01*
X117380147Y-59168574D01*
X117488320Y-59429727D01*
X117645363Y-59664759D01*
X117845241Y-59864637D01*
X118077759Y-60020000D01*
X117845241Y-60175363D01*
X117645363Y-60375241D01*
X117488320Y-60610273D01*
X117380147Y-60871426D01*
X117325000Y-61148665D01*
X117325000Y-61431335D01*
X117380147Y-61708574D01*
X117488320Y-61969727D01*
X117645363Y-62204759D01*
X117845241Y-62404637D01*
X118077759Y-62560000D01*
X117845241Y-62715363D01*
X117645363Y-62915241D01*
X117488320Y-63150273D01*
X117380147Y-63411426D01*
X117325000Y-63688665D01*
X117325000Y-63971335D01*
X117380147Y-64248574D01*
X117478077Y-64484999D01*
X116216923Y-64484999D01*
X116314853Y-64248574D01*
X116370000Y-63971335D01*
X116370000Y-63688665D01*
X116314853Y-63411426D01*
X116206680Y-63150273D01*
X116049637Y-62915241D01*
X115849759Y-62715363D01*
X115617241Y-62560000D01*
X115849759Y-62404637D01*
X116049637Y-62204759D01*
X116206680Y-61969727D01*
X116314853Y-61708574D01*
X116370000Y-61431335D01*
X116370000Y-61148665D01*
X116314853Y-60871426D01*
X116206680Y-60610273D01*
X116049637Y-60375241D01*
X115849759Y-60175363D01*
X115617241Y-60020000D01*
X115849759Y-59864637D01*
X116049637Y-59664759D01*
X116206680Y-59429727D01*
X116314853Y-59168574D01*
X116370000Y-58891335D01*
X116370000Y-58608665D01*
X116314853Y-58331426D01*
X116206680Y-58070273D01*
X116049637Y-57835241D01*
X115849759Y-57635363D01*
X115617241Y-57480000D01*
X115849759Y-57324637D01*
X116049637Y-57124759D01*
X116206680Y-56889727D01*
X116314853Y-56628574D01*
X116370000Y-56351335D01*
X116370000Y-56068665D01*
X116314853Y-55791426D01*
X116206680Y-55530273D01*
X116049637Y-55295241D01*
X115849759Y-55095363D01*
X115617241Y-54940000D01*
X115849759Y-54784637D01*
X116049637Y-54584759D01*
X116206680Y-54349727D01*
X116314853Y-54088574D01*
X116370000Y-53811335D01*
X116370000Y-53528665D01*
X116314853Y-53251426D01*
X116206680Y-52990273D01*
X116049637Y-52755241D01*
X115849759Y-52555363D01*
X115617241Y-52400000D01*
X115849759Y-52244637D01*
X116049637Y-52044759D01*
X116206680Y-51809727D01*
X116314853Y-51548574D01*
X116370000Y-51271335D01*
X116370000Y-50988665D01*
X116314853Y-50711426D01*
X116206680Y-50450273D01*
X116049637Y-50215241D01*
X115849759Y-50015363D01*
X115617241Y-49860000D01*
X115849759Y-49704637D01*
X116049637Y-49504759D01*
X116206680Y-49269727D01*
X116314853Y-49008574D01*
X116370000Y-48731335D01*
X116370000Y-48448665D01*
X116314853Y-48171426D01*
X116206680Y-47910273D01*
X116049637Y-47675241D01*
X115849759Y-47475363D01*
X115617241Y-47320000D01*
X115849759Y-47164637D01*
X116049637Y-46964759D01*
X116206680Y-46729727D01*
X116314853Y-46468574D01*
X116370000Y-46191335D01*
X116370000Y-45908665D01*
X116314853Y-45631426D01*
X116206680Y-45370273D01*
X116049637Y-45135241D01*
X115849759Y-44935363D01*
X115617241Y-44780000D01*
X115849759Y-44624637D01*
X116049637Y-44424759D01*
X116206680Y-44189727D01*
X116314853Y-43928574D01*
X116370000Y-43651335D01*
X116370000Y-43368665D01*
X116314853Y-43091426D01*
X116206680Y-42830273D01*
X116049637Y-42595241D01*
X115849759Y-42395363D01*
X115617241Y-42240000D01*
X115849759Y-42084637D01*
X116049637Y-41884759D01*
X116206680Y-41649727D01*
X116314853Y-41388574D01*
X116370000Y-41111335D01*
X116370000Y-40828665D01*
X116314853Y-40551426D01*
X116206680Y-40290273D01*
X116049637Y-40055241D01*
X115849759Y-39855363D01*
X115614727Y-39698320D01*
X115353574Y-39590147D01*
X115076335Y-39535000D01*
X114793665Y-39535000D01*
X114516426Y-39590147D01*
X114255273Y-39698320D01*
X114020241Y-39855363D01*
X113820363Y-40055241D01*
X113663320Y-40290273D01*
X113555147Y-40551426D01*
X113500000Y-40828665D01*
X113500000Y-41111335D01*
X113555147Y-41388574D01*
X113663320Y-41649727D01*
X113820363Y-41884759D01*
X114020241Y-42084637D01*
X114252759Y-42240000D01*
X114020241Y-42395363D01*
X113820363Y-42595241D01*
X113663320Y-42830273D01*
X113555147Y-43091426D01*
X113500000Y-43368665D01*
X113500000Y-43651335D01*
X113555147Y-43928574D01*
X113663320Y-44189727D01*
X113820363Y-44424759D01*
X114020241Y-44624637D01*
X114252759Y-44780000D01*
X114020241Y-44935363D01*
X113820363Y-45135241D01*
X113663320Y-45370273D01*
X113555147Y-45631426D01*
X113500000Y-45908665D01*
X113500000Y-46191335D01*
X113555147Y-46468574D01*
X113663320Y-46729727D01*
X113820363Y-46964759D01*
X114020241Y-47164637D01*
X114252759Y-47320000D01*
X114020241Y-47475363D01*
X113820363Y-47675241D01*
X113663320Y-47910273D01*
X113555147Y-48171426D01*
X113500000Y-48448665D01*
X113500000Y-48731335D01*
X113555147Y-49008574D01*
X113663320Y-49269727D01*
X113820363Y-49504759D01*
X114020241Y-49704637D01*
X114252759Y-49860000D01*
X114020241Y-50015363D01*
X113820363Y-50215241D01*
X113663320Y-50450273D01*
X113555147Y-50711426D01*
X113500000Y-50988665D01*
X113500000Y-51271335D01*
X113555147Y-51548574D01*
X113663320Y-51809727D01*
X113820363Y-52044759D01*
X114020241Y-52244637D01*
X114252759Y-52400000D01*
X114020241Y-52555363D01*
X113820363Y-52755241D01*
X113663320Y-52990273D01*
X113555147Y-53251426D01*
X113500000Y-53528665D01*
X113500000Y-53811335D01*
X113555147Y-54088574D01*
X113663320Y-54349727D01*
X113820363Y-54584759D01*
X114020241Y-54784637D01*
X114252759Y-54940000D01*
X114020241Y-55095363D01*
X113820363Y-55295241D01*
X113663320Y-55530273D01*
X113555147Y-55791426D01*
X113500000Y-56068665D01*
X113500000Y-56351335D01*
X113555147Y-56628574D01*
X113663320Y-56889727D01*
X113820363Y-57124759D01*
X114020241Y-57324637D01*
X114252759Y-57480000D01*
X114020241Y-57635363D01*
X113820363Y-57835241D01*
X113663320Y-58070273D01*
X113555147Y-58331426D01*
X113500000Y-58608665D01*
X113500000Y-58891335D01*
X113555147Y-59168574D01*
X113663320Y-59429727D01*
X113820363Y-59664759D01*
X114020241Y-59864637D01*
X114252759Y-60020000D01*
X114020241Y-60175363D01*
X113820363Y-60375241D01*
X113663320Y-60610273D01*
X113555147Y-60871426D01*
X113500000Y-61148665D01*
X113500000Y-61431335D01*
X113555147Y-61708574D01*
X113663320Y-61969727D01*
X113820363Y-62204759D01*
X114020241Y-62404637D01*
X114252759Y-62560000D01*
X114020241Y-62715363D01*
X113820363Y-62915241D01*
X113663320Y-63150273D01*
X113555147Y-63411426D01*
X113500000Y-63688665D01*
X113500000Y-63971335D01*
X113555147Y-64248574D01*
X113653077Y-64484999D01*
X113227326Y-64484999D01*
X113190001Y-64481323D01*
X113152676Y-64484999D01*
X113152668Y-64484999D01*
X113065064Y-64493627D01*
X113100546Y-64427247D01*
X113144003Y-64283986D01*
X113155000Y-64172333D01*
X113155000Y-64172325D01*
X113158676Y-64135000D01*
X113155000Y-64097675D01*
X113155000Y-40319801D01*
X114339802Y-39135000D01*
X114401939Y-39135000D01*
X114601898Y-39095226D01*
X114790256Y-39017205D01*
X114959774Y-38903937D01*
X115103937Y-38759774D01*
X115217205Y-38590256D01*
X115295226Y-38401898D01*
X115335000Y-38201939D01*
X115335000Y-37998061D01*
X115295226Y-37798102D01*
X115217205Y-37609744D01*
X115103937Y-37440226D01*
X114959774Y-37296063D01*
X114790256Y-37182795D01*
X114601898Y-37104774D01*
X114401939Y-37065000D01*
X114198061Y-37065000D01*
X113998102Y-37104774D01*
X113809744Y-37182795D01*
X113640226Y-37296063D01*
X113496063Y-37440226D01*
X113382795Y-37609744D01*
X113304774Y-37798102D01*
X113265000Y-37998061D01*
X113265000Y-38060198D01*
X111883998Y-39441201D01*
X111855000Y-39464999D01*
X111831202Y-39493997D01*
X111831201Y-39493998D01*
X111760026Y-39580724D01*
X111689454Y-39712754D01*
X111659180Y-39812558D01*
X111645998Y-39856014D01*
X111639123Y-39925820D01*
X111631324Y-40005000D01*
X111635001Y-40042333D01*
X111635000Y-63820198D01*
X110970200Y-64484999D01*
X110501923Y-64484999D01*
X110599853Y-64248574D01*
X110655000Y-63971335D01*
X110655000Y-63688665D01*
X110599853Y-63411426D01*
X110491680Y-63150273D01*
X110334637Y-62915241D01*
X110134759Y-62715363D01*
X109902241Y-62560000D01*
X110134759Y-62404637D01*
X110334637Y-62204759D01*
X110491680Y-61969727D01*
X110599853Y-61708574D01*
X110655000Y-61431335D01*
X110655000Y-61148665D01*
X110599853Y-60871426D01*
X110491680Y-60610273D01*
X110334637Y-60375241D01*
X110134759Y-60175363D01*
X109902241Y-60020000D01*
X110134759Y-59864637D01*
X110334637Y-59664759D01*
X110491680Y-59429727D01*
X110599853Y-59168574D01*
X110655000Y-58891335D01*
X110655000Y-58608665D01*
X110599853Y-58331426D01*
X110491680Y-58070273D01*
X110334637Y-57835241D01*
X110134759Y-57635363D01*
X109902241Y-57480000D01*
X110134759Y-57324637D01*
X110334637Y-57124759D01*
X110491680Y-56889727D01*
X110599853Y-56628574D01*
X110655000Y-56351335D01*
X110655000Y-56068665D01*
X110599853Y-55791426D01*
X110491680Y-55530273D01*
X110334637Y-55295241D01*
X110134759Y-55095363D01*
X109902241Y-54940000D01*
X110134759Y-54784637D01*
X110334637Y-54584759D01*
X110491680Y-54349727D01*
X110599853Y-54088574D01*
X110655000Y-53811335D01*
X110655000Y-53528665D01*
X110599853Y-53251426D01*
X110491680Y-52990273D01*
X110334637Y-52755241D01*
X110134759Y-52555363D01*
X109902241Y-52400000D01*
X110134759Y-52244637D01*
X110334637Y-52044759D01*
X110491680Y-51809727D01*
X110599853Y-51548574D01*
X110655000Y-51271335D01*
X110655000Y-50988665D01*
X110599853Y-50711426D01*
X110491680Y-50450273D01*
X110334637Y-50215241D01*
X110134759Y-50015363D01*
X109902241Y-49860000D01*
X110134759Y-49704637D01*
X110334637Y-49504759D01*
X110491680Y-49269727D01*
X110599853Y-49008574D01*
X110655000Y-48731335D01*
X110655000Y-48448665D01*
X110599853Y-48171426D01*
X110491680Y-47910273D01*
X110334637Y-47675241D01*
X110134759Y-47475363D01*
X109902241Y-47320000D01*
X110134759Y-47164637D01*
X110334637Y-46964759D01*
X110491680Y-46729727D01*
X110599853Y-46468574D01*
X110655000Y-46191335D01*
X110655000Y-45908665D01*
X110599853Y-45631426D01*
X110491680Y-45370273D01*
X110334637Y-45135241D01*
X110134759Y-44935363D01*
X109902241Y-44780000D01*
X110134759Y-44624637D01*
X110334637Y-44424759D01*
X110491680Y-44189727D01*
X110599853Y-43928574D01*
X110655000Y-43651335D01*
X110655000Y-43368665D01*
X110599853Y-43091426D01*
X110491680Y-42830273D01*
X110334637Y-42595241D01*
X110136039Y-42396643D01*
X110144482Y-42395812D01*
X110264180Y-42359502D01*
X110374494Y-42300537D01*
X110471185Y-42221185D01*
X110550537Y-42124494D01*
X110609502Y-42014180D01*
X110645812Y-41894482D01*
X110658072Y-41770000D01*
X110658072Y-40170000D01*
X110645812Y-40045518D01*
X110609502Y-39925820D01*
X110550537Y-39815506D01*
X110471185Y-39718815D01*
X110374494Y-39639463D01*
X110264180Y-39580498D01*
X110144482Y-39544188D01*
X110020000Y-39531928D01*
X108420000Y-39531928D01*
X108295518Y-39544188D01*
X108175820Y-39580498D01*
X108065506Y-39639463D01*
X107968815Y-39718815D01*
X107889463Y-39815506D01*
X107830498Y-39925820D01*
X107794188Y-40045518D01*
X107781928Y-40170000D01*
X107781928Y-41770000D01*
X107794188Y-41894482D01*
X107830498Y-42014180D01*
X107889463Y-42124494D01*
X107968815Y-42221185D01*
X108065506Y-42300537D01*
X108175820Y-42359502D01*
X108295518Y-42395812D01*
X108303961Y-42396643D01*
X108105363Y-42595241D01*
X107948320Y-42830273D01*
X107840147Y-43091426D01*
X107785000Y-43368665D01*
X107785000Y-43651335D01*
X107840147Y-43928574D01*
X107948320Y-44189727D01*
X108105363Y-44424759D01*
X108305241Y-44624637D01*
X108537759Y-44780000D01*
X108305241Y-44935363D01*
X108105363Y-45135241D01*
X107948320Y-45370273D01*
X107840147Y-45631426D01*
X107785000Y-45908665D01*
X107785000Y-46191335D01*
X107840147Y-46468574D01*
X107948320Y-46729727D01*
X108105363Y-46964759D01*
X108305241Y-47164637D01*
X108537759Y-47320000D01*
X108305241Y-47475363D01*
X108105363Y-47675241D01*
X107948320Y-47910273D01*
X107840147Y-48171426D01*
X107785000Y-48448665D01*
X107785000Y-48731335D01*
X107840147Y-49008574D01*
X107948320Y-49269727D01*
X108105363Y-49504759D01*
X108305241Y-49704637D01*
X108537759Y-49860000D01*
X108305241Y-50015363D01*
X108105363Y-50215241D01*
X107948320Y-50450273D01*
X107840147Y-50711426D01*
X107785000Y-50988665D01*
X107785000Y-51271335D01*
X107840147Y-51548574D01*
X107948320Y-51809727D01*
X108105363Y-52044759D01*
X108305241Y-52244637D01*
X108537759Y-52400000D01*
X108305241Y-52555363D01*
X108105363Y-52755241D01*
X107948320Y-52990273D01*
X107840147Y-53251426D01*
X107785000Y-53528665D01*
X107785000Y-53811335D01*
X107840147Y-54088574D01*
X107948320Y-54349727D01*
X108105363Y-54584759D01*
X108305241Y-54784637D01*
X108537759Y-54940000D01*
X108305241Y-55095363D01*
X108105363Y-55295241D01*
X107948320Y-55530273D01*
X107840147Y-55791426D01*
X107785000Y-56068665D01*
X107785000Y-56351335D01*
X107840147Y-56628574D01*
X107948320Y-56889727D01*
X108105363Y-57124759D01*
X108305241Y-57324637D01*
X108537759Y-57480000D01*
X108305241Y-57635363D01*
X108105363Y-57835241D01*
X107948320Y-58070273D01*
X107840147Y-58331426D01*
X107785000Y-58608665D01*
X107785000Y-58891335D01*
X107840147Y-59168574D01*
X107948320Y-59429727D01*
X108105363Y-59664759D01*
X108305241Y-59864637D01*
X108537759Y-60020000D01*
X108305241Y-60175363D01*
X108105363Y-60375241D01*
X107948320Y-60610273D01*
X107840147Y-60871426D01*
X107785000Y-61148665D01*
X107785000Y-61431335D01*
X107840147Y-61708574D01*
X107948320Y-61969727D01*
X108105363Y-62204759D01*
X108305241Y-62404637D01*
X108537759Y-62560000D01*
X108305241Y-62715363D01*
X108105363Y-62915241D01*
X107948320Y-63150273D01*
X107840147Y-63411426D01*
X107785000Y-63688665D01*
X107785000Y-63971335D01*
X107840147Y-64248574D01*
X107938077Y-64484999D01*
X106242326Y-64484999D01*
X106205001Y-64481323D01*
X106167676Y-64484999D01*
X106167668Y-64484999D01*
X106056015Y-64495996D01*
X105912754Y-64539453D01*
X105780725Y-64610025D01*
X105665000Y-64704998D01*
X105641202Y-64733996D01*
X104765199Y-65610000D01*
X100913043Y-65610000D01*
X100809637Y-65455241D01*
X100609759Y-65255363D01*
X100377241Y-65100000D01*
X100609759Y-64944637D01*
X100809637Y-64744759D01*
X100966680Y-64509727D01*
X101074853Y-64248574D01*
X101130000Y-63971335D01*
X101130000Y-63688665D01*
X101074853Y-63411426D01*
X100966680Y-63150273D01*
X100809637Y-62915241D01*
X100609759Y-62715363D01*
X100377241Y-62560000D01*
X100609759Y-62404637D01*
X100809637Y-62204759D01*
X100966680Y-61969727D01*
X101074853Y-61708574D01*
X101130000Y-61431335D01*
X101130000Y-61148665D01*
X101074853Y-60871426D01*
X100966680Y-60610273D01*
X100809637Y-60375241D01*
X100609759Y-60175363D01*
X100377241Y-60020000D01*
X100609759Y-59864637D01*
X100809637Y-59664759D01*
X100966680Y-59429727D01*
X101074853Y-59168574D01*
X101130000Y-58891335D01*
X101130000Y-58608665D01*
X101074853Y-58331426D01*
X100966680Y-58070273D01*
X100809637Y-57835241D01*
X100609759Y-57635363D01*
X100377241Y-57480000D01*
X100609759Y-57324637D01*
X100809637Y-57124759D01*
X100966680Y-56889727D01*
X101074853Y-56628574D01*
X101130000Y-56351335D01*
X101130000Y-56068665D01*
X101074853Y-55791426D01*
X100966680Y-55530273D01*
X100809637Y-55295241D01*
X100609759Y-55095363D01*
X100377241Y-54940000D01*
X100609759Y-54784637D01*
X100809637Y-54584759D01*
X100966680Y-54349727D01*
X101074853Y-54088574D01*
X101130000Y-53811335D01*
X101130000Y-53528665D01*
X101074853Y-53251426D01*
X100966680Y-52990273D01*
X100809637Y-52755241D01*
X100609759Y-52555363D01*
X100377241Y-52400000D01*
X100609759Y-52244637D01*
X100809637Y-52044759D01*
X100966680Y-51809727D01*
X101074853Y-51548574D01*
X101130000Y-51271335D01*
X101130000Y-50988665D01*
X101074853Y-50711426D01*
X100966680Y-50450273D01*
X100809637Y-50215241D01*
X100609759Y-50015363D01*
X100377241Y-49860000D01*
X100609759Y-49704637D01*
X100809637Y-49504759D01*
X100966680Y-49269727D01*
X101074853Y-49008574D01*
X101130000Y-48731335D01*
X101130000Y-48448665D01*
X101074853Y-48171426D01*
X100966680Y-47910273D01*
X100809637Y-47675241D01*
X100609759Y-47475363D01*
X100377241Y-47320000D01*
X100609759Y-47164637D01*
X100809637Y-46964759D01*
X100966680Y-46729727D01*
X101074853Y-46468574D01*
X101130000Y-46191335D01*
X101130000Y-45908665D01*
X101074853Y-45631426D01*
X100966680Y-45370273D01*
X100809637Y-45135241D01*
X100609759Y-44935363D01*
X100377241Y-44780000D01*
X100609759Y-44624637D01*
X100809637Y-44424759D01*
X100966680Y-44189727D01*
X101074853Y-43928574D01*
X101130000Y-43651335D01*
X101130000Y-43368665D01*
X101074853Y-43091426D01*
X100966680Y-42830273D01*
X100809637Y-42595241D01*
X100611039Y-42396643D01*
X100619482Y-42395812D01*
X100739180Y-42359502D01*
X100849494Y-42300537D01*
X100946185Y-42221185D01*
X101025537Y-42124494D01*
X101084502Y-42014180D01*
X101120812Y-41894482D01*
X101133072Y-41770000D01*
X101133072Y-40170000D01*
X101120812Y-40045518D01*
X101084502Y-39925820D01*
X101025537Y-39815506D01*
X100946185Y-39718815D01*
X100849494Y-39639463D01*
X100739180Y-39580498D01*
X100619482Y-39544188D01*
X100495000Y-39531928D01*
X98895000Y-39531928D01*
X98770518Y-39544188D01*
X98650820Y-39580498D01*
X98540506Y-39639463D01*
X98443815Y-39718815D01*
X98364463Y-39815506D01*
X98305498Y-39925820D01*
X98269188Y-40045518D01*
X98256928Y-40170000D01*
X95910000Y-40170000D01*
X95910000Y-39643380D01*
X97428381Y-38125000D01*
X110457591Y-38125000D01*
X110490000Y-38128192D01*
X110522409Y-38125000D01*
X110522419Y-38125000D01*
X110619383Y-38115450D01*
X110743793Y-38077710D01*
X110858450Y-38016425D01*
X110958948Y-37933948D01*
X110979616Y-37908764D01*
X112838770Y-36049611D01*
X112863948Y-36028948D01*
X112946425Y-35928450D01*
X113007710Y-35813793D01*
X113045450Y-35689383D01*
X113055000Y-35592419D01*
X113055000Y-35592409D01*
X113058192Y-35560000D01*
X113055000Y-35527591D01*
X113055000Y-32600000D01*
X127416928Y-32600000D01*
X127429188Y-32724482D01*
X127465498Y-32844180D01*
X127524463Y-32954494D01*
X127603815Y-33051185D01*
X127700506Y-33130537D01*
X127810820Y-33189502D01*
X127930518Y-33225812D01*
X128055000Y-33238072D01*
X128619250Y-33235000D01*
X128778000Y-33076250D01*
X128778000Y-31877000D01*
X127578750Y-31877000D01*
X127420000Y-32035750D01*
X127416928Y-32600000D01*
X113055000Y-32600000D01*
X113055000Y-30900000D01*
X127416928Y-30900000D01*
X127420000Y-31464250D01*
X127578750Y-31623000D01*
X128778000Y-31623000D01*
X128778000Y-30423750D01*
X129032000Y-30423750D01*
X129032000Y-31623000D01*
X129052000Y-31623000D01*
X129052000Y-31877000D01*
X129032000Y-31877000D01*
X129032000Y-33076250D01*
X129190750Y-33235000D01*
X129755000Y-33238072D01*
X129879482Y-33225812D01*
X129999180Y-33189502D01*
X130109494Y-33130537D01*
X130206185Y-33051185D01*
X130285537Y-32954494D01*
X130344502Y-32844180D01*
X130366513Y-32771620D01*
X130498368Y-32903475D01*
X130741589Y-33065990D01*
X131011842Y-33177932D01*
X131298740Y-33235000D01*
X131591260Y-33235000D01*
X131878158Y-33177932D01*
X132148411Y-33065990D01*
X132391632Y-32903475D01*
X132598475Y-32696632D01*
X132715000Y-32522240D01*
X132831525Y-32696632D01*
X133038368Y-32903475D01*
X133281589Y-33065990D01*
X133551842Y-33177932D01*
X133838740Y-33235000D01*
X134131260Y-33235000D01*
X134418158Y-33177932D01*
X134688411Y-33065990D01*
X134931632Y-32903475D01*
X135138475Y-32696632D01*
X135300990Y-32453411D01*
X135412932Y-32183158D01*
X135470000Y-31896260D01*
X135470000Y-31603740D01*
X135412932Y-31316842D01*
X135300990Y-31046589D01*
X135138475Y-30803368D01*
X134931632Y-30596525D01*
X134688411Y-30434010D01*
X134418158Y-30322068D01*
X134131260Y-30265000D01*
X133838740Y-30265000D01*
X133551842Y-30322068D01*
X133281589Y-30434010D01*
X133038368Y-30596525D01*
X132831525Y-30803368D01*
X132715000Y-30977760D01*
X132598475Y-30803368D01*
X132391632Y-30596525D01*
X132148411Y-30434010D01*
X131878158Y-30322068D01*
X131591260Y-30265000D01*
X131298740Y-30265000D01*
X131011842Y-30322068D01*
X130741589Y-30434010D01*
X130498368Y-30596525D01*
X130366513Y-30728380D01*
X130344502Y-30655820D01*
X130285537Y-30545506D01*
X130206185Y-30448815D01*
X130109494Y-30369463D01*
X129999180Y-30310498D01*
X129879482Y-30274188D01*
X129755000Y-30261928D01*
X129190750Y-30265000D01*
X129032000Y-30423750D01*
X128778000Y-30423750D01*
X128619250Y-30265000D01*
X128055000Y-30261928D01*
X127930518Y-30274188D01*
X127810820Y-30310498D01*
X127700506Y-30369463D01*
X127603815Y-30448815D01*
X127524463Y-30545506D01*
X127465498Y-30655820D01*
X127429188Y-30775518D01*
X127416928Y-30900000D01*
X113055000Y-30900000D01*
X113055000Y-29483380D01*
X114573381Y-27965000D01*
X135616620Y-27965000D01*
X137135000Y-29483381D01*
%TA.AperFunction,Conductor*%
D17*
G36*
X137135000Y-29483381D02*
G01*
X137135001Y-93706618D01*
X135616620Y-95225000D01*
X97428381Y-95225000D01*
X95910000Y-93706620D01*
X95910000Y-71308665D01*
X98260000Y-71308665D01*
X98260000Y-71591335D01*
X98315147Y-71868574D01*
X98423320Y-72129727D01*
X98580363Y-72364759D01*
X98780241Y-72564637D01*
X99012759Y-72720000D01*
X98780241Y-72875363D01*
X98580363Y-73075241D01*
X98423320Y-73310273D01*
X98315147Y-73571426D01*
X98260000Y-73848665D01*
X98260000Y-74131335D01*
X98315147Y-74408574D01*
X98423320Y-74669727D01*
X98580363Y-74904759D01*
X98780241Y-75104637D01*
X99012759Y-75260000D01*
X98780241Y-75415363D01*
X98580363Y-75615241D01*
X98423320Y-75850273D01*
X98315147Y-76111426D01*
X98260000Y-76388665D01*
X98260000Y-76671335D01*
X98315147Y-76948574D01*
X98423320Y-77209727D01*
X98580363Y-77444759D01*
X98780241Y-77644637D01*
X99012759Y-77800000D01*
X98780241Y-77955363D01*
X98580363Y-78155241D01*
X98423320Y-78390273D01*
X98315147Y-78651426D01*
X98260000Y-78928665D01*
X98260000Y-79211335D01*
X98315147Y-79488574D01*
X98423320Y-79749727D01*
X98580363Y-79984759D01*
X98780241Y-80184637D01*
X99012759Y-80340000D01*
X98780241Y-80495363D01*
X98580363Y-80695241D01*
X98423320Y-80930273D01*
X98315147Y-81191426D01*
X98260000Y-81468665D01*
X98260000Y-81751335D01*
X98315147Y-82028574D01*
X98423320Y-82289727D01*
X98580363Y-82524759D01*
X98780241Y-82724637D01*
X99012759Y-82880000D01*
X98780241Y-83035363D01*
X98580363Y-83235241D01*
X98423320Y-83470273D01*
X98315147Y-83731426D01*
X98260000Y-84008665D01*
X98260000Y-84291335D01*
X98315147Y-84568574D01*
X98423320Y-84829727D01*
X98580363Y-85064759D01*
X98780241Y-85264637D01*
X99012759Y-85420000D01*
X98780241Y-85575363D01*
X98580363Y-85775241D01*
X98423320Y-86010273D01*
X98315147Y-86271426D01*
X98260000Y-86548665D01*
X98260000Y-86831335D01*
X98315147Y-87108574D01*
X98423320Y-87369727D01*
X98580363Y-87604759D01*
X98780241Y-87804637D01*
X99012759Y-87960000D01*
X98780241Y-88115363D01*
X98580363Y-88315241D01*
X98423320Y-88550273D01*
X98315147Y-88811426D01*
X98260000Y-89088665D01*
X98260000Y-89371335D01*
X98315147Y-89648574D01*
X98423320Y-89909727D01*
X98580363Y-90144759D01*
X98780241Y-90344637D01*
X99012759Y-90500000D01*
X98780241Y-90655363D01*
X98580363Y-90855241D01*
X98423320Y-91090273D01*
X98315147Y-91351426D01*
X98260000Y-91628665D01*
X98260000Y-91911335D01*
X98315147Y-92188574D01*
X98423320Y-92449727D01*
X98580363Y-92684759D01*
X98780241Y-92884637D01*
X99015273Y-93041680D01*
X99276426Y-93149853D01*
X99553665Y-93205000D01*
X99836335Y-93205000D01*
X100113574Y-93149853D01*
X100374727Y-93041680D01*
X100609759Y-92884637D01*
X100809637Y-92684759D01*
X100966680Y-92449727D01*
X101074853Y-92188574D01*
X101130000Y-91911335D01*
X101130000Y-91628665D01*
X101074853Y-91351426D01*
X100966680Y-91090273D01*
X100809637Y-90855241D01*
X100609759Y-90655363D01*
X100377241Y-90500000D01*
X100609759Y-90344637D01*
X100809637Y-90144759D01*
X100966680Y-89909727D01*
X101074853Y-89648574D01*
X101130000Y-89371335D01*
X101130000Y-89088665D01*
X101074853Y-88811426D01*
X100966680Y-88550273D01*
X100809637Y-88315241D01*
X100609759Y-88115363D01*
X100377241Y-87960000D01*
X100609759Y-87804637D01*
X100809637Y-87604759D01*
X100966680Y-87369727D01*
X101074853Y-87108574D01*
X101130000Y-86831335D01*
X101130000Y-86548665D01*
X101074853Y-86271426D01*
X100966680Y-86010273D01*
X100809637Y-85775241D01*
X100609759Y-85575363D01*
X100377241Y-85420000D01*
X100609759Y-85264637D01*
X100809637Y-85064759D01*
X100966680Y-84829727D01*
X101074853Y-84568574D01*
X101130000Y-84291335D01*
X101130000Y-84008665D01*
X101074853Y-83731426D01*
X100966680Y-83470273D01*
X100809637Y-83235241D01*
X100609759Y-83035363D01*
X100377241Y-82880000D01*
X100609759Y-82724637D01*
X100809637Y-82524759D01*
X100966680Y-82289727D01*
X101074853Y-82028574D01*
X101130000Y-81751335D01*
X101130000Y-81468665D01*
X101074853Y-81191426D01*
X100966680Y-80930273D01*
X100809637Y-80695241D01*
X100609759Y-80495363D01*
X100377241Y-80340000D01*
X100609759Y-80184637D01*
X100809637Y-79984759D01*
X100966680Y-79749727D01*
X101074853Y-79488574D01*
X101130000Y-79211335D01*
X101130000Y-78928665D01*
X101074853Y-78651426D01*
X100966680Y-78390273D01*
X100809637Y-78155241D01*
X100609759Y-77955363D01*
X100377241Y-77800000D01*
X100609759Y-77644637D01*
X100809637Y-77444759D01*
X100966680Y-77209727D01*
X101074853Y-76948574D01*
X101130000Y-76671335D01*
X101130000Y-76388665D01*
X101074853Y-76111426D01*
X100966680Y-75850273D01*
X100809637Y-75615241D01*
X100609759Y-75415363D01*
X100377241Y-75260000D01*
X100609759Y-75104637D01*
X100809637Y-74904759D01*
X100966680Y-74669727D01*
X101074853Y-74408574D01*
X101130000Y-74131335D01*
X101130000Y-73848665D01*
X101074853Y-73571426D01*
X100966680Y-73310273D01*
X100809637Y-73075241D01*
X100609759Y-72875363D01*
X100377241Y-72720000D01*
X100609759Y-72564637D01*
X100809637Y-72364759D01*
X100966680Y-72129727D01*
X101074853Y-71868574D01*
X101130000Y-71591335D01*
X101130000Y-71308665D01*
X107785000Y-71308665D01*
X107785000Y-71591335D01*
X107840147Y-71868574D01*
X107948320Y-72129727D01*
X108105363Y-72364759D01*
X108305241Y-72564637D01*
X108537759Y-72720000D01*
X108305241Y-72875363D01*
X108105363Y-73075241D01*
X107948320Y-73310273D01*
X107840147Y-73571426D01*
X107785000Y-73848665D01*
X107785000Y-74131335D01*
X107840147Y-74408574D01*
X107948320Y-74669727D01*
X108105363Y-74904759D01*
X108305241Y-75104637D01*
X108537759Y-75260000D01*
X108305241Y-75415363D01*
X108105363Y-75615241D01*
X107948320Y-75850273D01*
X107840147Y-76111426D01*
X107785000Y-76388665D01*
X107785000Y-76671335D01*
X107840147Y-76948574D01*
X107948320Y-77209727D01*
X108105363Y-77444759D01*
X108305241Y-77644637D01*
X108537759Y-77800000D01*
X108305241Y-77955363D01*
X108105363Y-78155241D01*
X107948320Y-78390273D01*
X107840147Y-78651426D01*
X107785000Y-78928665D01*
X107785000Y-79211335D01*
X107840147Y-79488574D01*
X107948320Y-79749727D01*
X108105363Y-79984759D01*
X108305241Y-80184637D01*
X108537759Y-80340000D01*
X108305241Y-80495363D01*
X108105363Y-80695241D01*
X107948320Y-80930273D01*
X107840147Y-81191426D01*
X107785000Y-81468665D01*
X107785000Y-81751335D01*
X107840147Y-82028574D01*
X107948320Y-82289727D01*
X108105363Y-82524759D01*
X108305241Y-82724637D01*
X108537759Y-82880000D01*
X108305241Y-83035363D01*
X108105363Y-83235241D01*
X107948320Y-83470273D01*
X107840147Y-83731426D01*
X107785000Y-84008665D01*
X107785000Y-84291335D01*
X107840147Y-84568574D01*
X107948320Y-84829727D01*
X108105363Y-85064759D01*
X108305241Y-85264637D01*
X108537759Y-85420000D01*
X108305241Y-85575363D01*
X108105363Y-85775241D01*
X107948320Y-86010273D01*
X107840147Y-86271426D01*
X107785000Y-86548665D01*
X107785000Y-86831335D01*
X107840147Y-87108574D01*
X107948320Y-87369727D01*
X108105363Y-87604759D01*
X108305241Y-87804637D01*
X108537759Y-87960000D01*
X108305241Y-88115363D01*
X108105363Y-88315241D01*
X107948320Y-88550273D01*
X107840147Y-88811426D01*
X107785000Y-89088665D01*
X107785000Y-89371335D01*
X107840147Y-89648574D01*
X107948320Y-89909727D01*
X108105363Y-90144759D01*
X108305241Y-90344637D01*
X108537759Y-90500000D01*
X108305241Y-90655363D01*
X108105363Y-90855241D01*
X107948320Y-91090273D01*
X107840147Y-91351426D01*
X107785000Y-91628665D01*
X107785000Y-91911335D01*
X107840147Y-92188574D01*
X107948320Y-92449727D01*
X108105363Y-92684759D01*
X108305241Y-92884637D01*
X108540273Y-93041680D01*
X108801426Y-93149853D01*
X109078665Y-93205000D01*
X109361335Y-93205000D01*
X109638574Y-93149853D01*
X109899727Y-93041680D01*
X110134759Y-92884637D01*
X110334637Y-92684759D01*
X110491680Y-92449727D01*
X110599853Y-92188574D01*
X110655000Y-91911335D01*
X110655000Y-91628665D01*
X110599853Y-91351426D01*
X110491680Y-91090273D01*
X110334637Y-90855241D01*
X110134759Y-90655363D01*
X109902241Y-90500000D01*
X110134759Y-90344637D01*
X110334637Y-90144759D01*
X110491680Y-89909727D01*
X110599853Y-89648574D01*
X110655000Y-89371335D01*
X110655000Y-89088665D01*
X110599853Y-88811426D01*
X110491680Y-88550273D01*
X110334637Y-88315241D01*
X110134759Y-88115363D01*
X109902241Y-87960000D01*
X110134759Y-87804637D01*
X110334637Y-87604759D01*
X110491680Y-87369727D01*
X110599853Y-87108574D01*
X110655000Y-86831335D01*
X110655000Y-86548665D01*
X110599853Y-86271426D01*
X110491680Y-86010273D01*
X110334637Y-85775241D01*
X110134759Y-85575363D01*
X109902241Y-85420000D01*
X110134759Y-85264637D01*
X110334637Y-85064759D01*
X110491680Y-84829727D01*
X110599853Y-84568574D01*
X110655000Y-84291335D01*
X110655000Y-84008665D01*
X110599853Y-83731426D01*
X110491680Y-83470273D01*
X110334637Y-83235241D01*
X110134759Y-83035363D01*
X109902241Y-82880000D01*
X110134759Y-82724637D01*
X110334637Y-82524759D01*
X110491680Y-82289727D01*
X110599853Y-82028574D01*
X110655000Y-81751335D01*
X110655000Y-81468665D01*
X110599853Y-81191426D01*
X110491680Y-80930273D01*
X110334637Y-80695241D01*
X110134759Y-80495363D01*
X109902241Y-80340000D01*
X110134759Y-80184637D01*
X110334637Y-79984759D01*
X110491680Y-79749727D01*
X110599853Y-79488574D01*
X110655000Y-79211335D01*
X110655000Y-78928665D01*
X110599853Y-78651426D01*
X110491680Y-78390273D01*
X110334637Y-78155241D01*
X110134759Y-77955363D01*
X109902241Y-77800000D01*
X110134759Y-77644637D01*
X110334637Y-77444759D01*
X110491680Y-77209727D01*
X110599853Y-76948574D01*
X110655000Y-76671335D01*
X110655000Y-76388665D01*
X110599853Y-76111426D01*
X110491680Y-75850273D01*
X110334637Y-75615241D01*
X110134759Y-75415363D01*
X109902241Y-75260000D01*
X110134759Y-75104637D01*
X110334637Y-74904759D01*
X110491680Y-74669727D01*
X110599853Y-74408574D01*
X110655000Y-74131335D01*
X110655000Y-73848665D01*
X110599853Y-73571426D01*
X110491680Y-73310273D01*
X110334637Y-73075241D01*
X110134759Y-72875363D01*
X109902241Y-72720000D01*
X110134759Y-72564637D01*
X110334637Y-72364759D01*
X110491680Y-72129727D01*
X110599853Y-71868574D01*
X110655000Y-71591335D01*
X110655000Y-71308665D01*
X113500000Y-71308665D01*
X113500000Y-71591335D01*
X113555147Y-71868574D01*
X113663320Y-72129727D01*
X113820363Y-72364759D01*
X114020241Y-72564637D01*
X114252759Y-72720000D01*
X114020241Y-72875363D01*
X113820363Y-73075241D01*
X113663320Y-73310273D01*
X113555147Y-73571426D01*
X113500000Y-73848665D01*
X113500000Y-74131335D01*
X113555147Y-74408574D01*
X113663320Y-74669727D01*
X113820363Y-74904759D01*
X114020241Y-75104637D01*
X114252759Y-75260000D01*
X114020241Y-75415363D01*
X113820363Y-75615241D01*
X113663320Y-75850273D01*
X113555147Y-76111426D01*
X113500000Y-76388665D01*
X113500000Y-76671335D01*
X113555147Y-76948574D01*
X113663320Y-77209727D01*
X113820363Y-77444759D01*
X114020241Y-77644637D01*
X114252759Y-77800000D01*
X114020241Y-77955363D01*
X113820363Y-78155241D01*
X113663320Y-78390273D01*
X113555147Y-78651426D01*
X113500000Y-78928665D01*
X113500000Y-79211335D01*
X113555147Y-79488574D01*
X113663320Y-79749727D01*
X113820363Y-79984759D01*
X114020241Y-80184637D01*
X114252759Y-80340000D01*
X114020241Y-80495363D01*
X113820363Y-80695241D01*
X113663320Y-80930273D01*
X113555147Y-81191426D01*
X113500000Y-81468665D01*
X113500000Y-81751335D01*
X113555147Y-82028574D01*
X113663320Y-82289727D01*
X113820363Y-82524759D01*
X114020241Y-82724637D01*
X114252759Y-82880000D01*
X114020241Y-83035363D01*
X113820363Y-83235241D01*
X113663320Y-83470273D01*
X113555147Y-83731426D01*
X113500000Y-84008665D01*
X113500000Y-84291335D01*
X113555147Y-84568574D01*
X113663320Y-84829727D01*
X113820363Y-85064759D01*
X114020241Y-85264637D01*
X114252759Y-85420000D01*
X114020241Y-85575363D01*
X113820363Y-85775241D01*
X113663320Y-86010273D01*
X113555147Y-86271426D01*
X113500000Y-86548665D01*
X113500000Y-86831335D01*
X113555147Y-87108574D01*
X113663320Y-87369727D01*
X113820363Y-87604759D01*
X114020241Y-87804637D01*
X114252759Y-87960000D01*
X114020241Y-88115363D01*
X113820363Y-88315241D01*
X113663320Y-88550273D01*
X113555147Y-88811426D01*
X113500000Y-89088665D01*
X113500000Y-89371335D01*
X113555147Y-89648574D01*
X113663320Y-89909727D01*
X113820363Y-90144759D01*
X114020241Y-90344637D01*
X114252759Y-90500000D01*
X114020241Y-90655363D01*
X113820363Y-90855241D01*
X113663320Y-91090273D01*
X113555147Y-91351426D01*
X113500000Y-91628665D01*
X113500000Y-91911335D01*
X113555147Y-92188574D01*
X113663320Y-92449727D01*
X113820363Y-92684759D01*
X114020241Y-92884637D01*
X114255273Y-93041680D01*
X114516426Y-93149853D01*
X114793665Y-93205000D01*
X115076335Y-93205000D01*
X115353574Y-93149853D01*
X115614727Y-93041680D01*
X115849759Y-92884637D01*
X116049637Y-92684759D01*
X116206680Y-92449727D01*
X116314853Y-92188574D01*
X116370000Y-91911335D01*
X116370000Y-91628665D01*
X116314853Y-91351426D01*
X116206680Y-91090273D01*
X116049637Y-90855241D01*
X115849759Y-90655363D01*
X115617241Y-90500000D01*
X115849759Y-90344637D01*
X116049637Y-90144759D01*
X116206680Y-89909727D01*
X116314853Y-89648574D01*
X116370000Y-89371335D01*
X116370000Y-89088665D01*
X116314853Y-88811426D01*
X116206680Y-88550273D01*
X116049637Y-88315241D01*
X115849759Y-88115363D01*
X115617241Y-87960000D01*
X115849759Y-87804637D01*
X116049637Y-87604759D01*
X116206680Y-87369727D01*
X116314853Y-87108574D01*
X116370000Y-86831335D01*
X116370000Y-86548665D01*
X116314853Y-86271426D01*
X116206680Y-86010273D01*
X116049637Y-85775241D01*
X115849759Y-85575363D01*
X115617241Y-85420000D01*
X115849759Y-85264637D01*
X116049637Y-85064759D01*
X116206680Y-84829727D01*
X116314853Y-84568574D01*
X116370000Y-84291335D01*
X116370000Y-84008665D01*
X116314853Y-83731426D01*
X116206680Y-83470273D01*
X116049637Y-83235241D01*
X115849759Y-83035363D01*
X115617241Y-82880000D01*
X115849759Y-82724637D01*
X116049637Y-82524759D01*
X116206680Y-82289727D01*
X116314853Y-82028574D01*
X116370000Y-81751335D01*
X116370000Y-81468665D01*
X116314853Y-81191426D01*
X116206680Y-80930273D01*
X116049637Y-80695241D01*
X115849759Y-80495363D01*
X115617241Y-80340000D01*
X115849759Y-80184637D01*
X116049637Y-79984759D01*
X116206680Y-79749727D01*
X116314853Y-79488574D01*
X116370000Y-79211335D01*
X116370000Y-78928665D01*
X116314853Y-78651426D01*
X116206680Y-78390273D01*
X116049637Y-78155241D01*
X115849759Y-77955363D01*
X115617241Y-77800000D01*
X115849759Y-77644637D01*
X116049637Y-77444759D01*
X116206680Y-77209727D01*
X116314853Y-76948574D01*
X116370000Y-76671335D01*
X116370000Y-76388665D01*
X116314853Y-76111426D01*
X116206680Y-75850273D01*
X116049637Y-75615241D01*
X115849759Y-75415363D01*
X115617241Y-75260000D01*
X115849759Y-75104637D01*
X116049637Y-74904759D01*
X116206680Y-74669727D01*
X116314853Y-74408574D01*
X116370000Y-74131335D01*
X116370000Y-73848665D01*
X116314853Y-73571426D01*
X116206680Y-73310273D01*
X116049637Y-73075241D01*
X115849759Y-72875363D01*
X115617241Y-72720000D01*
X115849759Y-72564637D01*
X116049637Y-72364759D01*
X116206680Y-72129727D01*
X116314853Y-71868574D01*
X116370000Y-71591335D01*
X116370000Y-71308665D01*
X117325000Y-71308665D01*
X117325000Y-71591335D01*
X117380147Y-71868574D01*
X117488320Y-72129727D01*
X117645363Y-72364759D01*
X117845241Y-72564637D01*
X118077759Y-72720000D01*
X117845241Y-72875363D01*
X117645363Y-73075241D01*
X117488320Y-73310273D01*
X117380147Y-73571426D01*
X117325000Y-73848665D01*
X117325000Y-74131335D01*
X117380147Y-74408574D01*
X117488320Y-74669727D01*
X117645363Y-74904759D01*
X117845241Y-75104637D01*
X118077759Y-75260000D01*
X117845241Y-75415363D01*
X117645363Y-75615241D01*
X117488320Y-75850273D01*
X117380147Y-76111426D01*
X117325000Y-76388665D01*
X117325000Y-76671335D01*
X117380147Y-76948574D01*
X117488320Y-77209727D01*
X117645363Y-77444759D01*
X117845241Y-77644637D01*
X118077759Y-77800000D01*
X117845241Y-77955363D01*
X117645363Y-78155241D01*
X117488320Y-78390273D01*
X117380147Y-78651426D01*
X117325000Y-78928665D01*
X117325000Y-79211335D01*
X117380147Y-79488574D01*
X117488320Y-79749727D01*
X117645363Y-79984759D01*
X117845241Y-80184637D01*
X118077759Y-80340000D01*
X117845241Y-80495363D01*
X117645363Y-80695241D01*
X117488320Y-80930273D01*
X117380147Y-81191426D01*
X117325000Y-81468665D01*
X117325000Y-81751335D01*
X117380147Y-82028574D01*
X117488320Y-82289727D01*
X117645363Y-82524759D01*
X117845241Y-82724637D01*
X118077759Y-82880000D01*
X117845241Y-83035363D01*
X117645363Y-83235241D01*
X117488320Y-83470273D01*
X117380147Y-83731426D01*
X117325000Y-84008665D01*
X117325000Y-84291335D01*
X117380147Y-84568574D01*
X117488320Y-84829727D01*
X117645363Y-85064759D01*
X117845241Y-85264637D01*
X118077759Y-85420000D01*
X117845241Y-85575363D01*
X117645363Y-85775241D01*
X117488320Y-86010273D01*
X117380147Y-86271426D01*
X117325000Y-86548665D01*
X117325000Y-86831335D01*
X117380147Y-87108574D01*
X117488320Y-87369727D01*
X117645363Y-87604759D01*
X117845241Y-87804637D01*
X118077759Y-87960000D01*
X117845241Y-88115363D01*
X117645363Y-88315241D01*
X117488320Y-88550273D01*
X117380147Y-88811426D01*
X117325000Y-89088665D01*
X117325000Y-89371335D01*
X117380147Y-89648574D01*
X117488320Y-89909727D01*
X117645363Y-90144759D01*
X117845241Y-90344637D01*
X118077759Y-90500000D01*
X117845241Y-90655363D01*
X117645363Y-90855241D01*
X117488320Y-91090273D01*
X117380147Y-91351426D01*
X117325000Y-91628665D01*
X117325000Y-91911335D01*
X117380147Y-92188574D01*
X117488320Y-92449727D01*
X117645363Y-92684759D01*
X117845241Y-92884637D01*
X118080273Y-93041680D01*
X118341426Y-93149853D01*
X118618665Y-93205000D01*
X118901335Y-93205000D01*
X119178574Y-93149853D01*
X119439727Y-93041680D01*
X119674759Y-92884637D01*
X119874637Y-92684759D01*
X120031680Y-92449727D01*
X120139853Y-92188574D01*
X120195000Y-91911335D01*
X120195000Y-91628665D01*
X120139853Y-91351426D01*
X120031680Y-91090273D01*
X119874637Y-90855241D01*
X119674759Y-90655363D01*
X119442241Y-90500000D01*
X119674759Y-90344637D01*
X119874637Y-90144759D01*
X120031680Y-89909727D01*
X120139853Y-89648574D01*
X120195000Y-89371335D01*
X120195000Y-89088665D01*
X120139853Y-88811426D01*
X120031680Y-88550273D01*
X119874637Y-88315241D01*
X119674759Y-88115363D01*
X119442241Y-87960000D01*
X119674759Y-87804637D01*
X119874637Y-87604759D01*
X120031680Y-87369727D01*
X120139853Y-87108574D01*
X120195000Y-86831335D01*
X120195000Y-86548665D01*
X120139853Y-86271426D01*
X120031680Y-86010273D01*
X119874637Y-85775241D01*
X119674759Y-85575363D01*
X119442241Y-85420000D01*
X119674759Y-85264637D01*
X119874637Y-85064759D01*
X120031680Y-84829727D01*
X120139853Y-84568574D01*
X120195000Y-84291335D01*
X120195000Y-84008665D01*
X120139853Y-83731426D01*
X120031680Y-83470273D01*
X119874637Y-83235241D01*
X119674759Y-83035363D01*
X119442241Y-82880000D01*
X119674759Y-82724637D01*
X119874637Y-82524759D01*
X120031680Y-82289727D01*
X120139853Y-82028574D01*
X120195000Y-81751335D01*
X120195000Y-81468665D01*
X120139853Y-81191426D01*
X120031680Y-80930273D01*
X119874637Y-80695241D01*
X119674759Y-80495363D01*
X119442241Y-80340000D01*
X119674759Y-80184637D01*
X119874637Y-79984759D01*
X120031680Y-79749727D01*
X120139853Y-79488574D01*
X120195000Y-79211335D01*
X120195000Y-78928665D01*
X120139853Y-78651426D01*
X120031680Y-78390273D01*
X119874637Y-78155241D01*
X119674759Y-77955363D01*
X119442241Y-77800000D01*
X119674759Y-77644637D01*
X119874637Y-77444759D01*
X120031680Y-77209727D01*
X120139853Y-76948574D01*
X120195000Y-76671335D01*
X120195000Y-76388665D01*
X120139853Y-76111426D01*
X120031680Y-75850273D01*
X119874637Y-75615241D01*
X119674759Y-75415363D01*
X119442241Y-75260000D01*
X119674759Y-75104637D01*
X119874637Y-74904759D01*
X120031680Y-74669727D01*
X120139853Y-74408574D01*
X120195000Y-74131335D01*
X120195000Y-73848665D01*
X120139853Y-73571426D01*
X120031680Y-73310273D01*
X119874637Y-73075241D01*
X119674759Y-72875363D01*
X119442241Y-72720000D01*
X119674759Y-72564637D01*
X119874637Y-72364759D01*
X120031680Y-72129727D01*
X120139853Y-71868574D01*
X120195000Y-71591335D01*
X120195000Y-71308665D01*
X123025000Y-71308665D01*
X123025000Y-71591335D01*
X123080147Y-71868574D01*
X123188320Y-72129727D01*
X123345363Y-72364759D01*
X123545241Y-72564637D01*
X123777759Y-72720000D01*
X123545241Y-72875363D01*
X123345363Y-73075241D01*
X123188320Y-73310273D01*
X123080147Y-73571426D01*
X123025000Y-73848665D01*
X123025000Y-74131335D01*
X123080147Y-74408574D01*
X123188320Y-74669727D01*
X123345363Y-74904759D01*
X123545241Y-75104637D01*
X123777759Y-75260000D01*
X123545241Y-75415363D01*
X123345363Y-75615241D01*
X123188320Y-75850273D01*
X123080147Y-76111426D01*
X123025000Y-76388665D01*
X123025000Y-76671335D01*
X123080147Y-76948574D01*
X123188320Y-77209727D01*
X123345363Y-77444759D01*
X123545241Y-77644637D01*
X123777759Y-77800000D01*
X123545241Y-77955363D01*
X123345363Y-78155241D01*
X123188320Y-78390273D01*
X123080147Y-78651426D01*
X123025000Y-78928665D01*
X123025000Y-79211335D01*
X123080147Y-79488574D01*
X123188320Y-79749727D01*
X123345363Y-79984759D01*
X123545241Y-80184637D01*
X123777759Y-80340000D01*
X123545241Y-80495363D01*
X123345363Y-80695241D01*
X123188320Y-80930273D01*
X123080147Y-81191426D01*
X123025000Y-81468665D01*
X123025000Y-81751335D01*
X123080147Y-82028574D01*
X123188320Y-82289727D01*
X123345363Y-82524759D01*
X123545241Y-82724637D01*
X123777759Y-82880000D01*
X123545241Y-83035363D01*
X123345363Y-83235241D01*
X123188320Y-83470273D01*
X123080147Y-83731426D01*
X123025000Y-84008665D01*
X123025000Y-84291335D01*
X123080147Y-84568574D01*
X123188320Y-84829727D01*
X123345363Y-85064759D01*
X123545241Y-85264637D01*
X123777759Y-85420000D01*
X123545241Y-85575363D01*
X123345363Y-85775241D01*
X123188320Y-86010273D01*
X123080147Y-86271426D01*
X123025000Y-86548665D01*
X123025000Y-86831335D01*
X123080147Y-87108574D01*
X123188320Y-87369727D01*
X123345363Y-87604759D01*
X123545241Y-87804637D01*
X123777759Y-87960000D01*
X123545241Y-88115363D01*
X123345363Y-88315241D01*
X123188320Y-88550273D01*
X123080147Y-88811426D01*
X123025000Y-89088665D01*
X123025000Y-89371335D01*
X123080147Y-89648574D01*
X123188320Y-89909727D01*
X123345363Y-90144759D01*
X123545241Y-90344637D01*
X123777759Y-90500000D01*
X123545241Y-90655363D01*
X123345363Y-90855241D01*
X123188320Y-91090273D01*
X123080147Y-91351426D01*
X123025000Y-91628665D01*
X123025000Y-91911335D01*
X123080147Y-92188574D01*
X123188320Y-92449727D01*
X123345363Y-92684759D01*
X123545241Y-92884637D01*
X123780273Y-93041680D01*
X124041426Y-93149853D01*
X124318665Y-93205000D01*
X124601335Y-93205000D01*
X124878574Y-93149853D01*
X125139727Y-93041680D01*
X125374759Y-92884637D01*
X125574637Y-92684759D01*
X125731680Y-92449727D01*
X125839853Y-92188574D01*
X125895000Y-91911335D01*
X125895000Y-91628665D01*
X125839853Y-91351426D01*
X125731680Y-91090273D01*
X125574637Y-90855241D01*
X125374759Y-90655363D01*
X125142241Y-90500000D01*
X125374759Y-90344637D01*
X125574637Y-90144759D01*
X125731680Y-89909727D01*
X125839853Y-89648574D01*
X125895000Y-89371335D01*
X125895000Y-89088665D01*
X125839853Y-88811426D01*
X125731680Y-88550273D01*
X125574637Y-88315241D01*
X125374759Y-88115363D01*
X125142241Y-87960000D01*
X125374759Y-87804637D01*
X125574637Y-87604759D01*
X125731680Y-87369727D01*
X125839853Y-87108574D01*
X125895000Y-86831335D01*
X125895000Y-86548665D01*
X125839853Y-86271426D01*
X125731680Y-86010273D01*
X125574637Y-85775241D01*
X125374759Y-85575363D01*
X125142241Y-85420000D01*
X125374759Y-85264637D01*
X125574637Y-85064759D01*
X125731680Y-84829727D01*
X125839853Y-84568574D01*
X125895000Y-84291335D01*
X125895000Y-84008665D01*
X125839853Y-83731426D01*
X125731680Y-83470273D01*
X125574637Y-83235241D01*
X125374759Y-83035363D01*
X125142241Y-82880000D01*
X125374759Y-82724637D01*
X125574637Y-82524759D01*
X125731680Y-82289727D01*
X125839853Y-82028574D01*
X125895000Y-81751335D01*
X125895000Y-81468665D01*
X125839853Y-81191426D01*
X125731680Y-80930273D01*
X125574637Y-80695241D01*
X125374759Y-80495363D01*
X125142241Y-80340000D01*
X125374759Y-80184637D01*
X125574637Y-79984759D01*
X125731680Y-79749727D01*
X125839853Y-79488574D01*
X125895000Y-79211335D01*
X125895000Y-78928665D01*
X125839853Y-78651426D01*
X125731680Y-78390273D01*
X125574637Y-78155241D01*
X125374759Y-77955363D01*
X125142241Y-77800000D01*
X125374759Y-77644637D01*
X125574637Y-77444759D01*
X125731680Y-77209727D01*
X125839853Y-76948574D01*
X125895000Y-76671335D01*
X125895000Y-76388665D01*
X125839853Y-76111426D01*
X125731680Y-75850273D01*
X125574637Y-75615241D01*
X125374759Y-75415363D01*
X125142241Y-75260000D01*
X125374759Y-75104637D01*
X125574637Y-74904759D01*
X125731680Y-74669727D01*
X125839853Y-74408574D01*
X125895000Y-74131335D01*
X125895000Y-73848665D01*
X125839853Y-73571426D01*
X125731680Y-73310273D01*
X125574637Y-73075241D01*
X125374759Y-72875363D01*
X125142241Y-72720000D01*
X125374759Y-72564637D01*
X125574637Y-72364759D01*
X125731680Y-72129727D01*
X125839853Y-71868574D01*
X125895000Y-71591335D01*
X125895000Y-71308665D01*
X132565000Y-71308665D01*
X132565000Y-71591335D01*
X132620147Y-71868574D01*
X132728320Y-72129727D01*
X132885363Y-72364759D01*
X133085241Y-72564637D01*
X133317759Y-72720000D01*
X133085241Y-72875363D01*
X132885363Y-73075241D01*
X132728320Y-73310273D01*
X132620147Y-73571426D01*
X132565000Y-73848665D01*
X132565000Y-74131335D01*
X132620147Y-74408574D01*
X132728320Y-74669727D01*
X132885363Y-74904759D01*
X133085241Y-75104637D01*
X133317759Y-75260000D01*
X133085241Y-75415363D01*
X132885363Y-75615241D01*
X132728320Y-75850273D01*
X132620147Y-76111426D01*
X132565000Y-76388665D01*
X132565000Y-76671335D01*
X132620147Y-76948574D01*
X132728320Y-77209727D01*
X132885363Y-77444759D01*
X133085241Y-77644637D01*
X133317759Y-77800000D01*
X133085241Y-77955363D01*
X132885363Y-78155241D01*
X132728320Y-78390273D01*
X132620147Y-78651426D01*
X132565000Y-78928665D01*
X132565000Y-79211335D01*
X132620147Y-79488574D01*
X132728320Y-79749727D01*
X132885363Y-79984759D01*
X133085241Y-80184637D01*
X133317759Y-80340000D01*
X133085241Y-80495363D01*
X132885363Y-80695241D01*
X132728320Y-80930273D01*
X132620147Y-81191426D01*
X132565000Y-81468665D01*
X132565000Y-81751335D01*
X132620147Y-82028574D01*
X132728320Y-82289727D01*
X132885363Y-82524759D01*
X133085241Y-82724637D01*
X133317759Y-82880000D01*
X133085241Y-83035363D01*
X132885363Y-83235241D01*
X132728320Y-83470273D01*
X132620147Y-83731426D01*
X132565000Y-84008665D01*
X132565000Y-84291335D01*
X132620147Y-84568574D01*
X132728320Y-84829727D01*
X132885363Y-85064759D01*
X133085241Y-85264637D01*
X133317759Y-85420000D01*
X133085241Y-85575363D01*
X132885363Y-85775241D01*
X132728320Y-86010273D01*
X132620147Y-86271426D01*
X132565000Y-86548665D01*
X132565000Y-86831335D01*
X132620147Y-87108574D01*
X132728320Y-87369727D01*
X132885363Y-87604759D01*
X133085241Y-87804637D01*
X133317759Y-87960000D01*
X133085241Y-88115363D01*
X132885363Y-88315241D01*
X132728320Y-88550273D01*
X132620147Y-88811426D01*
X132565000Y-89088665D01*
X132565000Y-89371335D01*
X132620147Y-89648574D01*
X132728320Y-89909727D01*
X132885363Y-90144759D01*
X133085241Y-90344637D01*
X133317759Y-90500000D01*
X133085241Y-90655363D01*
X132885363Y-90855241D01*
X132728320Y-91090273D01*
X132620147Y-91351426D01*
X132565000Y-91628665D01*
X132565000Y-91911335D01*
X132620147Y-92188574D01*
X132728320Y-92449727D01*
X132885363Y-92684759D01*
X133085241Y-92884637D01*
X133320273Y-93041680D01*
X133581426Y-93149853D01*
X133858665Y-93205000D01*
X134141335Y-93205000D01*
X134418574Y-93149853D01*
X134679727Y-93041680D01*
X134914759Y-92884637D01*
X135114637Y-92684759D01*
X135271680Y-92449727D01*
X135379853Y-92188574D01*
X135435000Y-91911335D01*
X135435000Y-91628665D01*
X135379853Y-91351426D01*
X135271680Y-91090273D01*
X135114637Y-90855241D01*
X134914759Y-90655363D01*
X134682241Y-90500000D01*
X134914759Y-90344637D01*
X135114637Y-90144759D01*
X135271680Y-89909727D01*
X135379853Y-89648574D01*
X135435000Y-89371335D01*
X135435000Y-89088665D01*
X135379853Y-88811426D01*
X135271680Y-88550273D01*
X135114637Y-88315241D01*
X134914759Y-88115363D01*
X134682241Y-87960000D01*
X134914759Y-87804637D01*
X135114637Y-87604759D01*
X135271680Y-87369727D01*
X135379853Y-87108574D01*
X135435000Y-86831335D01*
X135435000Y-86548665D01*
X135379853Y-86271426D01*
X135271680Y-86010273D01*
X135114637Y-85775241D01*
X134914759Y-85575363D01*
X134682241Y-85420000D01*
X134914759Y-85264637D01*
X135114637Y-85064759D01*
X135271680Y-84829727D01*
X135379853Y-84568574D01*
X135435000Y-84291335D01*
X135435000Y-84008665D01*
X135379853Y-83731426D01*
X135271680Y-83470273D01*
X135114637Y-83235241D01*
X134914759Y-83035363D01*
X134682241Y-82880000D01*
X134914759Y-82724637D01*
X135114637Y-82524759D01*
X135271680Y-82289727D01*
X135379853Y-82028574D01*
X135435000Y-81751335D01*
X135435000Y-81468665D01*
X135379853Y-81191426D01*
X135271680Y-80930273D01*
X135114637Y-80695241D01*
X134914759Y-80495363D01*
X134682241Y-80340000D01*
X134914759Y-80184637D01*
X135114637Y-79984759D01*
X135271680Y-79749727D01*
X135379853Y-79488574D01*
X135435000Y-79211335D01*
X135435000Y-78928665D01*
X135379853Y-78651426D01*
X135271680Y-78390273D01*
X135114637Y-78155241D01*
X134914759Y-77955363D01*
X134682241Y-77800000D01*
X134914759Y-77644637D01*
X135114637Y-77444759D01*
X135271680Y-77209727D01*
X135379853Y-76948574D01*
X135435000Y-76671335D01*
X135435000Y-76388665D01*
X135379853Y-76111426D01*
X135271680Y-75850273D01*
X135114637Y-75615241D01*
X134914759Y-75415363D01*
X134682241Y-75260000D01*
X134914759Y-75104637D01*
X135114637Y-74904759D01*
X135271680Y-74669727D01*
X135379853Y-74408574D01*
X135435000Y-74131335D01*
X135435000Y-73848665D01*
X135379853Y-73571426D01*
X135271680Y-73310273D01*
X135114637Y-73075241D01*
X134914759Y-72875363D01*
X134682241Y-72720000D01*
X134914759Y-72564637D01*
X135114637Y-72364759D01*
X135271680Y-72129727D01*
X135379853Y-71868574D01*
X135435000Y-71591335D01*
X135435000Y-71308665D01*
X135379853Y-71031426D01*
X135271680Y-70770273D01*
X135114637Y-70535241D01*
X134914759Y-70335363D01*
X134679727Y-70178320D01*
X134669135Y-70173933D01*
X134855131Y-70062385D01*
X135063519Y-69873414D01*
X135231037Y-69647420D01*
X135351246Y-69393087D01*
X135391904Y-69259039D01*
X135269915Y-69037000D01*
X134127000Y-69037000D01*
X134127000Y-69057000D01*
X133873000Y-69057000D01*
X133873000Y-69037000D01*
X132730085Y-69037000D01*
X132608096Y-69259039D01*
X132648754Y-69393087D01*
X132768963Y-69647420D01*
X132936481Y-69873414D01*
X133144869Y-70062385D01*
X133330865Y-70173933D01*
X133320273Y-70178320D01*
X133085241Y-70335363D01*
X132885363Y-70535241D01*
X132728320Y-70770273D01*
X132620147Y-71031426D01*
X132565000Y-71308665D01*
X125895000Y-71308665D01*
X125839853Y-71031426D01*
X125731680Y-70770273D01*
X125574637Y-70535241D01*
X125374759Y-70335363D01*
X125139727Y-70178320D01*
X125129135Y-70173933D01*
X125315131Y-70062385D01*
X125523519Y-69873414D01*
X125691037Y-69647420D01*
X125811246Y-69393087D01*
X125851904Y-69259039D01*
X125729915Y-69037000D01*
X124587000Y-69037000D01*
X124587000Y-69057000D01*
X124333000Y-69057000D01*
X124333000Y-69037000D01*
X123190085Y-69037000D01*
X123068096Y-69259039D01*
X123108754Y-69393087D01*
X123228963Y-69647420D01*
X123396481Y-69873414D01*
X123604869Y-70062385D01*
X123790865Y-70173933D01*
X123780273Y-70178320D01*
X123545241Y-70335363D01*
X123345363Y-70535241D01*
X123188320Y-70770273D01*
X123080147Y-71031426D01*
X123025000Y-71308665D01*
X120195000Y-71308665D01*
X120139853Y-71031426D01*
X120031680Y-70770273D01*
X119874637Y-70535241D01*
X119674759Y-70335363D01*
X119439727Y-70178320D01*
X119429135Y-70173933D01*
X119615131Y-70062385D01*
X119823519Y-69873414D01*
X119991037Y-69647420D01*
X120111246Y-69393087D01*
X120151904Y-69259039D01*
X120029915Y-69037000D01*
X118887000Y-69037000D01*
X118887000Y-69057000D01*
X118633000Y-69057000D01*
X118633000Y-69037000D01*
X117490085Y-69037000D01*
X117368096Y-69259039D01*
X117408754Y-69393087D01*
X117528963Y-69647420D01*
X117696481Y-69873414D01*
X117904869Y-70062385D01*
X118090865Y-70173933D01*
X118080273Y-70178320D01*
X117845241Y-70335363D01*
X117645363Y-70535241D01*
X117488320Y-70770273D01*
X117380147Y-71031426D01*
X117325000Y-71308665D01*
X116370000Y-71308665D01*
X116314853Y-71031426D01*
X116206680Y-70770273D01*
X116049637Y-70535241D01*
X115849759Y-70335363D01*
X115614727Y-70178320D01*
X115604135Y-70173933D01*
X115790131Y-70062385D01*
X115998519Y-69873414D01*
X116166037Y-69647420D01*
X116286246Y-69393087D01*
X116326904Y-69259039D01*
X116204915Y-69037000D01*
X115062000Y-69037000D01*
X115062000Y-69057000D01*
X114808000Y-69057000D01*
X114808000Y-69037000D01*
X113665085Y-69037000D01*
X113543096Y-69259039D01*
X113583754Y-69393087D01*
X113703963Y-69647420D01*
X113871481Y-69873414D01*
X114079869Y-70062385D01*
X114265865Y-70173933D01*
X114255273Y-70178320D01*
X114020241Y-70335363D01*
X113820363Y-70535241D01*
X113663320Y-70770273D01*
X113555147Y-71031426D01*
X113500000Y-71308665D01*
X110655000Y-71308665D01*
X110599853Y-71031426D01*
X110491680Y-70770273D01*
X110334637Y-70535241D01*
X110134759Y-70335363D01*
X109899727Y-70178320D01*
X109889135Y-70173933D01*
X110075131Y-70062385D01*
X110283519Y-69873414D01*
X110451037Y-69647420D01*
X110571246Y-69393087D01*
X110611904Y-69259039D01*
X110489915Y-69037000D01*
X109347000Y-69037000D01*
X109347000Y-69057000D01*
X109093000Y-69057000D01*
X109093000Y-69037000D01*
X107950085Y-69037000D01*
X107828096Y-69259039D01*
X107868754Y-69393087D01*
X107988963Y-69647420D01*
X108156481Y-69873414D01*
X108364869Y-70062385D01*
X108550865Y-70173933D01*
X108540273Y-70178320D01*
X108305241Y-70335363D01*
X108105363Y-70535241D01*
X107948320Y-70770273D01*
X107840147Y-71031426D01*
X107785000Y-71308665D01*
X101130000Y-71308665D01*
X101074853Y-71031426D01*
X100966680Y-70770273D01*
X100809637Y-70535241D01*
X100609759Y-70335363D01*
X100374727Y-70178320D01*
X100364135Y-70173933D01*
X100550131Y-70062385D01*
X100758519Y-69873414D01*
X100926037Y-69647420D01*
X101046246Y-69393087D01*
X101086904Y-69259039D01*
X100964915Y-69037000D01*
X99822000Y-69037000D01*
X99822000Y-69057000D01*
X99568000Y-69057000D01*
X99568000Y-69037000D01*
X98425085Y-69037000D01*
X98303096Y-69259039D01*
X98343754Y-69393087D01*
X98463963Y-69647420D01*
X98631481Y-69873414D01*
X98839869Y-70062385D01*
X99025865Y-70173933D01*
X99015273Y-70178320D01*
X98780241Y-70335363D01*
X98580363Y-70535241D01*
X98423320Y-70770273D01*
X98315147Y-71031426D01*
X98260000Y-71308665D01*
X95910000Y-71308665D01*
X95910000Y-40170000D01*
X98256928Y-40170000D01*
X98256928Y-41770000D01*
X98269188Y-41894482D01*
X98305498Y-42014180D01*
X98364463Y-42124494D01*
X98443815Y-42221185D01*
X98540506Y-42300537D01*
X98650820Y-42359502D01*
X98770518Y-42395812D01*
X98778961Y-42396643D01*
X98580363Y-42595241D01*
X98423320Y-42830273D01*
X98315147Y-43091426D01*
X98260000Y-43368665D01*
X98260000Y-43651335D01*
X98315147Y-43928574D01*
X98423320Y-44189727D01*
X98580363Y-44424759D01*
X98780241Y-44624637D01*
X99012759Y-44780000D01*
X98780241Y-44935363D01*
X98580363Y-45135241D01*
X98423320Y-45370273D01*
X98315147Y-45631426D01*
X98260000Y-45908665D01*
X98260000Y-46191335D01*
X98315147Y-46468574D01*
X98423320Y-46729727D01*
X98580363Y-46964759D01*
X98780241Y-47164637D01*
X99012759Y-47320000D01*
X98780241Y-47475363D01*
X98580363Y-47675241D01*
X98423320Y-47910273D01*
X98315147Y-48171426D01*
X98260000Y-48448665D01*
X98260000Y-48731335D01*
X98315147Y-49008574D01*
X98423320Y-49269727D01*
X98580363Y-49504759D01*
X98780241Y-49704637D01*
X99012759Y-49860000D01*
X98780241Y-50015363D01*
X98580363Y-50215241D01*
X98423320Y-50450273D01*
X98315147Y-50711426D01*
X98260000Y-50988665D01*
X98260000Y-51271335D01*
X98315147Y-51548574D01*
X98423320Y-51809727D01*
X98580363Y-52044759D01*
X98780241Y-52244637D01*
X99012759Y-52400000D01*
X98780241Y-52555363D01*
X98580363Y-52755241D01*
X98423320Y-52990273D01*
X98315147Y-53251426D01*
X98260000Y-53528665D01*
X98260000Y-53811335D01*
X98315147Y-54088574D01*
X98423320Y-54349727D01*
X98580363Y-54584759D01*
X98780241Y-54784637D01*
X99012759Y-54940000D01*
X98780241Y-55095363D01*
X98580363Y-55295241D01*
X98423320Y-55530273D01*
X98315147Y-55791426D01*
X98260000Y-56068665D01*
X98260000Y-56351335D01*
X98315147Y-56628574D01*
X98423320Y-56889727D01*
X98580363Y-57124759D01*
X98780241Y-57324637D01*
X99012759Y-57480000D01*
X98780241Y-57635363D01*
X98580363Y-57835241D01*
X98423320Y-58070273D01*
X98315147Y-58331426D01*
X98260000Y-58608665D01*
X98260000Y-58891335D01*
X98315147Y-59168574D01*
X98423320Y-59429727D01*
X98580363Y-59664759D01*
X98780241Y-59864637D01*
X99012759Y-60020000D01*
X98780241Y-60175363D01*
X98580363Y-60375241D01*
X98423320Y-60610273D01*
X98315147Y-60871426D01*
X98260000Y-61148665D01*
X98260000Y-61431335D01*
X98315147Y-61708574D01*
X98423320Y-61969727D01*
X98580363Y-62204759D01*
X98780241Y-62404637D01*
X99012759Y-62560000D01*
X98780241Y-62715363D01*
X98580363Y-62915241D01*
X98423320Y-63150273D01*
X98315147Y-63411426D01*
X98260000Y-63688665D01*
X98260000Y-63971335D01*
X98315147Y-64248574D01*
X98423320Y-64509727D01*
X98580363Y-64744759D01*
X98780241Y-64944637D01*
X99012759Y-65100000D01*
X98780241Y-65255363D01*
X98580363Y-65455241D01*
X98423320Y-65690273D01*
X98315147Y-65951426D01*
X98260000Y-66228665D01*
X98260000Y-66511335D01*
X98315147Y-66788574D01*
X98423320Y-67049727D01*
X98580363Y-67284759D01*
X98780241Y-67484637D01*
X99015273Y-67641680D01*
X99025865Y-67646067D01*
X98839869Y-67757615D01*
X98631481Y-67946586D01*
X98463963Y-68172580D01*
X98343754Y-68426913D01*
X98303096Y-68560961D01*
X98425085Y-68783000D01*
X99568000Y-68783000D01*
X99568000Y-68763000D01*
X99822000Y-68763000D01*
X99822000Y-68783000D01*
X100964915Y-68783000D01*
X101086904Y-68560961D01*
X101046246Y-68426913D01*
X100926037Y-68172580D01*
X100758519Y-67946586D01*
X100550131Y-67757615D01*
X100364135Y-67646067D01*
X100374727Y-67641680D01*
X100609759Y-67484637D01*
X100809637Y-67284759D01*
X100913043Y-67130000D01*
X105042678Y-67130000D01*
X105080000Y-67133676D01*
X105117322Y-67130000D01*
X105117333Y-67130000D01*
X105228986Y-67119003D01*
X105372247Y-67075546D01*
X105504276Y-67004974D01*
X105620001Y-66910001D01*
X105643804Y-66880998D01*
X106519803Y-66004999D01*
X107829491Y-66004999D01*
X107785000Y-66228665D01*
X107785000Y-66511335D01*
X107840147Y-66788574D01*
X107948320Y-67049727D01*
X108105363Y-67284759D01*
X108305241Y-67484637D01*
X108540273Y-67641680D01*
X108550865Y-67646067D01*
X108364869Y-67757615D01*
X108156481Y-67946586D01*
X107988963Y-68172580D01*
X107868754Y-68426913D01*
X107828096Y-68560961D01*
X107950085Y-68783000D01*
X109093000Y-68783000D01*
X109093000Y-68763000D01*
X109347000Y-68763000D01*
X109347000Y-68783000D01*
X110489915Y-68783000D01*
X110611904Y-68560961D01*
X110571246Y-68426913D01*
X110451037Y-68172580D01*
X110283519Y-67946586D01*
X110075131Y-67757615D01*
X109889135Y-67646067D01*
X109899727Y-67641680D01*
X110134759Y-67484637D01*
X110334637Y-67284759D01*
X110438043Y-67130000D01*
X112027678Y-67130000D01*
X112065000Y-67133676D01*
X112102322Y-67130000D01*
X112102333Y-67130000D01*
X112213986Y-67119003D01*
X112357247Y-67075546D01*
X112489276Y-67004974D01*
X112605001Y-66910001D01*
X112628804Y-66880998D01*
X113504803Y-66004999D01*
X113544491Y-66004999D01*
X113500000Y-66228665D01*
X113500000Y-66511335D01*
X113555147Y-66788574D01*
X113663320Y-67049727D01*
X113820363Y-67284759D01*
X114020241Y-67484637D01*
X114255273Y-67641680D01*
X114265865Y-67646067D01*
X114079869Y-67757615D01*
X113871481Y-67946586D01*
X113703963Y-68172580D01*
X113583754Y-68426913D01*
X113543096Y-68560961D01*
X113665085Y-68783000D01*
X114808000Y-68783000D01*
X114808000Y-68763000D01*
X115062000Y-68763000D01*
X115062000Y-68783000D01*
X116204915Y-68783000D01*
X116326904Y-68560961D01*
X116286246Y-68426913D01*
X116166037Y-68172580D01*
X115998519Y-67946586D01*
X115790131Y-67757615D01*
X115604135Y-67646067D01*
X115614727Y-67641680D01*
X115849759Y-67484637D01*
X116049637Y-67284759D01*
X116206680Y-67049727D01*
X116314853Y-66788574D01*
X116370000Y-66511335D01*
X116370000Y-66228665D01*
X116325509Y-66004999D01*
X117369491Y-66004999D01*
X117325000Y-66228665D01*
X117325000Y-66511335D01*
X117380147Y-66788574D01*
X117488320Y-67049727D01*
X117645363Y-67284759D01*
X117845241Y-67484637D01*
X118080273Y-67641680D01*
X118090865Y-67646067D01*
X117904869Y-67757615D01*
X117696481Y-67946586D01*
X117528963Y-68172580D01*
X117408754Y-68426913D01*
X117368096Y-68560961D01*
X117490085Y-68783000D01*
X118633000Y-68783000D01*
X118633000Y-68763000D01*
X118887000Y-68763000D01*
X118887000Y-68783000D01*
X120029915Y-68783000D01*
X120151904Y-68560961D01*
X120111246Y-68426913D01*
X119991037Y-68172580D01*
X119823519Y-67946586D01*
X119615131Y-67757615D01*
X119429135Y-67646067D01*
X119439727Y-67641680D01*
X119674759Y-67484637D01*
X119874637Y-67284759D01*
X119978043Y-67130000D01*
X120917678Y-67130000D01*
X120955000Y-67133676D01*
X120992322Y-67130000D01*
X120992333Y-67130000D01*
X121103986Y-67119003D01*
X121247247Y-67075546D01*
X121379276Y-67004974D01*
X121495001Y-66910001D01*
X121518804Y-66880997D01*
X123066004Y-65333798D01*
X123095001Y-65310001D01*
X123189974Y-65194276D01*
X123260546Y-65062247D01*
X123304003Y-64918986D01*
X123315000Y-64807333D01*
X123315000Y-64807325D01*
X123318676Y-64770000D01*
X123315000Y-64732675D01*
X123315000Y-64699317D01*
X123345363Y-64744759D01*
X123545241Y-64944637D01*
X123777759Y-65100000D01*
X123545241Y-65255363D01*
X123345363Y-65455241D01*
X123188320Y-65690273D01*
X123080147Y-65951426D01*
X123025000Y-66228665D01*
X123025000Y-66511335D01*
X123080147Y-66788574D01*
X123188320Y-67049727D01*
X123345363Y-67284759D01*
X123545241Y-67484637D01*
X123780273Y-67641680D01*
X123790865Y-67646067D01*
X123604869Y-67757615D01*
X123396481Y-67946586D01*
X123228963Y-68172580D01*
X123108754Y-68426913D01*
X123068096Y-68560961D01*
X123190085Y-68783000D01*
X124333000Y-68783000D01*
X124333000Y-68763000D01*
X124587000Y-68763000D01*
X124587000Y-68783000D01*
X125729915Y-68783000D01*
X125851904Y-68560961D01*
X125811246Y-68426913D01*
X125691037Y-68172580D01*
X125523519Y-67946586D01*
X125315131Y-67757615D01*
X125129135Y-67646067D01*
X125139727Y-67641680D01*
X125374759Y-67484637D01*
X125574637Y-67284759D01*
X125731680Y-67049727D01*
X125839853Y-66788574D01*
X125895000Y-66511335D01*
X125895000Y-66228665D01*
X125839853Y-65951426D01*
X125731680Y-65690273D01*
X125574637Y-65455241D01*
X125374759Y-65255363D01*
X125142241Y-65100000D01*
X125374759Y-64944637D01*
X125574637Y-64744759D01*
X125731680Y-64509727D01*
X125839853Y-64248574D01*
X125895000Y-63971335D01*
X125895000Y-63688665D01*
X125839853Y-63411426D01*
X125731680Y-63150273D01*
X125574637Y-62915241D01*
X125374759Y-62715363D01*
X125142241Y-62560000D01*
X125374759Y-62404637D01*
X125574637Y-62204759D01*
X125731680Y-61969727D01*
X125839853Y-61708574D01*
X125895000Y-61431335D01*
X125895000Y-61148665D01*
X125839853Y-60871426D01*
X125731680Y-60610273D01*
X125574637Y-60375241D01*
X125374759Y-60175363D01*
X125142241Y-60020000D01*
X125374759Y-59864637D01*
X125574637Y-59664759D01*
X125731680Y-59429727D01*
X125839853Y-59168574D01*
X125895000Y-58891335D01*
X125895000Y-58608665D01*
X125839853Y-58331426D01*
X125731680Y-58070273D01*
X125574637Y-57835241D01*
X125374759Y-57635363D01*
X125142241Y-57480000D01*
X125374759Y-57324637D01*
X125574637Y-57124759D01*
X125731680Y-56889727D01*
X125839853Y-56628574D01*
X125895000Y-56351335D01*
X125895000Y-56068665D01*
X125839853Y-55791426D01*
X125731680Y-55530273D01*
X125574637Y-55295241D01*
X125374759Y-55095363D01*
X125142241Y-54940000D01*
X125374759Y-54784637D01*
X125574637Y-54584759D01*
X125731680Y-54349727D01*
X125839853Y-54088574D01*
X125895000Y-53811335D01*
X125895000Y-53528665D01*
X125839853Y-53251426D01*
X125731680Y-52990273D01*
X125574637Y-52755241D01*
X125374759Y-52555363D01*
X125142241Y-52400000D01*
X125374759Y-52244637D01*
X125574637Y-52044759D01*
X125731680Y-51809727D01*
X125839853Y-51548574D01*
X125895000Y-51271335D01*
X125895000Y-50988665D01*
X125839853Y-50711426D01*
X125731680Y-50450273D01*
X125574637Y-50215241D01*
X125374759Y-50015363D01*
X125142241Y-49860000D01*
X125374759Y-49704637D01*
X125574637Y-49504759D01*
X125731680Y-49269727D01*
X125839853Y-49008574D01*
X125895000Y-48731335D01*
X125895000Y-48448665D01*
X125839853Y-48171426D01*
X125731680Y-47910273D01*
X125574637Y-47675241D01*
X125374759Y-47475363D01*
X125142241Y-47320000D01*
X125374759Y-47164637D01*
X125574637Y-46964759D01*
X125731680Y-46729727D01*
X125839853Y-46468574D01*
X125895000Y-46191335D01*
X125895000Y-45908665D01*
X125839853Y-45631426D01*
X125731680Y-45370273D01*
X125574637Y-45135241D01*
X125374759Y-44935363D01*
X125142241Y-44780000D01*
X125374759Y-44624637D01*
X125574637Y-44424759D01*
X125731680Y-44189727D01*
X125839853Y-43928574D01*
X125895000Y-43651335D01*
X125895000Y-43368665D01*
X125839853Y-43091426D01*
X125731680Y-42830273D01*
X125574637Y-42595241D01*
X125374759Y-42395363D01*
X125142241Y-42240000D01*
X125374759Y-42084637D01*
X125574637Y-41884759D01*
X125731680Y-41649727D01*
X125839853Y-41388574D01*
X125895000Y-41111335D01*
X125895000Y-40828665D01*
X132565000Y-40828665D01*
X132565000Y-41111335D01*
X132620147Y-41388574D01*
X132728320Y-41649727D01*
X132885363Y-41884759D01*
X133085241Y-42084637D01*
X133317759Y-42240000D01*
X133085241Y-42395363D01*
X132885363Y-42595241D01*
X132728320Y-42830273D01*
X132620147Y-43091426D01*
X132565000Y-43368665D01*
X132565000Y-43651335D01*
X132620147Y-43928574D01*
X132728320Y-44189727D01*
X132885363Y-44424759D01*
X133085241Y-44624637D01*
X133317759Y-44780000D01*
X133085241Y-44935363D01*
X132885363Y-45135241D01*
X132728320Y-45370273D01*
X132620147Y-45631426D01*
X132565000Y-45908665D01*
X132565000Y-46191335D01*
X132620147Y-46468574D01*
X132728320Y-46729727D01*
X132885363Y-46964759D01*
X133085241Y-47164637D01*
X133317759Y-47320000D01*
X133085241Y-47475363D01*
X132885363Y-47675241D01*
X132728320Y-47910273D01*
X132620147Y-48171426D01*
X132565000Y-48448665D01*
X132565000Y-48731335D01*
X132620147Y-49008574D01*
X132728320Y-49269727D01*
X132885363Y-49504759D01*
X133085241Y-49704637D01*
X133317759Y-49860000D01*
X133085241Y-50015363D01*
X132885363Y-50215241D01*
X132728320Y-50450273D01*
X132620147Y-50711426D01*
X132565000Y-50988665D01*
X132565000Y-51271335D01*
X132620147Y-51548574D01*
X132728320Y-51809727D01*
X132885363Y-52044759D01*
X133085241Y-52244637D01*
X133317759Y-52400000D01*
X133085241Y-52555363D01*
X132885363Y-52755241D01*
X132728320Y-52990273D01*
X132620147Y-53251426D01*
X132565000Y-53528665D01*
X132565000Y-53811335D01*
X132620147Y-54088574D01*
X132728320Y-54349727D01*
X132885363Y-54584759D01*
X133085241Y-54784637D01*
X133317759Y-54940000D01*
X133085241Y-55095363D01*
X132885363Y-55295241D01*
X132728320Y-55530273D01*
X132620147Y-55791426D01*
X132565000Y-56068665D01*
X132565000Y-56351335D01*
X132620147Y-56628574D01*
X132728320Y-56889727D01*
X132885363Y-57124759D01*
X133085241Y-57324637D01*
X133317759Y-57480000D01*
X133085241Y-57635363D01*
X132885363Y-57835241D01*
X132728320Y-58070273D01*
X132620147Y-58331426D01*
X132565000Y-58608665D01*
X132565000Y-58891335D01*
X132620147Y-59168574D01*
X132728320Y-59429727D01*
X132885363Y-59664759D01*
X133085241Y-59864637D01*
X133317759Y-60020000D01*
X133085241Y-60175363D01*
X132885363Y-60375241D01*
X132728320Y-60610273D01*
X132620147Y-60871426D01*
X132565000Y-61148665D01*
X132565000Y-61431335D01*
X132620147Y-61708574D01*
X132728320Y-61969727D01*
X132885363Y-62204759D01*
X133085241Y-62404637D01*
X133317759Y-62560000D01*
X133085241Y-62715363D01*
X132885363Y-62915241D01*
X132728320Y-63150273D01*
X132620147Y-63411426D01*
X132565000Y-63688665D01*
X132565000Y-63971335D01*
X132620147Y-64248574D01*
X132728320Y-64509727D01*
X132885363Y-64744759D01*
X133085241Y-64944637D01*
X133317759Y-65100000D01*
X133085241Y-65255363D01*
X132885363Y-65455241D01*
X132728320Y-65690273D01*
X132620147Y-65951426D01*
X132565000Y-66228665D01*
X132565000Y-66511335D01*
X132620147Y-66788574D01*
X132728320Y-67049727D01*
X132885363Y-67284759D01*
X133085241Y-67484637D01*
X133320273Y-67641680D01*
X133330865Y-67646067D01*
X133144869Y-67757615D01*
X132936481Y-67946586D01*
X132768963Y-68172580D01*
X132648754Y-68426913D01*
X132608096Y-68560961D01*
X132730085Y-68783000D01*
X133873000Y-68783000D01*
X133873000Y-68763000D01*
X134127000Y-68763000D01*
X134127000Y-68783000D01*
X135269915Y-68783000D01*
X135391904Y-68560961D01*
X135351246Y-68426913D01*
X135231037Y-68172580D01*
X135063519Y-67946586D01*
X134855131Y-67757615D01*
X134669135Y-67646067D01*
X134679727Y-67641680D01*
X134914759Y-67484637D01*
X135114637Y-67284759D01*
X135271680Y-67049727D01*
X135379853Y-66788574D01*
X135435000Y-66511335D01*
X135435000Y-66228665D01*
X135379853Y-65951426D01*
X135271680Y-65690273D01*
X135114637Y-65455241D01*
X134914759Y-65255363D01*
X134682241Y-65100000D01*
X134914759Y-64944637D01*
X135114637Y-64744759D01*
X135271680Y-64509727D01*
X135379853Y-64248574D01*
X135435000Y-63971335D01*
X135435000Y-63688665D01*
X135379853Y-63411426D01*
X135271680Y-63150273D01*
X135114637Y-62915241D01*
X134914759Y-62715363D01*
X134682241Y-62560000D01*
X134914759Y-62404637D01*
X135114637Y-62204759D01*
X135271680Y-61969727D01*
X135379853Y-61708574D01*
X135435000Y-61431335D01*
X135435000Y-61148665D01*
X135379853Y-60871426D01*
X135271680Y-60610273D01*
X135114637Y-60375241D01*
X134914759Y-60175363D01*
X134682241Y-60020000D01*
X134914759Y-59864637D01*
X135114637Y-59664759D01*
X135271680Y-59429727D01*
X135379853Y-59168574D01*
X135435000Y-58891335D01*
X135435000Y-58608665D01*
X135379853Y-58331426D01*
X135271680Y-58070273D01*
X135114637Y-57835241D01*
X134914759Y-57635363D01*
X134682241Y-57480000D01*
X134914759Y-57324637D01*
X135114637Y-57124759D01*
X135271680Y-56889727D01*
X135379853Y-56628574D01*
X135435000Y-56351335D01*
X135435000Y-56068665D01*
X135379853Y-55791426D01*
X135271680Y-55530273D01*
X135114637Y-55295241D01*
X134914759Y-55095363D01*
X134682241Y-54940000D01*
X134914759Y-54784637D01*
X135114637Y-54584759D01*
X135271680Y-54349727D01*
X135379853Y-54088574D01*
X135435000Y-53811335D01*
X135435000Y-53528665D01*
X135379853Y-53251426D01*
X135271680Y-52990273D01*
X135114637Y-52755241D01*
X134914759Y-52555363D01*
X134682241Y-52400000D01*
X134914759Y-52244637D01*
X135114637Y-52044759D01*
X135271680Y-51809727D01*
X135379853Y-51548574D01*
X135435000Y-51271335D01*
X135435000Y-50988665D01*
X135379853Y-50711426D01*
X135271680Y-50450273D01*
X135114637Y-50215241D01*
X134914759Y-50015363D01*
X134682241Y-49860000D01*
X134914759Y-49704637D01*
X135114637Y-49504759D01*
X135271680Y-49269727D01*
X135379853Y-49008574D01*
X135435000Y-48731335D01*
X135435000Y-48448665D01*
X135379853Y-48171426D01*
X135271680Y-47910273D01*
X135114637Y-47675241D01*
X134914759Y-47475363D01*
X134682241Y-47320000D01*
X134914759Y-47164637D01*
X135114637Y-46964759D01*
X135271680Y-46729727D01*
X135379853Y-46468574D01*
X135435000Y-46191335D01*
X135435000Y-45908665D01*
X135379853Y-45631426D01*
X135271680Y-45370273D01*
X135114637Y-45135241D01*
X134914759Y-44935363D01*
X134682241Y-44780000D01*
X134914759Y-44624637D01*
X135114637Y-44424759D01*
X135271680Y-44189727D01*
X135379853Y-43928574D01*
X135435000Y-43651335D01*
X135435000Y-43368665D01*
X135379853Y-43091426D01*
X135271680Y-42830273D01*
X135114637Y-42595241D01*
X134914759Y-42395363D01*
X134682241Y-42240000D01*
X134914759Y-42084637D01*
X135114637Y-41884759D01*
X135271680Y-41649727D01*
X135379853Y-41388574D01*
X135435000Y-41111335D01*
X135435000Y-40828665D01*
X135379853Y-40551426D01*
X135271680Y-40290273D01*
X135114637Y-40055241D01*
X134914759Y-39855363D01*
X134679727Y-39698320D01*
X134418574Y-39590147D01*
X134141335Y-39535000D01*
X133858665Y-39535000D01*
X133581426Y-39590147D01*
X133320273Y-39698320D01*
X133085241Y-39855363D01*
X132885363Y-40055241D01*
X132728320Y-40290273D01*
X132620147Y-40551426D01*
X132565000Y-40828665D01*
X125895000Y-40828665D01*
X125839853Y-40551426D01*
X125731680Y-40290273D01*
X125574637Y-40055241D01*
X125374759Y-39855363D01*
X125139727Y-39698320D01*
X124878574Y-39590147D01*
X124601335Y-39535000D01*
X124318665Y-39535000D01*
X124045456Y-39589345D01*
X125606009Y-38028794D01*
X125635001Y-38005001D01*
X125658795Y-37976008D01*
X125658799Y-37976004D01*
X125729973Y-37889277D01*
X125729974Y-37889276D01*
X125800546Y-37757247D01*
X125844003Y-37613986D01*
X125855000Y-37502333D01*
X125855000Y-37502324D01*
X125858676Y-37465001D01*
X125855000Y-37427678D01*
X125855000Y-34358711D01*
X125898937Y-34314774D01*
X126012205Y-34145256D01*
X126090226Y-33956898D01*
X126130000Y-33756939D01*
X126130000Y-33553061D01*
X126090226Y-33353102D01*
X126012205Y-33164744D01*
X125898937Y-32995226D01*
X125754774Y-32851063D01*
X125585256Y-32737795D01*
X125396898Y-32659774D01*
X125196939Y-32620000D01*
X124993061Y-32620000D01*
X124793102Y-32659774D01*
X124604744Y-32737795D01*
X124435226Y-32851063D01*
X124291063Y-32995226D01*
X124177795Y-33164744D01*
X124124160Y-33294229D01*
X123926939Y-33255000D01*
X123723061Y-33255000D01*
X123523102Y-33294774D01*
X123334744Y-33372795D01*
X123165226Y-33486063D01*
X123121289Y-33530000D01*
X118178711Y-33530000D01*
X118134774Y-33486063D01*
X117965256Y-33372795D01*
X117776898Y-33294774D01*
X117576939Y-33255000D01*
X117373061Y-33255000D01*
X117173102Y-33294774D01*
X116984744Y-33372795D01*
X116815226Y-33486063D01*
X116671063Y-33630226D01*
X116557795Y-33799744D01*
X116479774Y-33988102D01*
X116440000Y-34188061D01*
X116440000Y-34391939D01*
X116479774Y-34591898D01*
X116557795Y-34780256D01*
X116671063Y-34949774D01*
X116815226Y-35093937D01*
X116984744Y-35207205D01*
X117173102Y-35285226D01*
X117373061Y-35325000D01*
X117576939Y-35325000D01*
X117776898Y-35285226D01*
X117965256Y-35207205D01*
X118134774Y-35093937D01*
X118178711Y-35050000D01*
X123121289Y-35050000D01*
X123165226Y-35093937D01*
X123334744Y-35207205D01*
X123523102Y-35285226D01*
X123723061Y-35325000D01*
X123926939Y-35325000D01*
X124126898Y-35285226D01*
X124315256Y-35207205D01*
X124335001Y-35194012D01*
X124335000Y-37150197D01*
X122045000Y-39440199D01*
X122045000Y-39438711D01*
X122088937Y-39394774D01*
X122202205Y-39225256D01*
X122280226Y-39036898D01*
X122320000Y-38836939D01*
X122320000Y-38633061D01*
X122280226Y-38433102D01*
X122202205Y-38244744D01*
X122088937Y-38075226D01*
X121944774Y-37931063D01*
X121775256Y-37817795D01*
X121586898Y-37739774D01*
X121386939Y-37700000D01*
X121183061Y-37700000D01*
X120983102Y-37739774D01*
X120794744Y-37817795D01*
X120625226Y-37931063D01*
X120481063Y-38075226D01*
X120367795Y-38244744D01*
X120289774Y-38433102D01*
X120250000Y-38633061D01*
X120250000Y-38836939D01*
X120289774Y-39036898D01*
X120367795Y-39225256D01*
X120481063Y-39394774D01*
X120525001Y-39438712D01*
X120525000Y-63820198D01*
X120150587Y-64194612D01*
X120195000Y-63971335D01*
X120195000Y-63688665D01*
X120139853Y-63411426D01*
X120031680Y-63150273D01*
X119874637Y-62915241D01*
X119674759Y-62715363D01*
X119442241Y-62560000D01*
X119674759Y-62404637D01*
X119874637Y-62204759D01*
X120031680Y-61969727D01*
X120139853Y-61708574D01*
X120195000Y-61431335D01*
X120195000Y-61148665D01*
X120139853Y-60871426D01*
X120031680Y-60610273D01*
X119874637Y-60375241D01*
X119674759Y-60175363D01*
X119442241Y-60020000D01*
X119674759Y-59864637D01*
X119874637Y-59664759D01*
X120031680Y-59429727D01*
X120139853Y-59168574D01*
X120195000Y-58891335D01*
X120195000Y-58608665D01*
X120139853Y-58331426D01*
X120031680Y-58070273D01*
X119874637Y-57835241D01*
X119674759Y-57635363D01*
X119442241Y-57480000D01*
X119674759Y-57324637D01*
X119874637Y-57124759D01*
X120031680Y-56889727D01*
X120139853Y-56628574D01*
X120195000Y-56351335D01*
X120195000Y-56068665D01*
X120139853Y-55791426D01*
X120031680Y-55530273D01*
X119874637Y-55295241D01*
X119674759Y-55095363D01*
X119442241Y-54940000D01*
X119674759Y-54784637D01*
X119874637Y-54584759D01*
X120031680Y-54349727D01*
X120139853Y-54088574D01*
X120195000Y-53811335D01*
X120195000Y-53528665D01*
X120139853Y-53251426D01*
X120031680Y-52990273D01*
X119874637Y-52755241D01*
X119674759Y-52555363D01*
X119442241Y-52400000D01*
X119674759Y-52244637D01*
X119874637Y-52044759D01*
X120031680Y-51809727D01*
X120139853Y-51548574D01*
X120195000Y-51271335D01*
X120195000Y-50988665D01*
X120139853Y-50711426D01*
X120031680Y-50450273D01*
X119874637Y-50215241D01*
X119674759Y-50015363D01*
X119442241Y-49860000D01*
X119674759Y-49704637D01*
X119874637Y-49504759D01*
X120031680Y-49269727D01*
X120139853Y-49008574D01*
X120195000Y-48731335D01*
X120195000Y-48448665D01*
X120139853Y-48171426D01*
X120031680Y-47910273D01*
X119874637Y-47675241D01*
X119674759Y-47475363D01*
X119442241Y-47320000D01*
X119674759Y-47164637D01*
X119874637Y-46964759D01*
X120031680Y-46729727D01*
X120139853Y-46468574D01*
X120195000Y-46191335D01*
X120195000Y-45908665D01*
X120139853Y-45631426D01*
X120031680Y-45370273D01*
X119874637Y-45135241D01*
X119674759Y-44935363D01*
X119442241Y-44780000D01*
X119674759Y-44624637D01*
X119874637Y-44424759D01*
X120031680Y-44189727D01*
X120139853Y-43928574D01*
X120195000Y-43651335D01*
X120195000Y-43368665D01*
X120139853Y-43091426D01*
X120031680Y-42830273D01*
X119874637Y-42595241D01*
X119676039Y-42396643D01*
X119684482Y-42395812D01*
X119804180Y-42359502D01*
X119914494Y-42300537D01*
X120011185Y-42221185D01*
X120090537Y-42124494D01*
X120149502Y-42014180D01*
X120185812Y-41894482D01*
X120198072Y-41770000D01*
X120198072Y-40170000D01*
X120185812Y-40045518D01*
X120149502Y-39925820D01*
X120090537Y-39815506D01*
X120011185Y-39718815D01*
X119914494Y-39639463D01*
X119804180Y-39580498D01*
X119684482Y-39544188D01*
X119560000Y-39531928D01*
X117960000Y-39531928D01*
X117835518Y-39544188D01*
X117715820Y-39580498D01*
X117605506Y-39639463D01*
X117508815Y-39718815D01*
X117429463Y-39815506D01*
X117370498Y-39925820D01*
X117334188Y-40045518D01*
X117321928Y-40170000D01*
X117321928Y-41770000D01*
X117334188Y-41894482D01*
X117370498Y-42014180D01*
X117429463Y-42124494D01*
X117508815Y-42221185D01*
X117605506Y-42300537D01*
X117715820Y-42359502D01*
X117835518Y-42395812D01*
X117843961Y-42396643D01*
X117645363Y-42595241D01*
X117488320Y-42830273D01*
X117380147Y-43091426D01*
X117325000Y-43368665D01*
X117325000Y-43651335D01*
X117380147Y-43928574D01*
X117488320Y-44189727D01*
X117645363Y-44424759D01*
X117845241Y-44624637D01*
X118077759Y-44780000D01*
X117845241Y-44935363D01*
X117645363Y-45135241D01*
X117488320Y-45370273D01*
X117380147Y-45631426D01*
X117325000Y-45908665D01*
X117325000Y-46191335D01*
X117380147Y-46468574D01*
X117488320Y-46729727D01*
X117645363Y-46964759D01*
X117845241Y-47164637D01*
X118077759Y-47320000D01*
X117845241Y-47475363D01*
X117645363Y-47675241D01*
X117488320Y-47910273D01*
X117380147Y-48171426D01*
X117325000Y-48448665D01*
X117325000Y-48731335D01*
X117380147Y-49008574D01*
X117488320Y-49269727D01*
X117645363Y-49504759D01*
X117845241Y-49704637D01*
X118077759Y-49860000D01*
X117845241Y-50015363D01*
X117645363Y-50215241D01*
X117488320Y-50450273D01*
X117380147Y-50711426D01*
X117325000Y-50988665D01*
X117325000Y-51271335D01*
X117380147Y-51548574D01*
X117488320Y-51809727D01*
X117645363Y-52044759D01*
X117845241Y-52244637D01*
X118077759Y-52400000D01*
X117845241Y-52555363D01*
X117645363Y-52755241D01*
X117488320Y-52990273D01*
X117380147Y-53251426D01*
X117325000Y-53528665D01*
X117325000Y-53811335D01*
X117380147Y-54088574D01*
X117488320Y-54349727D01*
X117645363Y-54584759D01*
X117845241Y-54784637D01*
X118077759Y-54940000D01*
X117845241Y-55095363D01*
X117645363Y-55295241D01*
X117488320Y-55530273D01*
X117380147Y-55791426D01*
X117325000Y-56068665D01*
X117325000Y-56351335D01*
X117380147Y-56628574D01*
X117488320Y-56889727D01*
X117645363Y-57124759D01*
X117845241Y-57324637D01*
X118077759Y-57480000D01*
X117845241Y-57635363D01*
X117645363Y-57835241D01*
X117488320Y-58070273D01*
X117380147Y-58331426D01*
X117325000Y-58608665D01*
X117325000Y-58891335D01*
X117380147Y-59168574D01*
X117488320Y-59429727D01*
X117645363Y-59664759D01*
X117845241Y-59864637D01*
X118077759Y-60020000D01*
X117845241Y-60175363D01*
X117645363Y-60375241D01*
X117488320Y-60610273D01*
X117380147Y-60871426D01*
X117325000Y-61148665D01*
X117325000Y-61431335D01*
X117380147Y-61708574D01*
X117488320Y-61969727D01*
X117645363Y-62204759D01*
X117845241Y-62404637D01*
X118077759Y-62560000D01*
X117845241Y-62715363D01*
X117645363Y-62915241D01*
X117488320Y-63150273D01*
X117380147Y-63411426D01*
X117325000Y-63688665D01*
X117325000Y-63971335D01*
X117380147Y-64248574D01*
X117478077Y-64484999D01*
X116216923Y-64484999D01*
X116314853Y-64248574D01*
X116370000Y-63971335D01*
X116370000Y-63688665D01*
X116314853Y-63411426D01*
X116206680Y-63150273D01*
X116049637Y-62915241D01*
X115849759Y-62715363D01*
X115617241Y-62560000D01*
X115849759Y-62404637D01*
X116049637Y-62204759D01*
X116206680Y-61969727D01*
X116314853Y-61708574D01*
X116370000Y-61431335D01*
X116370000Y-61148665D01*
X116314853Y-60871426D01*
X116206680Y-60610273D01*
X116049637Y-60375241D01*
X115849759Y-60175363D01*
X115617241Y-60020000D01*
X115849759Y-59864637D01*
X116049637Y-59664759D01*
X116206680Y-59429727D01*
X116314853Y-59168574D01*
X116370000Y-58891335D01*
X116370000Y-58608665D01*
X116314853Y-58331426D01*
X116206680Y-58070273D01*
X116049637Y-57835241D01*
X115849759Y-57635363D01*
X115617241Y-57480000D01*
X115849759Y-57324637D01*
X116049637Y-57124759D01*
X116206680Y-56889727D01*
X116314853Y-56628574D01*
X116370000Y-56351335D01*
X116370000Y-56068665D01*
X116314853Y-55791426D01*
X116206680Y-55530273D01*
X116049637Y-55295241D01*
X115849759Y-55095363D01*
X115617241Y-54940000D01*
X115849759Y-54784637D01*
X116049637Y-54584759D01*
X116206680Y-54349727D01*
X116314853Y-54088574D01*
X116370000Y-53811335D01*
X116370000Y-53528665D01*
X116314853Y-53251426D01*
X116206680Y-52990273D01*
X116049637Y-52755241D01*
X115849759Y-52555363D01*
X115617241Y-52400000D01*
X115849759Y-52244637D01*
X116049637Y-52044759D01*
X116206680Y-51809727D01*
X116314853Y-51548574D01*
X116370000Y-51271335D01*
X116370000Y-50988665D01*
X116314853Y-50711426D01*
X116206680Y-50450273D01*
X116049637Y-50215241D01*
X115849759Y-50015363D01*
X115617241Y-49860000D01*
X115849759Y-49704637D01*
X116049637Y-49504759D01*
X116206680Y-49269727D01*
X116314853Y-49008574D01*
X116370000Y-48731335D01*
X116370000Y-48448665D01*
X116314853Y-48171426D01*
X116206680Y-47910273D01*
X116049637Y-47675241D01*
X115849759Y-47475363D01*
X115617241Y-47320000D01*
X115849759Y-47164637D01*
X116049637Y-46964759D01*
X116206680Y-46729727D01*
X116314853Y-46468574D01*
X116370000Y-46191335D01*
X116370000Y-45908665D01*
X116314853Y-45631426D01*
X116206680Y-45370273D01*
X116049637Y-45135241D01*
X115849759Y-44935363D01*
X115617241Y-44780000D01*
X115849759Y-44624637D01*
X116049637Y-44424759D01*
X116206680Y-44189727D01*
X116314853Y-43928574D01*
X116370000Y-43651335D01*
X116370000Y-43368665D01*
X116314853Y-43091426D01*
X116206680Y-42830273D01*
X116049637Y-42595241D01*
X115849759Y-42395363D01*
X115617241Y-42240000D01*
X115849759Y-42084637D01*
X116049637Y-41884759D01*
X116206680Y-41649727D01*
X116314853Y-41388574D01*
X116370000Y-41111335D01*
X116370000Y-40828665D01*
X116314853Y-40551426D01*
X116206680Y-40290273D01*
X116049637Y-40055241D01*
X115849759Y-39855363D01*
X115614727Y-39698320D01*
X115353574Y-39590147D01*
X115076335Y-39535000D01*
X114793665Y-39535000D01*
X114516426Y-39590147D01*
X114255273Y-39698320D01*
X114020241Y-39855363D01*
X113820363Y-40055241D01*
X113663320Y-40290273D01*
X113555147Y-40551426D01*
X113500000Y-40828665D01*
X113500000Y-41111335D01*
X113555147Y-41388574D01*
X113663320Y-41649727D01*
X113820363Y-41884759D01*
X114020241Y-42084637D01*
X114252759Y-42240000D01*
X114020241Y-42395363D01*
X113820363Y-42595241D01*
X113663320Y-42830273D01*
X113555147Y-43091426D01*
X113500000Y-43368665D01*
X113500000Y-43651335D01*
X113555147Y-43928574D01*
X113663320Y-44189727D01*
X113820363Y-44424759D01*
X114020241Y-44624637D01*
X114252759Y-44780000D01*
X114020241Y-44935363D01*
X113820363Y-45135241D01*
X113663320Y-45370273D01*
X113555147Y-45631426D01*
X113500000Y-45908665D01*
X113500000Y-46191335D01*
X113555147Y-46468574D01*
X113663320Y-46729727D01*
X113820363Y-46964759D01*
X114020241Y-47164637D01*
X114252759Y-47320000D01*
X114020241Y-47475363D01*
X113820363Y-47675241D01*
X113663320Y-47910273D01*
X113555147Y-48171426D01*
X113500000Y-48448665D01*
X113500000Y-48731335D01*
X113555147Y-49008574D01*
X113663320Y-49269727D01*
X113820363Y-49504759D01*
X114020241Y-49704637D01*
X114252759Y-49860000D01*
X114020241Y-50015363D01*
X113820363Y-50215241D01*
X113663320Y-50450273D01*
X113555147Y-50711426D01*
X113500000Y-50988665D01*
X113500000Y-51271335D01*
X113555147Y-51548574D01*
X113663320Y-51809727D01*
X113820363Y-52044759D01*
X114020241Y-52244637D01*
X114252759Y-52400000D01*
X114020241Y-52555363D01*
X113820363Y-52755241D01*
X113663320Y-52990273D01*
X113555147Y-53251426D01*
X113500000Y-53528665D01*
X113500000Y-53811335D01*
X113555147Y-54088574D01*
X113663320Y-54349727D01*
X113820363Y-54584759D01*
X114020241Y-54784637D01*
X114252759Y-54940000D01*
X114020241Y-55095363D01*
X113820363Y-55295241D01*
X113663320Y-55530273D01*
X113555147Y-55791426D01*
X113500000Y-56068665D01*
X113500000Y-56351335D01*
X113555147Y-56628574D01*
X113663320Y-56889727D01*
X113820363Y-57124759D01*
X114020241Y-57324637D01*
X114252759Y-57480000D01*
X114020241Y-57635363D01*
X113820363Y-57835241D01*
X113663320Y-58070273D01*
X113555147Y-58331426D01*
X113500000Y-58608665D01*
X113500000Y-58891335D01*
X113555147Y-59168574D01*
X113663320Y-59429727D01*
X113820363Y-59664759D01*
X114020241Y-59864637D01*
X114252759Y-60020000D01*
X114020241Y-60175363D01*
X113820363Y-60375241D01*
X113663320Y-60610273D01*
X113555147Y-60871426D01*
X113500000Y-61148665D01*
X113500000Y-61431335D01*
X113555147Y-61708574D01*
X113663320Y-61969727D01*
X113820363Y-62204759D01*
X114020241Y-62404637D01*
X114252759Y-62560000D01*
X114020241Y-62715363D01*
X113820363Y-62915241D01*
X113663320Y-63150273D01*
X113555147Y-63411426D01*
X113500000Y-63688665D01*
X113500000Y-63971335D01*
X113555147Y-64248574D01*
X113653077Y-64484999D01*
X113227326Y-64484999D01*
X113190001Y-64481323D01*
X113152676Y-64484999D01*
X113152668Y-64484999D01*
X113065064Y-64493627D01*
X113100546Y-64427247D01*
X113144003Y-64283986D01*
X113155000Y-64172333D01*
X113155000Y-64172325D01*
X113158676Y-64135000D01*
X113155000Y-64097675D01*
X113155000Y-40319801D01*
X114339802Y-39135000D01*
X114401939Y-39135000D01*
X114601898Y-39095226D01*
X114790256Y-39017205D01*
X114959774Y-38903937D01*
X115103937Y-38759774D01*
X115217205Y-38590256D01*
X115295226Y-38401898D01*
X115335000Y-38201939D01*
X115335000Y-37998061D01*
X115295226Y-37798102D01*
X115217205Y-37609744D01*
X115103937Y-37440226D01*
X114959774Y-37296063D01*
X114790256Y-37182795D01*
X114601898Y-37104774D01*
X114401939Y-37065000D01*
X114198061Y-37065000D01*
X113998102Y-37104774D01*
X113809744Y-37182795D01*
X113640226Y-37296063D01*
X113496063Y-37440226D01*
X113382795Y-37609744D01*
X113304774Y-37798102D01*
X113265000Y-37998061D01*
X113265000Y-38060198D01*
X111883998Y-39441201D01*
X111855000Y-39464999D01*
X111831202Y-39493997D01*
X111831201Y-39493998D01*
X111760026Y-39580724D01*
X111689454Y-39712754D01*
X111659180Y-39812558D01*
X111645998Y-39856014D01*
X111639123Y-39925820D01*
X111631324Y-40005000D01*
X111635001Y-40042333D01*
X111635000Y-63820198D01*
X110970200Y-64484999D01*
X110501923Y-64484999D01*
X110599853Y-64248574D01*
X110655000Y-63971335D01*
X110655000Y-63688665D01*
X110599853Y-63411426D01*
X110491680Y-63150273D01*
X110334637Y-62915241D01*
X110134759Y-62715363D01*
X109902241Y-62560000D01*
X110134759Y-62404637D01*
X110334637Y-62204759D01*
X110491680Y-61969727D01*
X110599853Y-61708574D01*
X110655000Y-61431335D01*
X110655000Y-61148665D01*
X110599853Y-60871426D01*
X110491680Y-60610273D01*
X110334637Y-60375241D01*
X110134759Y-60175363D01*
X109902241Y-60020000D01*
X110134759Y-59864637D01*
X110334637Y-59664759D01*
X110491680Y-59429727D01*
X110599853Y-59168574D01*
X110655000Y-58891335D01*
X110655000Y-58608665D01*
X110599853Y-58331426D01*
X110491680Y-58070273D01*
X110334637Y-57835241D01*
X110134759Y-57635363D01*
X109902241Y-57480000D01*
X110134759Y-57324637D01*
X110334637Y-57124759D01*
X110491680Y-56889727D01*
X110599853Y-56628574D01*
X110655000Y-56351335D01*
X110655000Y-56068665D01*
X110599853Y-55791426D01*
X110491680Y-55530273D01*
X110334637Y-55295241D01*
X110134759Y-55095363D01*
X109902241Y-54940000D01*
X110134759Y-54784637D01*
X110334637Y-54584759D01*
X110491680Y-54349727D01*
X110599853Y-54088574D01*
X110655000Y-53811335D01*
X110655000Y-53528665D01*
X110599853Y-53251426D01*
X110491680Y-52990273D01*
X110334637Y-52755241D01*
X110134759Y-52555363D01*
X109902241Y-52400000D01*
X110134759Y-52244637D01*
X110334637Y-52044759D01*
X110491680Y-51809727D01*
X110599853Y-51548574D01*
X110655000Y-51271335D01*
X110655000Y-50988665D01*
X110599853Y-50711426D01*
X110491680Y-50450273D01*
X110334637Y-50215241D01*
X110134759Y-50015363D01*
X109902241Y-49860000D01*
X110134759Y-49704637D01*
X110334637Y-49504759D01*
X110491680Y-49269727D01*
X110599853Y-49008574D01*
X110655000Y-48731335D01*
X110655000Y-48448665D01*
X110599853Y-48171426D01*
X110491680Y-47910273D01*
X110334637Y-47675241D01*
X110134759Y-47475363D01*
X109902241Y-47320000D01*
X110134759Y-47164637D01*
X110334637Y-46964759D01*
X110491680Y-46729727D01*
X110599853Y-46468574D01*
X110655000Y-46191335D01*
X110655000Y-45908665D01*
X110599853Y-45631426D01*
X110491680Y-45370273D01*
X110334637Y-45135241D01*
X110134759Y-44935363D01*
X109902241Y-44780000D01*
X110134759Y-44624637D01*
X110334637Y-44424759D01*
X110491680Y-44189727D01*
X110599853Y-43928574D01*
X110655000Y-43651335D01*
X110655000Y-43368665D01*
X110599853Y-43091426D01*
X110491680Y-42830273D01*
X110334637Y-42595241D01*
X110136039Y-42396643D01*
X110144482Y-42395812D01*
X110264180Y-42359502D01*
X110374494Y-42300537D01*
X110471185Y-42221185D01*
X110550537Y-42124494D01*
X110609502Y-42014180D01*
X110645812Y-41894482D01*
X110658072Y-41770000D01*
X110658072Y-40170000D01*
X110645812Y-40045518D01*
X110609502Y-39925820D01*
X110550537Y-39815506D01*
X110471185Y-39718815D01*
X110374494Y-39639463D01*
X110264180Y-39580498D01*
X110144482Y-39544188D01*
X110020000Y-39531928D01*
X108420000Y-39531928D01*
X108295518Y-39544188D01*
X108175820Y-39580498D01*
X108065506Y-39639463D01*
X107968815Y-39718815D01*
X107889463Y-39815506D01*
X107830498Y-39925820D01*
X107794188Y-40045518D01*
X107781928Y-40170000D01*
X107781928Y-41770000D01*
X107794188Y-41894482D01*
X107830498Y-42014180D01*
X107889463Y-42124494D01*
X107968815Y-42221185D01*
X108065506Y-42300537D01*
X108175820Y-42359502D01*
X108295518Y-42395812D01*
X108303961Y-42396643D01*
X108105363Y-42595241D01*
X107948320Y-42830273D01*
X107840147Y-43091426D01*
X107785000Y-43368665D01*
X107785000Y-43651335D01*
X107840147Y-43928574D01*
X107948320Y-44189727D01*
X108105363Y-44424759D01*
X108305241Y-44624637D01*
X108537759Y-44780000D01*
X108305241Y-44935363D01*
X108105363Y-45135241D01*
X107948320Y-45370273D01*
X107840147Y-45631426D01*
X107785000Y-45908665D01*
X107785000Y-46191335D01*
X107840147Y-46468574D01*
X107948320Y-46729727D01*
X108105363Y-46964759D01*
X108305241Y-47164637D01*
X108537759Y-47320000D01*
X108305241Y-47475363D01*
X108105363Y-47675241D01*
X107948320Y-47910273D01*
X107840147Y-48171426D01*
X107785000Y-48448665D01*
X107785000Y-48731335D01*
X107840147Y-49008574D01*
X107948320Y-49269727D01*
X108105363Y-49504759D01*
X108305241Y-49704637D01*
X108537759Y-49860000D01*
X108305241Y-50015363D01*
X108105363Y-50215241D01*
X107948320Y-50450273D01*
X107840147Y-50711426D01*
X107785000Y-50988665D01*
X107785000Y-51271335D01*
X107840147Y-51548574D01*
X107948320Y-51809727D01*
X108105363Y-52044759D01*
X108305241Y-52244637D01*
X108537759Y-52400000D01*
X108305241Y-52555363D01*
X108105363Y-52755241D01*
X107948320Y-52990273D01*
X107840147Y-53251426D01*
X107785000Y-53528665D01*
X107785000Y-53811335D01*
X107840147Y-54088574D01*
X107948320Y-54349727D01*
X108105363Y-54584759D01*
X108305241Y-54784637D01*
X108537759Y-54940000D01*
X108305241Y-55095363D01*
X108105363Y-55295241D01*
X107948320Y-55530273D01*
X107840147Y-55791426D01*
X107785000Y-56068665D01*
X107785000Y-56351335D01*
X107840147Y-56628574D01*
X107948320Y-56889727D01*
X108105363Y-57124759D01*
X108305241Y-57324637D01*
X108537759Y-57480000D01*
X108305241Y-57635363D01*
X108105363Y-57835241D01*
X107948320Y-58070273D01*
X107840147Y-58331426D01*
X107785000Y-58608665D01*
X107785000Y-58891335D01*
X107840147Y-59168574D01*
X107948320Y-59429727D01*
X108105363Y-59664759D01*
X108305241Y-59864637D01*
X108537759Y-60020000D01*
X108305241Y-60175363D01*
X108105363Y-60375241D01*
X107948320Y-60610273D01*
X107840147Y-60871426D01*
X107785000Y-61148665D01*
X107785000Y-61431335D01*
X107840147Y-61708574D01*
X107948320Y-61969727D01*
X108105363Y-62204759D01*
X108305241Y-62404637D01*
X108537759Y-62560000D01*
X108305241Y-62715363D01*
X108105363Y-62915241D01*
X107948320Y-63150273D01*
X107840147Y-63411426D01*
X107785000Y-63688665D01*
X107785000Y-63971335D01*
X107840147Y-64248574D01*
X107938077Y-64484999D01*
X106242326Y-64484999D01*
X106205001Y-64481323D01*
X106167676Y-64484999D01*
X106167668Y-64484999D01*
X106056015Y-64495996D01*
X105912754Y-64539453D01*
X105780725Y-64610025D01*
X105665000Y-64704998D01*
X105641202Y-64733996D01*
X104765199Y-65610000D01*
X100913043Y-65610000D01*
X100809637Y-65455241D01*
X100609759Y-65255363D01*
X100377241Y-65100000D01*
X100609759Y-64944637D01*
X100809637Y-64744759D01*
X100966680Y-64509727D01*
X101074853Y-64248574D01*
X101130000Y-63971335D01*
X101130000Y-63688665D01*
X101074853Y-63411426D01*
X100966680Y-63150273D01*
X100809637Y-62915241D01*
X100609759Y-62715363D01*
X100377241Y-62560000D01*
X100609759Y-62404637D01*
X100809637Y-62204759D01*
X100966680Y-61969727D01*
X101074853Y-61708574D01*
X101130000Y-61431335D01*
X101130000Y-61148665D01*
X101074853Y-60871426D01*
X100966680Y-60610273D01*
X100809637Y-60375241D01*
X100609759Y-60175363D01*
X100377241Y-60020000D01*
X100609759Y-59864637D01*
X100809637Y-59664759D01*
X100966680Y-59429727D01*
X101074853Y-59168574D01*
X101130000Y-58891335D01*
X101130000Y-58608665D01*
X101074853Y-58331426D01*
X100966680Y-58070273D01*
X100809637Y-57835241D01*
X100609759Y-57635363D01*
X100377241Y-57480000D01*
X100609759Y-57324637D01*
X100809637Y-57124759D01*
X100966680Y-56889727D01*
X101074853Y-56628574D01*
X101130000Y-56351335D01*
X101130000Y-56068665D01*
X101074853Y-55791426D01*
X100966680Y-55530273D01*
X100809637Y-55295241D01*
X100609759Y-55095363D01*
X100377241Y-54940000D01*
X100609759Y-54784637D01*
X100809637Y-54584759D01*
X100966680Y-54349727D01*
X101074853Y-54088574D01*
X101130000Y-53811335D01*
X101130000Y-53528665D01*
X101074853Y-53251426D01*
X100966680Y-52990273D01*
X100809637Y-52755241D01*
X100609759Y-52555363D01*
X100377241Y-52400000D01*
X100609759Y-52244637D01*
X100809637Y-52044759D01*
X100966680Y-51809727D01*
X101074853Y-51548574D01*
X101130000Y-51271335D01*
X101130000Y-50988665D01*
X101074853Y-50711426D01*
X100966680Y-50450273D01*
X100809637Y-50215241D01*
X100609759Y-50015363D01*
X100377241Y-49860000D01*
X100609759Y-49704637D01*
X100809637Y-49504759D01*
X100966680Y-49269727D01*
X101074853Y-49008574D01*
X101130000Y-48731335D01*
X101130000Y-48448665D01*
X101074853Y-48171426D01*
X100966680Y-47910273D01*
X100809637Y-47675241D01*
X100609759Y-47475363D01*
X100377241Y-47320000D01*
X100609759Y-47164637D01*
X100809637Y-46964759D01*
X100966680Y-46729727D01*
X101074853Y-46468574D01*
X101130000Y-46191335D01*
X101130000Y-45908665D01*
X101074853Y-45631426D01*
X100966680Y-45370273D01*
X100809637Y-45135241D01*
X100609759Y-44935363D01*
X100377241Y-44780000D01*
X100609759Y-44624637D01*
X100809637Y-44424759D01*
X100966680Y-44189727D01*
X101074853Y-43928574D01*
X101130000Y-43651335D01*
X101130000Y-43368665D01*
X101074853Y-43091426D01*
X100966680Y-42830273D01*
X100809637Y-42595241D01*
X100611039Y-42396643D01*
X100619482Y-42395812D01*
X100739180Y-42359502D01*
X100849494Y-42300537D01*
X100946185Y-42221185D01*
X101025537Y-42124494D01*
X101084502Y-42014180D01*
X101120812Y-41894482D01*
X101133072Y-41770000D01*
X101133072Y-40170000D01*
X101120812Y-40045518D01*
X101084502Y-39925820D01*
X101025537Y-39815506D01*
X100946185Y-39718815D01*
X100849494Y-39639463D01*
X100739180Y-39580498D01*
X100619482Y-39544188D01*
X100495000Y-39531928D01*
X98895000Y-39531928D01*
X98770518Y-39544188D01*
X98650820Y-39580498D01*
X98540506Y-39639463D01*
X98443815Y-39718815D01*
X98364463Y-39815506D01*
X98305498Y-39925820D01*
X98269188Y-40045518D01*
X98256928Y-40170000D01*
X95910000Y-40170000D01*
X95910000Y-39643380D01*
X97428381Y-38125000D01*
X110457591Y-38125000D01*
X110490000Y-38128192D01*
X110522409Y-38125000D01*
X110522419Y-38125000D01*
X110619383Y-38115450D01*
X110743793Y-38077710D01*
X110858450Y-38016425D01*
X110958948Y-37933948D01*
X110979616Y-37908764D01*
X112838770Y-36049611D01*
X112863948Y-36028948D01*
X112946425Y-35928450D01*
X113007710Y-35813793D01*
X113045450Y-35689383D01*
X113055000Y-35592419D01*
X113055000Y-35592409D01*
X113058192Y-35560000D01*
X113055000Y-35527591D01*
X113055000Y-32600000D01*
X127416928Y-32600000D01*
X127429188Y-32724482D01*
X127465498Y-32844180D01*
X127524463Y-32954494D01*
X127603815Y-33051185D01*
X127700506Y-33130537D01*
X127810820Y-33189502D01*
X127930518Y-33225812D01*
X128055000Y-33238072D01*
X128619250Y-33235000D01*
X128778000Y-33076250D01*
X128778000Y-31877000D01*
X127578750Y-31877000D01*
X127420000Y-32035750D01*
X127416928Y-32600000D01*
X113055000Y-32600000D01*
X113055000Y-30900000D01*
X127416928Y-30900000D01*
X127420000Y-31464250D01*
X127578750Y-31623000D01*
X128778000Y-31623000D01*
X128778000Y-30423750D01*
X129032000Y-30423750D01*
X129032000Y-31623000D01*
X129052000Y-31623000D01*
X129052000Y-31877000D01*
X129032000Y-31877000D01*
X129032000Y-33076250D01*
X129190750Y-33235000D01*
X129755000Y-33238072D01*
X129879482Y-33225812D01*
X129999180Y-33189502D01*
X130109494Y-33130537D01*
X130206185Y-33051185D01*
X130285537Y-32954494D01*
X130344502Y-32844180D01*
X130366513Y-32771620D01*
X130498368Y-32903475D01*
X130741589Y-33065990D01*
X131011842Y-33177932D01*
X131298740Y-33235000D01*
X131591260Y-33235000D01*
X131878158Y-33177932D01*
X132148411Y-33065990D01*
X132391632Y-32903475D01*
X132598475Y-32696632D01*
X132715000Y-32522240D01*
X132831525Y-32696632D01*
X133038368Y-32903475D01*
X133281589Y-33065990D01*
X133551842Y-33177932D01*
X133838740Y-33235000D01*
X134131260Y-33235000D01*
X134418158Y-33177932D01*
X134688411Y-33065990D01*
X134931632Y-32903475D01*
X135138475Y-32696632D01*
X135300990Y-32453411D01*
X135412932Y-32183158D01*
X135470000Y-31896260D01*
X135470000Y-31603740D01*
X135412932Y-31316842D01*
X135300990Y-31046589D01*
X135138475Y-30803368D01*
X134931632Y-30596525D01*
X134688411Y-30434010D01*
X134418158Y-30322068D01*
X134131260Y-30265000D01*
X133838740Y-30265000D01*
X133551842Y-30322068D01*
X133281589Y-30434010D01*
X133038368Y-30596525D01*
X132831525Y-30803368D01*
X132715000Y-30977760D01*
X132598475Y-30803368D01*
X132391632Y-30596525D01*
X132148411Y-30434010D01*
X131878158Y-30322068D01*
X131591260Y-30265000D01*
X131298740Y-30265000D01*
X131011842Y-30322068D01*
X130741589Y-30434010D01*
X130498368Y-30596525D01*
X130366513Y-30728380D01*
X130344502Y-30655820D01*
X130285537Y-30545506D01*
X130206185Y-30448815D01*
X130109494Y-30369463D01*
X129999180Y-30310498D01*
X129879482Y-30274188D01*
X129755000Y-30261928D01*
X129190750Y-30265000D01*
X129032000Y-30423750D01*
X128778000Y-30423750D01*
X128619250Y-30265000D01*
X128055000Y-30261928D01*
X127930518Y-30274188D01*
X127810820Y-30310498D01*
X127700506Y-30369463D01*
X127603815Y-30448815D01*
X127524463Y-30545506D01*
X127465498Y-30655820D01*
X127429188Y-30775518D01*
X127416928Y-30900000D01*
X113055000Y-30900000D01*
X113055000Y-29483380D01*
X114573381Y-27965000D01*
X135616620Y-27965000D01*
X137135000Y-29483381D01*
G37*
%TD.AperFunction*%
%TD*%
M02*
