%TF.GenerationSoftware,KiCad,Pcbnew,(5.1.10)-1*%
%TF.CreationDate,2022-03-17T12:17:49-05:00*%
%TF.ProjectId,gummyswitch,67756d6d-7973-4776-9974-63682e6b6963,rev?*%
%TF.SameCoordinates,Original*%
%TF.FileFunction,Soldermask,Top*%
%TF.FilePolarity,Negative*%
%FSLAX46Y46*%
G04 Gerber Fmt 4.6, Leading zero omitted, Abs format (unit mm)*
G04 Created by KiCad (PCBNEW (5.1.10)-1) date 2022-03-17 12:17:49*
%MOMM*%
%LPD*%
G01*
G04 APERTURE LIST*
%ADD10R,1.600000X1.600000*%
%ADD11O,1.600000X1.600000*%
%ADD12O,1.700000X1.700000*%
%ADD13R,1.700000X1.700000*%
G04 APERTURE END LIST*
D10*
%TO.C,U2*%
X109220000Y-40970000D03*
D11*
X124460000Y-91770000D03*
X109220000Y-43510000D03*
X124460000Y-89230000D03*
X109220000Y-46050000D03*
X124460000Y-86690000D03*
X109220000Y-48590000D03*
X124460000Y-84150000D03*
X109220000Y-51130000D03*
X124460000Y-81610000D03*
X109220000Y-53670000D03*
X124460000Y-79070000D03*
X109220000Y-56210000D03*
X124460000Y-76530000D03*
X109220000Y-58750000D03*
X124460000Y-73990000D03*
X109220000Y-61290000D03*
X124460000Y-71450000D03*
X109220000Y-63830000D03*
X124460000Y-68910000D03*
X109220000Y-66370000D03*
X124460000Y-66370000D03*
X109220000Y-68910000D03*
X124460000Y-63830000D03*
X109220000Y-71450000D03*
X124460000Y-61290000D03*
X109220000Y-73990000D03*
X124460000Y-58750000D03*
X109220000Y-76530000D03*
X124460000Y-56210000D03*
X109220000Y-79070000D03*
X124460000Y-53670000D03*
X109220000Y-81610000D03*
X124460000Y-51130000D03*
X109220000Y-84150000D03*
X124460000Y-48590000D03*
X109220000Y-86690000D03*
X124460000Y-46050000D03*
X109220000Y-89230000D03*
X124460000Y-43510000D03*
X109220000Y-91770000D03*
X124460000Y-40970000D03*
%TD*%
%TO.C,C1*%
G36*
G01*
X114460000Y-32030000D02*
X115410000Y-32030000D01*
G75*
G02*
X115660000Y-32280000I0J-250000D01*
G01*
X115660000Y-32955000D01*
G75*
G02*
X115410000Y-33205000I-250000J0D01*
G01*
X114460000Y-33205000D01*
G75*
G02*
X114210000Y-32955000I0J250000D01*
G01*
X114210000Y-32280000D01*
G75*
G02*
X114460000Y-32030000I250000J0D01*
G01*
G37*
G36*
G01*
X114460000Y-34105000D02*
X115410000Y-34105000D01*
G75*
G02*
X115660000Y-34355000I0J-250000D01*
G01*
X115660000Y-35030000D01*
G75*
G02*
X115410000Y-35280000I-250000J0D01*
G01*
X114460000Y-35280000D01*
G75*
G02*
X114210000Y-35030000I0J250000D01*
G01*
X114210000Y-34355000D01*
G75*
G02*
X114460000Y-34105000I250000J0D01*
G01*
G37*
%TD*%
%TO.C,R1*%
G36*
G01*
X133750000Y-35375001D02*
X133750000Y-34474999D01*
G75*
G02*
X133999999Y-34225000I249999J0D01*
G01*
X134700001Y-34225000D01*
G75*
G02*
X134950000Y-34474999I0J-249999D01*
G01*
X134950000Y-35375001D01*
G75*
G02*
X134700001Y-35625000I-249999J0D01*
G01*
X133999999Y-35625000D01*
G75*
G02*
X133750000Y-35375001I0J249999D01*
G01*
G37*
G36*
G01*
X131750000Y-35375001D02*
X131750000Y-34474999D01*
G75*
G02*
X131999999Y-34225000I249999J0D01*
G01*
X132700001Y-34225000D01*
G75*
G02*
X132950000Y-34474999I0J-249999D01*
G01*
X132950000Y-35375001D01*
G75*
G02*
X132700001Y-35625000I-249999J0D01*
G01*
X131999999Y-35625000D01*
G75*
G02*
X131750000Y-35375001I0J249999D01*
G01*
G37*
%TD*%
D12*
%TO.C,SW1*%
X133985000Y-31750000D03*
X131445000Y-31750000D03*
D13*
X128905000Y-31750000D03*
%TD*%
%TO.C,U1*%
G36*
G01*
X117625000Y-32155000D02*
X117325000Y-32155000D01*
G75*
G02*
X117175000Y-32005000I0J150000D01*
G01*
X117175000Y-30355000D01*
G75*
G02*
X117325000Y-30205000I150000J0D01*
G01*
X117625000Y-30205000D01*
G75*
G02*
X117775000Y-30355000I0J-150000D01*
G01*
X117775000Y-32005000D01*
G75*
G02*
X117625000Y-32155000I-150000J0D01*
G01*
G37*
G36*
G01*
X118895000Y-32155000D02*
X118595000Y-32155000D01*
G75*
G02*
X118445000Y-32005000I0J150000D01*
G01*
X118445000Y-30355000D01*
G75*
G02*
X118595000Y-30205000I150000J0D01*
G01*
X118895000Y-30205000D01*
G75*
G02*
X119045000Y-30355000I0J-150000D01*
G01*
X119045000Y-32005000D01*
G75*
G02*
X118895000Y-32155000I-150000J0D01*
G01*
G37*
G36*
G01*
X120165000Y-32155000D02*
X119865000Y-32155000D01*
G75*
G02*
X119715000Y-32005000I0J150000D01*
G01*
X119715000Y-30355000D01*
G75*
G02*
X119865000Y-30205000I150000J0D01*
G01*
X120165000Y-30205000D01*
G75*
G02*
X120315000Y-30355000I0J-150000D01*
G01*
X120315000Y-32005000D01*
G75*
G02*
X120165000Y-32155000I-150000J0D01*
G01*
G37*
G36*
G01*
X121435000Y-32155000D02*
X121135000Y-32155000D01*
G75*
G02*
X120985000Y-32005000I0J150000D01*
G01*
X120985000Y-30355000D01*
G75*
G02*
X121135000Y-30205000I150000J0D01*
G01*
X121435000Y-30205000D01*
G75*
G02*
X121585000Y-30355000I0J-150000D01*
G01*
X121585000Y-32005000D01*
G75*
G02*
X121435000Y-32155000I-150000J0D01*
G01*
G37*
G36*
G01*
X122705000Y-32155000D02*
X122405000Y-32155000D01*
G75*
G02*
X122255000Y-32005000I0J150000D01*
G01*
X122255000Y-30355000D01*
G75*
G02*
X122405000Y-30205000I150000J0D01*
G01*
X122705000Y-30205000D01*
G75*
G02*
X122855000Y-30355000I0J-150000D01*
G01*
X122855000Y-32005000D01*
G75*
G02*
X122705000Y-32155000I-150000J0D01*
G01*
G37*
G36*
G01*
X123975000Y-32155000D02*
X123675000Y-32155000D01*
G75*
G02*
X123525000Y-32005000I0J150000D01*
G01*
X123525000Y-30355000D01*
G75*
G02*
X123675000Y-30205000I150000J0D01*
G01*
X123975000Y-30205000D01*
G75*
G02*
X124125000Y-30355000I0J-150000D01*
G01*
X124125000Y-32005000D01*
G75*
G02*
X123975000Y-32155000I-150000J0D01*
G01*
G37*
G36*
G01*
X125245000Y-32155000D02*
X124945000Y-32155000D01*
G75*
G02*
X124795000Y-32005000I0J150000D01*
G01*
X124795000Y-30355000D01*
G75*
G02*
X124945000Y-30205000I150000J0D01*
G01*
X125245000Y-30205000D01*
G75*
G02*
X125395000Y-30355000I0J-150000D01*
G01*
X125395000Y-32005000D01*
G75*
G02*
X125245000Y-32155000I-150000J0D01*
G01*
G37*
G36*
G01*
X125245000Y-37105000D02*
X124945000Y-37105000D01*
G75*
G02*
X124795000Y-36955000I0J150000D01*
G01*
X124795000Y-35305000D01*
G75*
G02*
X124945000Y-35155000I150000J0D01*
G01*
X125245000Y-35155000D01*
G75*
G02*
X125395000Y-35305000I0J-150000D01*
G01*
X125395000Y-36955000D01*
G75*
G02*
X125245000Y-37105000I-150000J0D01*
G01*
G37*
G36*
G01*
X123975000Y-37105000D02*
X123675000Y-37105000D01*
G75*
G02*
X123525000Y-36955000I0J150000D01*
G01*
X123525000Y-35305000D01*
G75*
G02*
X123675000Y-35155000I150000J0D01*
G01*
X123975000Y-35155000D01*
G75*
G02*
X124125000Y-35305000I0J-150000D01*
G01*
X124125000Y-36955000D01*
G75*
G02*
X123975000Y-37105000I-150000J0D01*
G01*
G37*
G36*
G01*
X122705000Y-37105000D02*
X122405000Y-37105000D01*
G75*
G02*
X122255000Y-36955000I0J150000D01*
G01*
X122255000Y-35305000D01*
G75*
G02*
X122405000Y-35155000I150000J0D01*
G01*
X122705000Y-35155000D01*
G75*
G02*
X122855000Y-35305000I0J-150000D01*
G01*
X122855000Y-36955000D01*
G75*
G02*
X122705000Y-37105000I-150000J0D01*
G01*
G37*
G36*
G01*
X121435000Y-37105000D02*
X121135000Y-37105000D01*
G75*
G02*
X120985000Y-36955000I0J150000D01*
G01*
X120985000Y-35305000D01*
G75*
G02*
X121135000Y-35155000I150000J0D01*
G01*
X121435000Y-35155000D01*
G75*
G02*
X121585000Y-35305000I0J-150000D01*
G01*
X121585000Y-36955000D01*
G75*
G02*
X121435000Y-37105000I-150000J0D01*
G01*
G37*
G36*
G01*
X120165000Y-37105000D02*
X119865000Y-37105000D01*
G75*
G02*
X119715000Y-36955000I0J150000D01*
G01*
X119715000Y-35305000D01*
G75*
G02*
X119865000Y-35155000I150000J0D01*
G01*
X120165000Y-35155000D01*
G75*
G02*
X120315000Y-35305000I0J-150000D01*
G01*
X120315000Y-36955000D01*
G75*
G02*
X120165000Y-37105000I-150000J0D01*
G01*
G37*
G36*
G01*
X118895000Y-37105000D02*
X118595000Y-37105000D01*
G75*
G02*
X118445000Y-36955000I0J150000D01*
G01*
X118445000Y-35305000D01*
G75*
G02*
X118595000Y-35155000I150000J0D01*
G01*
X118895000Y-35155000D01*
G75*
G02*
X119045000Y-35305000I0J-150000D01*
G01*
X119045000Y-36955000D01*
G75*
G02*
X118895000Y-37105000I-150000J0D01*
G01*
G37*
G36*
G01*
X117625000Y-37105000D02*
X117325000Y-37105000D01*
G75*
G02*
X117175000Y-36955000I0J150000D01*
G01*
X117175000Y-35305000D01*
G75*
G02*
X117325000Y-35155000I150000J0D01*
G01*
X117625000Y-35155000D01*
G75*
G02*
X117775000Y-35305000I0J-150000D01*
G01*
X117775000Y-36955000D01*
G75*
G02*
X117625000Y-37105000I-150000J0D01*
G01*
G37*
%TD*%
D11*
%TO.C,U4*%
X134000000Y-40970000D03*
X118760000Y-91770000D03*
X134000000Y-43510000D03*
X118760000Y-89230000D03*
X134000000Y-46050000D03*
X118760000Y-86690000D03*
X134000000Y-48590000D03*
X118760000Y-84150000D03*
X134000000Y-51130000D03*
X118760000Y-81610000D03*
X134000000Y-53670000D03*
X118760000Y-79070000D03*
X134000000Y-56210000D03*
X118760000Y-76530000D03*
X134000000Y-58750000D03*
X118760000Y-73990000D03*
X134000000Y-61290000D03*
X118760000Y-71450000D03*
X134000000Y-63830000D03*
X118760000Y-68910000D03*
X134000000Y-66370000D03*
X118760000Y-66370000D03*
X134000000Y-68910000D03*
X118760000Y-63830000D03*
X134000000Y-71450000D03*
X118760000Y-61290000D03*
X134000000Y-73990000D03*
X118760000Y-58750000D03*
X134000000Y-76530000D03*
X118760000Y-56210000D03*
X134000000Y-79070000D03*
X118760000Y-53670000D03*
X134000000Y-81610000D03*
X118760000Y-51130000D03*
X134000000Y-84150000D03*
X118760000Y-48590000D03*
X134000000Y-86690000D03*
X118760000Y-46050000D03*
X134000000Y-89230000D03*
X118760000Y-43510000D03*
X134000000Y-91770000D03*
D10*
X118760000Y-40970000D03*
%TD*%
D11*
%TO.C,U3*%
X114935000Y-40970000D03*
X99695000Y-91770000D03*
X114935000Y-43510000D03*
X99695000Y-89230000D03*
X114935000Y-46050000D03*
X99695000Y-86690000D03*
X114935000Y-48590000D03*
X99695000Y-84150000D03*
X114935000Y-51130000D03*
X99695000Y-81610000D03*
X114935000Y-53670000D03*
X99695000Y-79070000D03*
X114935000Y-56210000D03*
X99695000Y-76530000D03*
X114935000Y-58750000D03*
X99695000Y-73990000D03*
X114935000Y-61290000D03*
X99695000Y-71450000D03*
X114935000Y-63830000D03*
X99695000Y-68910000D03*
X114935000Y-66370000D03*
X99695000Y-66370000D03*
X114935000Y-68910000D03*
X99695000Y-63830000D03*
X114935000Y-71450000D03*
X99695000Y-61290000D03*
X114935000Y-73990000D03*
X99695000Y-58750000D03*
X114935000Y-76530000D03*
X99695000Y-56210000D03*
X114935000Y-79070000D03*
X99695000Y-53670000D03*
X114935000Y-81610000D03*
X99695000Y-51130000D03*
X114935000Y-84150000D03*
X99695000Y-48590000D03*
X114935000Y-86690000D03*
X99695000Y-46050000D03*
X114935000Y-89230000D03*
X99695000Y-43510000D03*
X114935000Y-91770000D03*
D10*
X99695000Y-40970000D03*
%TD*%
M02*
